<?xml version="1.0" encoding="UTF-8"?><svg id="a" xmlns="http://www.w3.org/2000/svg" xmlns:xlink="http://www.w3.org/1999/xlink" viewBox="0 0 150 150"><defs><style>.g{fill:url(#c);}.h{fill:url(#f);}.i,.j{opacity:.6;}.k{fill:url(#b);}.j{fill:url(#d);isolation:isolate;}.l{fill:url(#e);}.m{fill:none;}</style><linearGradient id="b" x1="33.6" y1="78.46" x2="196.83" y2="78.46" gradientTransform="translate(0 152) scale(1 -1)" gradientUnits="userSpaceOnUse"><stop offset="0" stop-color="#ff7028"/><stop offset="1" stop-color="#ffcd4d"/></linearGradient><linearGradient id="c" x1="108.13" y1="56.32" x2="-18.93" y2="56.32" xlink:href="#b"/><linearGradient id="d" x1="30.78" y1="46.97" x2="66.63" y2="46.97" gradientTransform="translate(0 152) scale(1 -1)" gradientUnits="userSpaceOnUse"><stop offset="0" stop-color="#c44100"/><stop offset="1" stop-color="#c84300" stop-opacity="0"/></linearGradient><linearGradient id="e" x1="220.02" y1="121.6" x2="21.73" y2="62.8" xlink:href="#b"/><linearGradient id="f" x1="166.24" y1="117.07" x2="-40.72" y2="117.07" xlink:href="#b"/></defs><path class="m" d="M0,0H150V150H0V0Z"/><g><path class="k" d="M38.65,71.26c5.53-10.15,16.2-16.48,27.8-16.48,27.94-2.94,54.47-2.84,79.71,0,0,21.93-17.86,39.7-39.89,39.7H26.01l12.64-23.22Z"/><path class="g" d="M35.77,76.41c7.25-13.34,21.27-21.64,36.5-21.64h29.27l-34.99,64.31c-5.87,10.79-17.21,17.51-29.54,17.51H3.04l32.73-60.18Z"/><g class="i"><path class="j" d="M68.43,115.52c-13.15-18.59-34.65-20.88-42.58-20.98h54.06s-7.72,14.13-11.48,20.98Z"/></g></g><path class="l" d="M66.41,54.79c-11.62,0-22.31,6.33-27.83,16.5-6.17,11.37-12.57,23.18-12.57,23.18h53.93l22.78-41.86-36.31,2.18Z"/><path class="h" d="M38.65,38.3c5.53,10.15,16.2,16.48,27.8,16.48h79.71c0-21.92-17.86-39.7-39.89-39.7H26.01l12.64,23.22Z"/></svg>