<svg xmlns="http://www.w3.org/2000/svg" version="1.1" xmlns:xlink="http://www.w3.org/1999/xlink" xmlns:svgjs="http://svgjs.dev/svgjs" viewBox="0 0 2400 800"><defs><linearGradient x1="50%" y1="0%" x2="50%" y2="100%" id="sssurf-grad"><stop stop-color="hsl(208, 77%, 50%)" stop-opacity="1" offset="0%"></stop><stop stop-color="hsl(208, 74%, 93%)" stop-opacity="1" offset="100%"></stop></linearGradient></defs><g fill="url(#sssurf-grad)" transform="matrix(1,0,0,1,10.8282470703125,225.00411224365234)"><path d="M-10,10C33.75,16.25,114.58333333333334,48.333333333333336,200,40C285.41666666666663,31.666666666666664,316.66666666666663,-30.833333333333332,400,-30C483.33333333333337,-29.166666666666668,516.6666666666666,39.416666666666664,600,44C683.3333333333334,48.583333333333336,716.6666666666666,-3.416666666666667,800,-8C883.3333333333334,-12.583333333333332,916.6666666666666,25.75,1000,22C1083.3333333333333,18.25,1116.6666666666667,-27.666666666666668,1200,-26C1283.3333333333333,-24.333333333333332,1316.6666666666667,28.541666666666668,1400,30C1483.3333333333333,31.458333333333332,1516.6666666666667,-21.708333333333332,1600,-19C1683.3333333333333,-16.291666666666668,1716.6666666666667,38.833333333333336,1800,43C1883.3333333333333,47.166666666666664,1916.6666666666667,2.875,2000,1C2083.3333333333335,-0.875,2118.75,32.125,2200,34C2281.25,35.875,2296.25,-66.25,2390,10C2483.75,86.25,3252.0833333333335,214.58333333333331,2650,400C2047.9166666666665,585.4166666666667,156.25,795.8333333333334,-500,900" transform="matrix(1,0,0,1,0,35)" opacity="0.05"></path><path d="M-10,10C33.75,16.25,114.58333333333334,48.333333333333336,200,40C285.41666666666663,31.666666666666664,316.66666666666663,-30.833333333333332,400,-30C483.33333333333337,-29.166666666666668,516.6666666666666,39.416666666666664,600,44C683.3333333333334,48.583333333333336,716.6666666666666,-3.416666666666667,800,-8C883.3333333333334,-12.583333333333332,916.6666666666666,25.75,1000,22C1083.3333333333333,18.25,1116.6666666666667,-27.666666666666668,1200,-26C1283.3333333333333,-24.333333333333332,1316.6666666666667,28.541666666666668,1400,30C1483.3333333333333,31.458333333333332,1516.6666666666667,-21.708333333333332,1600,-19C1683.3333333333333,-16.291666666666668,1716.6666666666667,38.833333333333336,1800,43C1883.3333333333333,47.166666666666664,1916.6666666666667,2.875,2000,1C2083.3333333333335,-0.875,2118.75,32.125,2200,34C2281.25,35.875,2296.25,-66.25,2390,10C2483.75,86.25,3252.0833333333335,214.58333333333331,2650,400C2047.9166666666665,585.4166666666667,156.25,795.8333333333334,-500,900" transform="matrix(1,0,0,1,0,70)" opacity="0.21"></path><path d="M-10,10C33.75,16.25,114.58333333333334,48.333333333333336,200,40C285.41666666666663,31.666666666666664,316.66666666666663,-30.833333333333332,400,-30C483.33333333333337,-29.166666666666668,516.6666666666666,39.416666666666664,600,44C683.3333333333334,48.583333333333336,716.6666666666666,-3.416666666666667,800,-8C883.3333333333334,-12.583333333333332,916.6666666666666,25.75,1000,22C1083.3333333333333,18.25,1116.6666666666667,-27.666666666666668,1200,-26C1283.3333333333333,-24.333333333333332,1316.6666666666667,28.541666666666668,1400,30C1483.3333333333333,31.458333333333332,1516.6666666666667,-21.708333333333332,1600,-19C1683.3333333333333,-16.291666666666668,1716.6666666666667,38.833333333333336,1800,43C1883.3333333333333,47.166666666666664,1916.6666666666667,2.875,2000,1C2083.3333333333335,-0.875,2118.75,32.125,2200,34C2281.25,35.875,2296.25,-66.25,2390,10C2483.75,86.25,3252.0833333333335,214.58333333333331,2650,400C2047.9166666666665,585.4166666666667,156.25,795.8333333333334,-500,900" transform="matrix(1,0,0,1,0,105)" opacity="0.37"></path><path d="M-10,10C33.75,16.25,114.58333333333334,48.333333333333336,200,40C285.41666666666663,31.666666666666664,316.66666666666663,-30.833333333333332,400,-30C483.33333333333337,-29.166666666666668,516.6666666666666,39.416666666666664,600,44C683.3333333333334,48.583333333333336,716.6666666666666,-3.416666666666667,800,-8C883.3333333333334,-12.583333333333332,916.6666666666666,25.75,1000,22C1083.3333333333333,18.25,1116.6666666666667,-27.666666666666668,1200,-26C1283.3333333333333,-24.333333333333332,1316.6666666666667,28.541666666666668,1400,30C1483.3333333333333,31.458333333333332,1516.6666666666667,-21.708333333333332,1600,-19C1683.3333333333333,-16.291666666666668,1716.6666666666667,38.833333333333336,1800,43C1883.3333333333333,47.166666666666664,1916.6666666666667,2.875,2000,1C2083.3333333333335,-0.875,2118.75,32.125,2200,34C2281.25,35.875,2296.25,-66.25,2390,10C2483.75,86.25,3252.0833333333335,214.58333333333331,2650,400C2047.9166666666665,585.4166666666667,156.25,795.8333333333334,-500,900" transform="matrix(1,0,0,1,0,140)" opacity="0.53"></path><path d="M-10,10C33.75,16.25,114.58333333333334,48.333333333333336,200,40C285.41666666666663,31.666666666666664,316.66666666666663,-30.833333333333332,400,-30C483.33333333333337,-29.166666666666668,516.6666666666666,39.416666666666664,600,44C683.3333333333334,48.583333333333336,716.6666666666666,-3.416666666666667,800,-8C883.3333333333334,-12.583333333333332,916.6666666666666,25.75,1000,22C1083.3333333333333,18.25,1116.6666666666667,-27.666666666666668,1200,-26C1283.3333333333333,-24.333333333333332,1316.6666666666667,28.541666666666668,1400,30C1483.3333333333333,31.458333333333332,1516.6666666666667,-21.708333333333332,1600,-19C1683.3333333333333,-16.291666666666668,1716.6666666666667,38.833333333333336,1800,43C1883.3333333333333,47.166666666666664,1916.6666666666667,2.875,2000,1C2083.3333333333335,-0.875,2118.75,32.125,2200,34C2281.25,35.875,2296.25,-66.25,2390,10C2483.75,86.25,3252.0833333333335,214.58333333333331,2650,400C2047.9166666666665,585.4166666666667,156.25,795.8333333333334,-500,900" transform="matrix(1,0,0,1,0,175)" opacity="0.68"></path><path d="M-10,10C33.75,16.25,114.58333333333334,48.333333333333336,200,40C285.41666666666663,31.666666666666664,316.66666666666663,-30.833333333333332,400,-30C483.33333333333337,-29.166666666666668,516.6666666666666,39.416666666666664,600,44C683.3333333333334,48.583333333333336,716.6666666666666,-3.416666666666667,800,-8C883.3333333333334,-12.583333333333332,916.6666666666666,25.75,1000,22C1083.3333333333333,18.25,1116.6666666666667,-27.666666666666668,1200,-26C1283.3333333333333,-24.333333333333332,1316.6666666666667,28.541666666666668,1400,30C1483.3333333333333,31.458333333333332,1516.6666666666667,-21.708333333333332,1600,-19C1683.3333333333333,-16.291666666666668,1716.6666666666667,38.833333333333336,1800,43C1883.3333333333333,47.166666666666664,1916.6666666666667,2.875,2000,1C2083.3333333333335,-0.875,2118.75,32.125,2200,34C2281.25,35.875,2296.25,-66.25,2390,10C2483.75,86.25,3252.0833333333335,214.58333333333331,2650,400C2047.9166666666665,585.4166666666667,156.25,795.8333333333334,-500,900" transform="matrix(1,0,0,1,0,210)" opacity="0.84"></path><path d="M-10,10C33.75,16.25,114.58333333333334,48.333333333333336,200,40C285.41666666666663,31.666666666666664,316.66666666666663,-30.833333333333332,400,-30C483.33333333333337,-29.166666666666668,516.6666666666666,39.416666666666664,600,44C683.3333333333334,48.583333333333336,716.6666666666666,-3.416666666666667,800,-8C883.3333333333334,-12.583333333333332,916.6666666666666,25.75,1000,22C1083.3333333333333,18.25,1116.6666666666667,-27.666666666666668,1200,-26C1283.3333333333333,-24.333333333333332,1316.6666666666667,28.541666666666668,1400,30C1483.3333333333333,31.458333333333332,1516.6666666666667,-21.708333333333332,1600,-19C1683.3333333333333,-16.291666666666668,1716.6666666666667,38.833333333333336,1800,43C1883.3333333333333,47.166666666666664,1916.6666666666667,2.875,2000,1C2083.3333333333335,-0.875,2118.75,32.125,2200,34C2281.25,35.875,2296.25,-66.25,2390,10C2483.75,86.25,3252.0833333333335,214.58333333333331,2650,400C2047.9166666666665,585.4166666666667,156.25,795.8333333333334,-500,900" transform="matrix(1,0,0,1,0,245)" opacity="1"></path></g></svg>