<svg xmlns="http://www.w3.org/2000/svg" version="1.1" xmlns:xlink="http://www.w3.org/1999/xlink" xmlns:svgjs="http://svgjs.dev/svgjs" viewBox="0 0 800 800"><defs><radialGradient id="ccclaymoji-grad-dark" r="93%" cx="20%" cy="20%">
    <stop offset="70%" stop-color="hsl(170, 43%, 58%)" stop-opacity="0"></stop>
    <stop offset="97%" stop-color="#319183" stop-opacity="1"></stop>
</radialGradient><radialGradient id="ccclaymoji-grad-light" r="65%" cx="28%" cy="20%">
    <stop offset="0%" stop-color="#99f5e5" stop-opacity="0.75"></stop>
    <stop offset="100%" stop-color="hsl(170, 43%, 58%)" stop-opacity="0"></stop>
</radialGradient><filter id="ccclaymoji-blur" x="-100%" y="-100%" width="400%" height="400%" filterUnits="objectBoundingBox" primitiveUnits="userSpaceOnUse" color-interpolation-filters="sRGB">
    <feGaussianBlur stdDeviation="30" x="0%" y="0%" width="100%" height="100%" in="SourceGraphic" edgeMode="none" result="blur"></feGaussianBlur></filter><filter id="inner-blur" x="-100%" y="-100%" width="400%" height="400%" filterUnits="objectBoundingBox" primitiveUnits="userSpaceOnUse" color-interpolation-filters="sRGB">
    <feGaussianBlur stdDeviation="2" x="0%" y="0%" width="100%" height="100%" in="SourceGraphic" edgeMode="none" result="blur"></feGaussianBlur></filter><filter id="eye-shadow" x="-100%" y="-100%" width="400%" height="400%" filterUnits="objectBoundingBox" primitiveUnits="userSpaceOnUse" color-interpolation-filters="sRGB">
    <feDropShadow stdDeviation="10" dx="10" dy="10" flood-color="#000000" flood-opacity="0.2" x="0%" y="0%" width="100%" height="100%" result="dropShadow"></feDropShadow>
</filter><linearGradient id="eye-light" x1="50%" y1="0%" x2="50%" y2="100%">
    <stop offset="0%" stop-color="#555555" stop-opacity="1"></stop>
    <stop offset="100%" stop-color="black" stop-opacity="0"></stop>
</linearGradient><linearGradient id="mouth-light" x1="50%" y1="0%" x2="50%" y2="100%">
    <stop offset="0%" stop-color="#ff9667" stop-opacity="1"></stop>
    <stop offset="100%" stop-color="hsl(3, 100%, 51%)" stop-opacity="0"></stop>
</linearGradient><filter id="mouth-shadow" x="-100%" y="-100%" width="400%" height="400%" filterUnits="objectBoundingBox" primitiveUnits="userSpaceOnUse" color-interpolation-filters="sRGB">
    <feDropShadow stdDeviation="10" dx="10" dy="10" flood-color="#c20000" flood-opacity="0.2" x="0%" y="0%" width="100%" height="100%" result="dropShadow"></feDropShadow>
</filter></defs><g stroke-linecap="round"><path d="M638.5000152587891 449.999991280692C638.5000152587891 595.9221341378349 545.9221581159319 714.2142769949777 400.00001525878906 714.2142769949777C254.07851525878908 714.2142769949777 161.50001525878906 595.9221341378349 161.50001525878906 449.999991280692C161.50001525878906 304.078491280692 254.07851525878908 185.78570556640625 400.00001525878906 185.78570556640625C545.9221581159319 185.78570556640625 638.5000152587891 304.078491280692 638.5000152587891 449.999991280692Z " fill="#319183" opacity="0.25" filter="url(#ccclaymoji-blur)"></path><path d="M638.5 399.99999334873297C638.5 554.2367882205278 554.2367948717949 624.9102497589894 400 624.9102497589894C245.7638846153846 624.9102497589894 161.5 554.2367882205278 161.5 399.99999334873297C161.5 245.76387796411757 245.7638846153846 175.08973693847656 400 175.08973693847656C554.2367948717949 175.08973693847656 638.5 245.76387796411757 638.5 399.99999334873297Z " fill="hsl(170, 43%, 58%)"></path><path d="M638.5 399.99999334873297C638.5 554.2367882205278 554.2367948717949 624.9102497589894 400 624.9102497589894C245.7638846153846 624.9102497589894 161.5 554.2367882205278 161.5 399.99999334873297C161.5 245.76387796411757 245.7638846153846 175.08973693847656 400 175.08973693847656C554.2367948717949 175.08973693847656 638.5 245.76387796411757 638.5 399.99999334873297Z " fill="url(#ccclaymoji-grad-dark)"></path><path d="M638.5 399.99999334873297C638.5 554.2367882205278 554.2367948717949 624.9102497589894 400 624.9102497589894C245.7638846153846 624.9102497589894 161.5 554.2367882205278 161.5 399.99999334873297C161.5 245.76387796411757 245.7638846153846 175.08973693847656 400 175.08973693847656C554.2367948717949 175.08973693847656 638.5 245.76387796411757 638.5 399.99999334873297Z " fill="url(#ccclaymoji-grad-light)"></path><path d="M325 362Q375 414 375 362 " stroke-width="20" stroke="black" fill="none" filter="url(#eye-shadow)"></path><path d="M325 362Q375 414 375 362 " stroke-width="6.666666666666667" stroke="url(#eye-light)" fill="none" filter="url(#inner-blur)"></path><path d="M425 362.5Q475 412.5 475 362.5 " stroke-width="20" stroke="black" fill="none" filter="url(#eye-shadow)"></path><path d="M425 362.5Q475 412.5 475 362.5 " stroke-width="6.666666666666667" stroke="url(#eye-light)" fill="none" filter="url(#inner-blur)"></path><path d="M348 512.5Q364 562.5 452 512.5 " stroke-width="20" stroke="hsl(3, 100%, 51%)" fill="none" filter="url(#mouth-shadow)" transform="rotate(31, 400, 400)"></path><path d="M348 512.5Q364 562.5 452 512.5 " stroke-width="6.666666666666667" stroke="url(#mouth-light)" fill="none" filter="url(#inner-blur)" transform="rotate(31, 400, 400)"></path></g></svg>
