<svg xmlns="http://www.w3.org/2000/svg" version="1.1" xmlns:xlink="http://www.w3.org/1999/xlink" xmlns:svgjs="http://svgjs.dev/svgjs" viewBox="0 0 800 800"><defs><filter id="bbburst-blur-1" x="-100%" y="-100%" width="400%" height="400%"><feGaussianBlur in="SourceGraphic" stdDeviation="1"></feGaussianBlur></filter><filter id="bbburst-blur-2" x="-100%" y="-100%" width="400%" height="400%"><feGaussianBlur in="SourceGraphic" stdDeviation="2"></feGaussianBlur></filter><filter id="bbburst-blur-3" x="-100%" y="-100%" width="400%" height="400%"><feGaussianBlur in="SourceGraphic" stdDeviation="4"></feGaussianBlur></filter><filter id="bbburst-blur-4" x="-100%" y="-100%" width="400%" height="400%"><feGaussianBlur in="SourceGraphic" stdDeviation="12"></feGaussianBlur></filter><symbol id="bbburst-shape-1" viewBox="0 0 194 167"><path d="m97 0 96.129 166.5H.871L97 0Z"></path></symbol><symbol id="bbburst-shape-4" viewBox="0 0 149 143"><path d="M71.647 2.781c.898-2.764 4.808-2.764 5.706 0l15.445 47.534a3 3 0 0 0 2.853 2.073h49.98c2.906 0 4.115 3.719 1.764 5.427L106.96 87.193a2.999 2.999 0 0 0-1.09 3.354l15.445 47.534c.898 2.764-2.266 5.062-4.617 3.354l-40.435-29.378a3 3 0 0 0-3.526 0l-40.435 29.378c-2.351 1.708-5.515-.59-4.617-3.354L43.13 90.547a3 3 0 0 0-1.09-3.354L1.605 57.815c-2.35-1.708-1.142-5.427 1.764-5.427h49.98a3 3 0 0 0 2.853-2.073L71.647 2.781Z"></path></symbol><symbol id="bbburst-shape-6" viewBox="0 0 133 116"><path d="M59.7487 10.2513c-13.6683-13.66839-35.8291-13.66839-49.4974 0-13.66839 13.6683-13.66839 35.8291 0 49.4974l49.4974-49.4974ZM66.5 66.5 41.7513 91.2487 66.5 115.997l24.7487-24.7483L66.5 66.5Zm56.249-6.7513c13.668-13.6683 13.668-35.8291 0-49.4974-13.669-13.66839-35.8294-13.66839-49.4977 0l49.4977 49.4974Zm-112.4977 0 31.5 31.5 49.4974-49.4974-31.5-31.5-49.4974 49.4974Zm80.9974 31.5 31.5003-31.5-49.4977-49.4974-31.5 31.5 49.4974 49.4974Z"></path></symbol><symbol id="bbburst-shape-8" viewBox="0 0 87 168"><path d="m12 12 31.2546 18.0749c16.4102 9.4902 20.014 31.6325 7.4603 45.8369L36.3296 92.1884c-12.5684 14.2206-8.9394 36.3916 7.5068 45.8636L75 156" stroke-width="14" stroke-linecap="round" stroke-linejoin="round"></path></symbol><symbol id="bbburst-shape-10" viewBox="0 0 145 145"><circle cx="72.5" cy="72.5" r="61.5" fill="none" stroke-width="22"></circle></symbol></defs><use xlink:href="#bbburst-shape-4" width="35.23787088911412" opacity="0.5079762745164363" transform="matrix(0.8905499916611052,-0.4548853837533203,0.4548853837533203,0.8905499916611052,314.21665602650575,-139.26054164780797)" fill="#00a19d" filter="url(#bbburst-blur-2)"></use><use xlink:href="#bbburst-shape-10" width="17.12272713330088" opacity="0.7573705325015745" transform="matrix(0.9966030727132047,0.08235481442270848,-0.08235481442270848,0.9966030727132047,419.1538146963016,109.71038713575143)" fill="none" stroke="#00a19d" filter="url(#bbburst-blur-1)"></use><use xlink:href="#bbburst-shape-6" width="34.500579789805286" opacity="0.3428724416180725" transform="matrix(0.7754374966628731,0.6314243333679949,-0.6314243333679949,0.7754374966628731,345.24503631633013,46.722974092729714)" fill="#2c2891" filter="url(#bbburst-blur-2)"></use><use xlink:href="#bbburst-shape-6" width="35.52507689322749" opacity="0.49758673305747947" transform="matrix(0.9525161187191018,0.3044881665685844,-0.3044881665685844,0.9525161187191018,545.5701750494297,-208.80801919738974)" fill="#ff5c58" filter="url(#bbburst-blur-2)"></use><use xlink:href="#bbburst-shape-6" width="38.18787932182628" opacity="0.2856198040797141" transform="matrix(1.2318957858899269,-0.21197351888063556,0.21197351888063556,1.2318957858899269,555.8281375963281,-271.9428299594384)" fill="#ffa6d5" filter="url(#bbburst-blur-3)"></use><use xlink:href="#bbburst-shape-8" width="33.23794683967719" opacity="0.1652077184487647" transform="matrix(1.0961834069820926,-0.600734498973658,0.600734498973658,1.0961834069820926,502.1070729442004,76.73509154215793)" fill="none" stroke="#00a19d" filter="url(#bbburst-blur-3)"></use><use xlink:href="#bbburst-shape-4" width="33.67480231524548" opacity="0.06839140207081229" transform="matrix(1.276406972931091,-1.1971989139039882,1.1971989139039882,1.276406972931091,-456.45539427297297,130.82735684805436)" fill="#2c2891" filter="url(#bbburst-blur-4)"></use><use xlink:href="#bbburst-shape-6" width="15.060219610510003" opacity="0.7441678837842169" transform="matrix(0.9934700326286107,0.1140933576896887,-0.1140933576896887,0.9934700326286107,528.9802310467066,-68.9906752729812)" fill="#ffa6d5" filter="url(#bbburst-blur-1)"></use><use xlink:href="#bbburst-shape-1" width="35.40725307189442" opacity="0.1911490881874861" transform="matrix(1.186245510590633,-0.39410860001219006,0.39410860001219006,1.186245510590633,-31.922020424447737,-328.85715627402357)" fill="#ffbd9b" filter="url(#bbburst-blur-3)"></use><use xlink:href="#bbburst-shape-8" width="54.22029762899599" opacity="-0.07744639939706843" transform="matrix(1.7466071762131476,0.10891910760162642,-0.10891910760162642,1.7466071762131476,739.3858310862274,-644.1090883664579)" fill="none" stroke="#ffa6d5" filter="url(#bbburst-blur-4)"></use><use xlink:href="#bbburst-shape-4" width="30.665163640063785" opacity="0.49585652390979784" transform="matrix(0.7736407348447734,-0.6336245050413053,0.6336245050413053,0.7736407348447734,-61.43712952615354,214.2779769544432)" fill="#2c2891" filter="url(#bbburst-blur-2)"></use><use xlink:href="#bbburst-shape-1" width="11.354897690841737" opacity="0.9060505471240935" transform="matrix(0.8286206355939496,0.5598105414047497,-0.5598105414047497,0.8286206355939496,595.3346649482644,30.496328863022143)" fill="#ff5c58"></use><use xlink:href="#bbburst-shape-8" width="17.29603300114243" opacity="0.7401634300486235" transform="matrix(0.9602447743878971,0.27915940475064877,-0.27915940475064877,0.9602447743878971,503.3052481291197,-103.43852401657995)" fill="none" stroke="#ffbd9b" filter="url(#bbburst-blur-1)"></use><use xlink:href="#bbburst-shape-8" width="11.825233044926001" opacity="0.8379544177943055" transform="matrix(0.9976394571456558,-0.06866959695615824,0.06866959695615824,0.9976394571456558,405.812405302067,-60.15111550741102)" fill="none" stroke="#00a19d"></use><use xlink:href="#bbburst-shape-1" width="33.283382622599575" opacity="0.08413487737097824" transform="matrix(1.2722721032092044,1.201592150188918,-1.201592150188918,1.2722721032092044,1217.930570078801,-332.1329659945267)" fill="#ff5c58" filter="url(#bbburst-blur-4)"></use><use xlink:href="#bbburst-shape-4" width="35.267474504560255" opacity="0.5027763333782123" transform="matrix(0.8268752443349986,-0.5623853930410501,0.5623853930410501,0.8268752443349986,383.7615176904444,64.66725760627202)" fill="#00a19d" filter="url(#bbburst-blur-2)"></use><use xlink:href="#bbburst-shape-4" width="32.29753625079701" opacity="0.17153895821781184" transform="matrix(1.2266189362607087,-0.24063662482391793,0.24063662482391793,1.2266189362607087,-76.93895563786236,-180.26123072113234)" fill="#00a19d" filter="url(#bbburst-blur-3)"></use><use xlink:href="#bbburst-shape-10" width="44.0984764601309" opacity="0.17897200724357032" transform="matrix(1.237843838916466,0.17390408407092162,-0.17390408407092162,1.237843838916466,686.5085515928749,178.24491746603843)" fill="none" stroke="#ff5c58" filter="url(#bbburst-blur-3)"></use><use xlink:href="#bbburst-shape-8" width="17.306487655202126" opacity="0.8323690917582639" transform="matrix(0.9832495072503105,-0.18226466056814672,0.18226466056814672,0.9832495072503105,259.1427906486566,-38.163975846333585)" fill="none" stroke="#00a19d"></use><use xlink:href="#bbburst-shape-4" width="36.932069770245015" opacity="0.3328053826909875" transform="matrix(0.9464956375858734,0.8164839300506231,-0.8164839300506231,0.9464956375858734,890.8687171426644,-232.59654944103852)" fill="#00a19d" filter="url(#bbburst-blur-3)"></use><use xlink:href="#bbburst-shape-4" width="16.273819800805605" opacity="0.7406752112724114" transform="matrix(0.9608935986469045,0.27691784355545174,-0.27691784355545174,0.9608935986469045,605.8840035482561,68.37090168121625)" fill="#ffbd9b" filter="url(#bbburst-blur-1)"></use><use xlink:href="#bbburst-shape-6" width="21.838465606603414" opacity="0.5926256659563771" transform="matrix(0.8481756039640918,-0.5297151544369371,0.5297151544369371,0.8481756039640918,25.460626802069697,-33.86795642494275)" fill="#ffa6d5" filter="url(#bbburst-blur-1)"></use><use xlink:href="#bbburst-shape-4" width="27.657434301661198" opacity="0.6029698469173839" transform="matrix(0.8967828551225494,0.4424709151551642,-0.4424709151551642,0.8967828551225494,735.5682848157247,86.98117598342122)" fill="#ffbd9b" filter="url(#bbburst-blur-1)"></use><use xlink:href="#bbburst-shape-10" width="18.541442776941516" opacity="0.8040389452301272" transform="matrix(0.9102945357410374,0.413961179580899,-0.413961179580899,0.9102945357410374,643.7763227797494,48.513622660050146)" fill="none" stroke="#00a19d"></use><use xlink:href="#bbburst-shape-6" width="41.340915995237644" opacity="0.3455565356269952" transform="matrix(0.9965464763325667,-0.08303686235127797,0.08303686235127797,0.9965464763325667,639.0457393391976,34.1353015876233)" fill="#ffbd9b" filter="url(#bbburst-blur-2)"></use><use xlink:href="#bbburst-shape-4" width="28.866129786929925" opacity="0.1805774481922252" transform="matrix(1.1936597513136764,0.3710477032589904,-0.3710477032589904,1.1936597513136764,604.7341010507884,-444.11784492131125)" fill="#ffa6d5" filter="url(#bbburst-blur-3)"></use><use xlink:href="#bbburst-shape-1" width="38.736124906297626" opacity="0.19802337307750972" transform="matrix(1.2355219293742798,0.1896986084167649,-0.1896986084167649,1.2355219293742798,91.93648324739719,-72.5535691478803)" fill="#00a19d" filter="url(#bbburst-blur-3)"></use><use xlink:href="#bbburst-shape-8" width="24.31462695685461" opacity="0.49533642807820744" transform="matrix(0.9864311074702377,-0.16417572967719823,0.16417572967719823,0.9864311074702377,496.02690628028563,-138.8834544975213)" fill="none" stroke="#ffa6d5" filter="url(#bbburst-blur-2)"></use><use xlink:href="#bbburst-shape-6" width="31.642308449853324" opacity="0.25942119213498094" transform="matrix(1.2456872423593464,-0.10374629739497657,0.10374629739497657,1.2456872423593464,200.84980742768505,-400.0043417807731)" fill="#00a19d" filter="url(#bbburst-blur-3)"></use><use xlink:href="#bbburst-shape-1" width="14.900853650647598" opacity="0.7499196471002582" transform="matrix(0.9423386662265065,-0.3346607806935982,0.3346607806935982,0.9423386662265065,308.6793625938237,-75.46053014979219)" fill="#00a19d" filter="url(#bbburst-blur-1)"></use><use xlink:href="#bbburst-shape-10" width="27.282219605217122" opacity="0.6428185985119832" transform="matrix(0.9796167828555313,-0.2008754807032921,0.2008754807032921,0.9796167828555313,415.67221307027023,-106.87530460434539)" fill="none" stroke="#2c2891" filter="url(#bbburst-blur-1)"></use><use xlink:href="#bbburst-shape-1" width="15.613838230311151" opacity="0.9276916420415676" transform="matrix(0.9999666529991578,0.008166571475355787,-0.008166571475355787,0.9999666529991578,418.18482026615055,-23.31862005684377)" fill="#2c2891"></use><use xlink:href="#bbburst-shape-4" width="32.96544455521054" opacity="0.29218771104942753" transform="matrix(1.2414105333044678,-0.14628700489351992,0.14628700489351992,1.2414105333044678,448.38484565155295,197.82986596889543)" fill="#00a19d" filter="url(#bbburst-blur-3)"></use><use xlink:href="#bbburst-shape-8" width="36.94669147760618" opacity="0.3376756520813451" transform="matrix(0.790106346700802,-0.6129697879203445,0.6129697879203445,0.790106346700802,242.3336841333293,-184.72501495366527)" fill="none" stroke="#ffa6d5" filter="url(#bbburst-blur-2)"></use><use xlink:href="#bbburst-shape-4" width="28.70678104235202" opacity="0.44594183787688635" transform="matrix(0.9751489728037706,0.2215501767991874,-0.2215501767991874,0.9751489728037706,704.6756255004757,-89.32257457385595)" fill="#ff5c58" filter="url(#bbburst-blur-2)"></use><use xlink:href="#bbburst-shape-1" width="21.837393546918804" opacity="0.748070646565527" transform="matrix(0.7126239743574285,0.7015462003111577,-0.7015462003111577,0.7126239743574285,726.9865074078223,206.90016417178254)" fill="#ff5c58" filter="url(#bbburst-blur-1)"></use><use xlink:href="#bbburst-shape-4" width="38.34175002878003" opacity="0.1659357117077559" transform="matrix(0.9069252730963379,-0.8602247084449115,0.8602247084449115,0.9069252730963379,-227.9368863331916,318.05312923946025)" fill="#2c2891" filter="url(#bbburst-blur-3)"></use><use xlink:href="#bbburst-shape-8" width="29.33780901553378" opacity="0.5746282281944304" transform="matrix(0.8570973571276199,0.5151544626661495,-0.5151544626661495,0.8570973571276199,532.0660821308006,-131.69046153043126)" fill="none" stroke="#00a19d" filter="url(#bbburst-blur-1)"></use><use xlink:href="#bbburst-shape-4" width="37.33132393401972" opacity="0.34951760612133786" transform="matrix(0.965298124317835,0.26115039955640396,-0.26115039955640396,0.965298124317835,520.4148922865749,299.77683296783607)" fill="#ffbd9b" filter="url(#bbburst-blur-2)"></use><use xlink:href="#bbburst-shape-10" width="18.39764370197757" opacity="0.8245564544617531" transform="matrix(0.9672745724796684,0.25373194799684684,-0.25373194799684684,0.9672745724796684,452.8873800156664,78.99353931316102)" fill="none" stroke="#ffa6d5"></use><use xlink:href="#bbburst-shape-1" width="14.149449378319822" opacity="0.8995704384562688" transform="matrix(0.897566753848736,0.44087858009370634,-0.44087858009370634,0.897566753848736,593.1856777500255,76.65913369925448)" fill="#ffbd9b"></use><use xlink:href="#bbburst-shape-6" width="21.936879395897424" opacity="0.6579586081641022" transform="matrix(0.9410140476820185,0.3383674955800334,-0.3383674955800334,0.9410140476820185,399.63801591250217,109.15213449579295)" fill="#ffbd9b" filter="url(#bbburst-blur-1)"></use><use xlink:href="#bbburst-shape-8" width="42.59801941965084" opacity="0.04960854818177962" transform="matrix(1.428178661393037,1.0113385739412857,-1.0113385739412857,1.428178661393037,537.2634139896766,163.2883520118687)" fill="none" stroke="#00a19d" filter="url(#bbburst-blur-4)"></use><use xlink:href="#bbburst-shape-4" width="44.61485973111261" opacity="0.074252279354176" transform="matrix(1.6075114252326848,-0.6916697316974209,0.6916697316974209,1.6075114252326848,-266.7484517989339,-446.7175876856901)" fill="#ff5c58" filter="url(#bbburst-blur-4)"></use><use xlink:href="#bbburst-shape-6" width="38.754042401347576" opacity="0.05250462716173809" transform="matrix(1.7193401730456896,-0.32614317308693985,0.32614317308693985,1.7193401730456896,588.9251389781957,-41.83674708296917)" fill="#2c2891" filter="url(#bbburst-blur-4)"></use><use xlink:href="#bbburst-shape-8" width="24.00493273333167" opacity="0.6423603275582083" transform="matrix(0.9351541530080293,-0.3542410339187647,0.3542410339187647,0.9351541530080293,302.5395517106599,-120.88990906771471)" fill="none" stroke="#ff5c58" filter="url(#bbburst-blur-1)"></use><use xlink:href="#bbburst-shape-10" width="28.594471561433767" opacity="0.31763583114000904" transform="matrix(1.0483374800563143,0.6807999176771223,-0.6807999176771223,1.0483374800563143,653.4028262806318,-336.1073000145495)" fill="none" stroke="#ff5c58" filter="url(#bbburst-blur-3)"></use><use xlink:href="#bbburst-shape-8" width="54.44361076672109" opacity="-0.08441411552044298" transform="matrix(1.7475817865318977,0.09196683849073355,-0.09196683849073355,1.7475817865318977,40.79003671638773,40.12316676121554)" fill="none" stroke="#ff5c58" filter="url(#bbburst-blur-4)"></use><use xlink:href="#bbburst-shape-1" width="41.117503560333525" opacity="0.3926980261161972" transform="matrix(0.9983514882274418,-0.05739604475965263,0.05739604475965263,0.9983514882274418,91.04060661378531,66.74592048929884)" fill="#00a19d" filter="url(#bbburst-blur-2)"></use><use xlink:href="#bbburst-shape-8" width="28.029994172074893" opacity="0.6380375541899891" transform="matrix(0.7306191438558144,0.6827852273089956,-0.6827852273089956,0.7306191438558144,661.9983816784002,261.06385197897737)" fill="none" stroke="#00a19d" filter="url(#bbburst-blur-1)"></use><use xlink:href="#bbburst-shape-4" width="22.00256763621208" opacity="0.5406298668637913" transform="matrix(0.9709253700589848,-0.23938238401315867,0.23938238401315867,0.9709253700589848,441.9482937807985,158.21234811497465)" fill="#ffa6d5" filter="url(#bbburst-blur-2)"></use><use xlink:href="#bbburst-shape-8" width="30.75273660341655" opacity="0.18713977586628328" transform="matrix(1.1456082297305135,0.5000817772861947,-0.5000817772861947,1.1456082297305135,947.3769815363856,-90.52408554946209)" fill="none" stroke="#00a19d" filter="url(#bbburst-blur-3)"></use><use xlink:href="#bbburst-shape-10" width="20.54752505900889" opacity="0.7159443437272283" transform="matrix(0.7499225576480578,-0.6615256287783531,0.6615256287783531,0.7499225576480578,40.09112334555317,13.733210032610202)" fill="none" stroke="#ffa6d5" filter="url(#bbburst-blur-1)"></use><use xlink:href="#bbburst-shape-6" width="13.337701551228298" opacity="0.821494775046415" transform="matrix(0.9999477334412776,0.010224010252906882,-0.010224010252906882,0.9999477334412776,405.2139370554645,-79.99557570513406)" fill="#ff5c58"></use><use xlink:href="#bbburst-shape-6" width="16.65730012379195" opacity="0.7640295643073427" transform="matrix(0.951600200202582,0.3073386714593625,-0.3073386714593625,0.951600200202582,617.3913189128177,-11.371432857308719)" fill="#2c2891" filter="url(#bbburst-blur-1)"></use><use xlink:href="#bbburst-shape-1" width="21.758119531336607" opacity="0.7355602019284087" transform="matrix(0.8733822742000878,0.48703532019052015,-0.48703532019052015,0.8733822742000878,476.93299700256887,-3.793284809837303)" fill="#ffa6d5" filter="url(#bbburst-blur-1)"></use><use xlink:href="#bbburst-shape-4" width="26.641986146681436" opacity="0.6275823472337441" transform="matrix(0.991872036854954,0.1272393905408414,-0.1272393905408414,0.991872036854954,505.983938588684,154.61706702265695)" fill="#2c2891" filter="url(#bbburst-blur-1)"></use><use xlink:href="#bbburst-shape-4" width="27.514536973878574" opacity="0.5668916217727857" transform="matrix(0.8950675598381858,0.4459305588601388,-0.4459305588601388,0.8950675598381858,444.94510694891346,-116.84758364993203)" fill="#2c2891" filter="url(#bbburst-blur-1)"></use><use xlink:href="#bbburst-shape-6" width="17.703170892502055" opacity="0.6806846698664578" transform="matrix(0.8443262912682692,0.5358293701106442,-0.5358293701106442,0.8443262912682692,750.5482782048517,58.209805117924304)" fill="#ffa6d5" filter="url(#bbburst-blur-1)"></use><use xlink:href="#bbburst-shape-4" width="24.42992475135739" opacity="0.45461182704085046" transform="matrix(0.9318487464583077,0.3628469563384548,-0.3628469563384548,0.9318487464583077,652.6158051976585,237.56688538139252)" fill="#00a19d" filter="url(#bbburst-blur-2)"></use><use xlink:href="#bbburst-shape-4" width="19.78752962516051" opacity="0.7234117037250278" transform="matrix(0.9992739565070518,0.038099341815086375,-0.038099341815086375,0.9992739565070518,338.2668994547464,104.76937795638912)" fill="#ffa6d5" filter="url(#bbburst-blur-1)"></use><use xlink:href="#bbburst-shape-6" width="32.40886289483331" opacity="0.6081560923035345" transform="matrix(0.9990208931541324,0.04424087523455418,-0.04424087523455418,0.9990208931541324,230.80533466036874,43.866398541074545)" fill="#00a19d" filter="url(#bbburst-blur-1)"></use><use xlink:href="#bbburst-shape-4" width="55.09400525811844" opacity="-0.07321574408466902" transform="matrix(1.7246814591061401,0.29660388503105534,-0.29660388503105534,1.7246814591061401,130.2157101891098,-640.04511198981)" fill="#00a19d" filter="url(#bbburst-blur-4)"></use><use xlink:href="#bbburst-shape-6" width="26.224952584995673" opacity="0.6300449545869846" transform="matrix(0.9713138496630904,0.23780118892189603,-0.23780118892189603,0.9713138496630904,319.1915899455421,-24.56354119548365)" fill="#ffa6d5" filter="url(#bbburst-blur-1)"></use><use xlink:href="#bbburst-shape-4" width="17.291695196215237" opacity="0.8455282974732421" transform="matrix(0.9983456394182729,-0.057497689123301714,0.057497689123301714,0.9983456394182729,378.35434325929094,69.96605663253519)" fill="#ffa6d5"></use><use xlink:href="#bbburst-shape-1" width="15.957678825270733" opacity="0.7632264526479554" transform="matrix(0.9037031805213072,-0.42815950475923553,0.42815950475923553,0.9037031805213072,126.92824343862708,90.96531310744615)" fill="#00a19d" filter="url(#bbburst-blur-1)"></use><use xlink:href="#bbburst-shape-8" width="29.602809714210863" opacity="0.623177707192091" transform="matrix(0.7245244762784268,0.6892490720149513,-0.6892490720149513,0.7245244762784268,822.0168479105821,36.01915810737603)" fill="none" stroke="#2c2891" filter="url(#bbburst-blur-1)"></use><use xlink:href="#bbburst-shape-10" width="45.138423064277404" opacity="0.2662288745579441" transform="matrix(0.9912813673946206,-0.761486211730883,0.761486211730883,0.9912813673946206,361.198417038557,181.8902315695251)" fill="none" stroke="#ff5c58" filter="url(#bbburst-blur-3)"></use><use xlink:href="#bbburst-shape-6" width="33.20055683683794" opacity="0.38722892775214535" transform="matrix(0.8246618302438352,-0.5656260829725658,0.5656260829725658,0.8246618302438352,-24.301754093436728,284.57900656390433)" fill="#ffa6d5" filter="url(#bbburst-blur-2)"></use><use xlink:href="#bbburst-shape-1" width="18.850762402985715" opacity="0.831602366840491" transform="matrix(0.9995594926844983,0.029678621671306193,-0.029678621671306193,0.9995594926844983,457.8095919279006,51.667297437610785)" fill="#ff5c58"></use><use xlink:href="#bbburst-shape-6" width="37.51804956480653" opacity="0.4679570449782463" transform="matrix(0.8191022506462475,0.5736475424738189,-0.5736475424738189,0.8191022506462475,391.9854612407339,-27.78702708139798)" fill="#2c2891" filter="url(#bbburst-blur-2)"></use><use xlink:href="#bbburst-shape-1" width="10.830404130230704" opacity="0.953394771751258" transform="matrix(0.9943468514919812,0.10618068999579834,-0.10618068999579834,0.9943468514919812,437.81394368749176,22.65986015056194)" fill="#ffbd9b"></use><use xlink:href="#bbburst-shape-1" width="31.165192865085622" opacity="0.42594079097605864" transform="matrix(0.969727370764074,-0.24419014392680993,0.24419014392680993,0.969727370764074,169.7298748360729,-214.10785524164072)" fill="#2c2891" filter="url(#bbburst-blur-2)"></use><use xlink:href="#bbburst-shape-10" width="34.10606603883472" opacity="0.18196994108497433" transform="matrix(0.8927771072641957,0.8748994437905278,-0.8748994437905278,0.8927771072641957,386.6174383157935,147.6422943762944)" fill="none" stroke="#ff5c58" filter="url(#bbburst-blur-3)"></use><use xlink:href="#bbburst-shape-6" width="41.49803020710707" opacity="0.30688707623188793" transform="matrix(1.245169841541708,0.10978190067127372,-0.10978190067127372,1.245169841541708,154.260050252037,66.03657307794418)" fill="#ffa6d5" filter="url(#bbburst-blur-3)"></use><use xlink:href="#bbburst-shape-6" width="35.24377480685863" opacity="0.09611709566126303" transform="matrix(1.3651838311141078,1.0948849744446252,-1.0948849744446252,1.3651838311141078,1001.3722381129667,195.59869025405646)" fill="#ffbd9b" filter="url(#bbburst-blur-4)"></use><use xlink:href="#bbburst-shape-1" width="39.24628033288292" opacity="0.0716019368870704" transform="matrix(1.3060785260885037,1.1647570062852086,-1.1647570062852086,1.3060785260885037,625.6611652066862,-503.69925468062064)" fill="#00a19d" filter="url(#bbburst-blur-4)"></use><use xlink:href="#bbburst-shape-8" width="13.54858075668886" opacity="0.9066951598851198" transform="matrix(0.8238089316065632,0.5668675720177092,-0.5668675720177092,0.8238089316065632,598.9614216813436,102.2714826466173)" fill="none" stroke="#ffa6d5"></use><use xlink:href="#bbburst-shape-10" width="29.3933419586537" opacity="0.17518354043140383" transform="matrix(1.1178487686097578,0.5593872813334678,-0.5593872813334678,1.1178487686097578,540.4634008267905,-420.4559543904742)" fill="none" stroke="#2c2891" filter="url(#bbburst-blur-3)"></use><use xlink:href="#bbburst-shape-8" width="28.24040469386499" opacity="0.2725330143906265" transform="matrix(1.0578036854357293,-0.6659965188186713,0.6659965188186713,1.0578036854357293,-39.095394363043965,273.1210281068647)" fill="none" stroke="#00a19d" filter="url(#bbburst-blur-3)"></use><use xlink:href="#bbburst-shape-6" width="28.116827933141142" opacity="0.6262490097688653" transform="matrix(0.8728270754309033,-0.48802960606374723,0.48802960606374723,0.8728270754309033,190.24496093094388,-110.44222288962703)" fill="#00a19d" filter="url(#bbburst-blur-1)"></use><use xlink:href="#bbburst-shape-4" width="18.344199691702265" opacity="0.7315785893882998" transform="matrix(0.9401629092441147,-0.3407252618777224,0.3407252618777224,0.9401629092441147,134.4541780262966,33.124300720454414)" fill="#2c2891" filter="url(#bbburst-blur-1)"></use><use xlink:href="#bbburst-shape-4" width="35.93742649072945" opacity="0.3728058681900296" transform="matrix(0.9999280112521812,0.01199884633028257,-0.01199884633028257,0.9999280112521812,591.0865744432081,194.62226735088473)" fill="#00a19d" filter="url(#bbburst-blur-2)"></use><use xlink:href="#bbburst-shape-4" width="33.191965898604714" opacity="-0.0735239109686463" transform="matrix(1.729405243662599,-0.26768919139985153,0.26768919139985153,1.729405243662599,595.9700222598826,63.90369309631319)" fill="#ffbd9b" filter="url(#bbburst-blur-4)"></use><use xlink:href="#bbburst-shape-4" width="17.819537003462468" opacity="0.8551181646154169" transform="matrix(0.8046052457807861,-0.593810069350496,0.593810069350496,0.8046052457807861,96.60026444351303,111.79894314950167)" fill="#2c2891"></use><use xlink:href="#bbburst-shape-6" width="23.728614818621722" opacity="0.45389259836795004" transform="matrix(0.9418967620994837,0.33590250005992617,-0.33590250005992617,0.9418967620994837,486.38759537808824,-223.72132466702487)" fill="#ff5c58" filter="url(#bbburst-blur-2)"></use><use xlink:href="#bbburst-shape-6" width="27.780050955437495" opacity="0.561715472868207" transform="matrix(0.9981450824781485,0.06088016363882474,-0.06088016363882474,0.9981450824781485,283.14647103680727,150.50572141487595)" fill="#2c2891" filter="url(#bbburst-blur-1)"></use><use xlink:href="#bbburst-shape-4" width="32.43875333940684" opacity="0.39918950299619826" transform="matrix(0.9028563341547019,-0.4299423680875535,0.4299423680875535,0.9028563341547019,18.766838837087988,-141.80758095043385)" fill="#00a19d" filter="url(#bbburst-blur-2)"></use><use xlink:href="#bbburst-shape-6" width="39.41174125305685" opacity="0.24117725272513235" transform="matrix(1.2498812231371197,-0.01723160031041022,0.01723160031041022,1.2498812231371197,319.0992287170875,238.2688474452533)" fill="#ffa6d5" filter="url(#bbburst-blur-3)"></use><use xlink:href="#bbburst-shape-6" width="36.56042590087626" opacity="0.09793829471201076" transform="matrix(1.630039002885788,-0.6367675000116652,0.6367675000116652,1.630039002885788,312.7284297592053,-595.1656901621752)" fill="#00a19d" filter="url(#bbburst-blur-4)"></use><use xlink:href="#bbburst-shape-4" width="29.31597529031801" opacity="0.17782819261485727" transform="matrix(0.9194972646391901,0.8467731575345592,-0.8467731575345592,0.9194972646391901,777.889775958263,386.0210025318153)" fill="#2c2891" filter="url(#bbburst-blur-3)"></use><use xlink:href="#bbburst-shape-6" width="18.506925253508435" opacity="0.6550146478284569" transform="matrix(0.9535686963393567,0.30117559888154893,-0.30117559888154893,0.9535686963393567,631.2969740692691,114.70117900325334)" fill="#2c2891" filter="url(#bbburst-blur-1)"></use><use xlink:href="#bbburst-shape-10" width="32.42716391840221" opacity="0.14133632886780279" transform="matrix(1.1254835514278665,-0.5438628278024864,0.5438628278024864,1.1254835514278665,36.01622650418784,323.13945473446313)" fill="none" stroke="#2c2891" filter="url(#bbburst-blur-3)"></use><use xlink:href="#bbburst-shape-6" width="28.221525850133045" opacity="0.45208816458288714" transform="matrix(0.9990666623636317,0.043194955186838704,-0.043194955186838704,0.9990666623636317,303.0051421527895,225.05709467632067)" fill="#2c2891" filter="url(#bbburst-blur-2)"></use><use xlink:href="#bbburst-shape-1" width="28.935694763049426" opacity="0.25639946456117535" transform="matrix(1.24998013068463,-0.0070478999450455555,0.0070478999450455555,1.24998013068463,699.688572355029,-195.71567049660558)" fill="#ffbd9b" filter="url(#bbburst-blur-3)"></use><use xlink:href="#bbburst-shape-10" width="17.22007171259572" opacity="0.6945909373355219" transform="matrix(0.8977211359517996,-0.44056414069396355,0.44056414069396355,0.8977211359517996,163.16573230748114,-82.14909649601464)" fill="none" stroke="#ffa6d5" filter="url(#bbburst-blur-1)"></use><use xlink:href="#bbburst-shape-4" width="46.55413875280294" opacity="0.29146067973127565" transform="matrix(0.8949465250156634,-0.8726801919159095,0.8726801919159095,0.8949465250156634,-252.24841633601028,-85.68605213832822)" fill="#ffa6d5" filter="url(#bbburst-blur-3)"></use><use xlink:href="#bbburst-shape-6" width="20.131146691453388" opacity="0.614348470674142" transform="matrix(0.9913670709798719,-0.131115714454026,0.131115714454026,0.9913670709798719,278.9551664302696,168.11615779806806)" fill="#2c2891" filter="url(#bbburst-blur-1)"></use><use xlink:href="#bbburst-shape-8" width="11.063770424743689" opacity="0.9833833306024404" transform="matrix(0.8650672495395045,-0.5016559117304975,0.5016559117304975,0.8650672495395045,190.52208813748965,50.44968159174897)" fill="none" stroke="#2c2891"></use><use xlink:href="#bbburst-shape-4" width="11.842510798202845" opacity="0.915942287708847" transform="matrix(0.7381106465649669,-0.6746796820917661,0.6746796820917661,0.7381106465649669,88.09691854226429,105.30422015966889)" fill="#00a19d"></use><use xlink:href="#bbburst-shape-4" width="35.04728654553439" opacity="0.508831284071068" transform="matrix(0.9776600216399408,-0.21019248817926514,0.21019248817926514,0.9776600216399408,77.8053540098618,8.784803718456146)" fill="#00a19d" filter="url(#bbburst-blur-2)"></use><use xlink:href="#bbburst-shape-10" width="14.65154495839772" opacity="0.8080110031747573" transform="matrix(0.9990421858153956,0.04375741035752101,-0.04375741035752101,0.9990421858153956,375.6763394741248,-79.14165885554922)" fill="none" stroke="#ffa6d5"></use><use xlink:href="#bbburst-shape-10" width="42.873265312288304" opacity="0.1354713368746897" transform="matrix(0.9079836329854472,0.8591075149424249,-0.8591075149424249,0.9079836329854472,991.1053482368322,-264.63059258214474)" fill="none" stroke="#ffa6d5" filter="url(#bbburst-blur-3)"></use><use xlink:href="#bbburst-shape-10" width="10.808287419877816" opacity="0.8702170987552283" transform="matrix(0.9984782627745715,-0.05514670222845277,0.05514670222845277,0.9984782627745715,430.65553621400124,-4.927705877319056)" fill="none" stroke="#00a19d"></use><use xlink:href="#bbburst-shape-4" width="13.33512984505477" opacity="0.8438359204862015" transform="matrix(0.9999958704546342,0.002873860413866677,-0.002873860413866677,0.9999958704546342,453.76098088510753,-37.74677241337457)" fill="#2c2891"></use><use xlink:href="#bbburst-shape-8" width="32.35738191935582" opacity="0.5102080163826421" transform="matrix(0.9372882811835813,-0.348555129005338,0.348555129005338,0.9372882811835813,284.44726353428103,247.64635395740146)" fill="none" stroke="#00a19d" filter="url(#bbburst-blur-2)"></use><use xlink:href="#bbburst-shape-8" width="12.309530391539766" opacity="0.9203447909893512" transform="matrix(0.9897490661218034,-0.1428173172658632,0.1428173172658632,0.9897490661218034,370.8106013881908,16.24291724007594)" fill="none" stroke="#ffa6d5"></use><use xlink:href="#bbburst-shape-4" width="17.21495277042656" opacity="0.8282240304738986" transform="matrix(0.7588959414119981,0.6512119087581224,-0.6512119087581224,0.7588959414119981,577.1104822762771,82.3614127054962)" fill="#00a19d"></use><use xlink:href="#bbburst-shape-8" width="30.748737890200623" opacity="0.44682213266943493" transform="matrix(0.7471636602367691,0.664640101725433,-0.664640101725433,0.7471636602367691,619.5446559714062,337.39825149269194)" fill="none" stroke="#00a19d" filter="url(#bbburst-blur-2)"></use><use xlink:href="#bbburst-shape-6" width="30.691642632419164" opacity="0.4569662979921172" transform="matrix(0.9588226782548086,0.2840054078081539,-0.2840054078081539,0.9588226782548086,724.2801979355376,106.52041134862253)" fill="#ff5c58" filter="url(#bbburst-blur-2)"></use><use xlink:href="#bbburst-shape-4" width="10.724959331035246" opacity="0.8916116219047946" transform="matrix(0.9998458963544754,0.017555157165793485,-0.017555157165793485,0.9998458963544754,403.44082231262104,-48.765021505861625)" fill="#ff5c58"></use></svg>
