<svg xmlns="http://www.w3.org/2000/svg" version="1.1" xmlns:xlink="http://www.w3.org/1999/xlink" xmlns:svgjs="http://svgjs.dev/svgjs" viewBox="0 0 1422 800"><defs><filter id="llleaves-blur-2" x="-100%" y="-100%" width="400%" height="400%"><feGaussianBlur in="SourceGraphic" stdDeviation="2"></feGaussianBlur></filter><filter id="llleaves-blur-3" x="-100%" y="-100%" width="400%" height="400%"><feGaussianBlur in="SourceGraphic" stdDeviation="4"></feGaussianBlur></filter><filter id="llleaves-blur-4" x="-100%" y="-100%" width="400%" height="400%"><feGaussianBlur in="SourceGraphic" stdDeviation="12"></feGaussianBlur></filter></defs><g fill="hsl(170, 43%, 58%)"><path d="M1306 322H1356C1384 322 1406 344 1406 372H1356C1328 372 1306 350 1306 322Z " transform="matrix(0.008165898919198566,0.23384074973285618,-0.23384074973285618,0.008165898919198566,1426.0697812228677,27.0783764372851)" filter="url(#llleaves-blur-3)" opacity="0.36"></path><path d="M797 506H847C875 506 897 528 897 556H847C819 556 797 534 797 506Z " transform="matrix(-0.37980187746077193,-0.026558334460991404,0.026558334460991404,-0.37980187746077193,1154.5897146104874,755.1697062201296)" filter="url(#llleaves-blur-2)" opacity="0.58"></path><path d="M721 276H771C799 276 821 298 821 326H771C743 326 721 304 721 276Z " transform="matrix(-0.3844093105813112,-0.08874788218573211,0.08874788218573211,-0.3844093105813112,1040.6664659202856,485.1318196501741)" filter="url(#llleaves-blur-2)" opacity="0.61"></path><path d="M954 717H1004C1032 717 1054 739 1054 767H1004C976 767 954 745 954 717Z " transform="matrix(-0.3122788217435093,0.13255449546572817,-0.13255449546572817,-0.3122788217435093,1415.8833726660537,840.6261722860928)" filter="url(#llleaves-blur-2)" opacity="0.52"></path><path d="M23 309H73C101 309 123 331 123 359H73C45 359 23 337 23 309Z " transform="matrix(-0.25767975163942936,-0.38202594215667435,0.38202594215667435,-0.25767975163942936,-35.78604281065091,447.95293082500666)" opacity="0.71"></path><path d="M1319 713H1369C1397 713 1419 735 1419 763H1369C1341 763 1319 741 1319 713Z " transform="matrix(0.027709288374120344,0.22567404379148492,-0.22567404379148492,0.027709288374120344,1497.6134285339451,408.60277922935626)" filter="url(#llleaves-blur-3)" opacity="0.35"></path><path d="M1009 260H1059C1087 260 1109 282 1109 310H1059C1031 310 1009 288 1009 260Z " transform="matrix(-0.2627689260771958,0.18399278284652262,-0.18399278284652262,-0.2627689260771958,1389.7102358270092,165.04078689753334)" filter="url(#llleaves-blur-2)" opacity="0.49"></path><path d="M588 37H638C666 37 688 59 688 87H638C610 87 588 65 588 37Z " transform="matrix(-0.37999553359514027,-0.026571876217081087,0.026571876217081087,-0.37999553359514027,878.7896941082404,102.51258010939642)" filter="url(#llleaves-blur-2)" opacity="0.58"></path><path d="M663 712H713C741 712 763 734 763 762H713C685 762 663 740 663 712Z " transform="matrix(-0.3794339019781374,-0.14565102864256033,0.14565102864256033,-0.3794339019781374,876.191564000845,1120.4919691800326)" opacity="0.62"></path><path d="M1314 194H1364C1392 194 1414 216 1414 244H1364C1336 244 1314 222 1314 194Z " transform="matrix(0.027709288374120344,0.22567404379148492,-0.22567404379148492,0.027709288374120344,1375.6271462480352,-94.88772988551784)" filter="url(#llleaves-blur-3)" opacity="0.35"></path><path d="M180 296H230C258 296 280 318 280 346H230C202 346 180 324 180 296Z " transform="matrix(-0.27444106195938506,-0.36419559011320807,0.36419559011320807,-0.27444106195938506,176.21465982431877,492.8605666150005)" opacity="0.70"></path><path d="M10 708H60C88 708 110 730 110 758H60C32 758 10 736 10 708Z " transform="matrix(-0.25767975163942936,-0.38202594215667435,0.38202594215667435,-0.25767975163942936,-204.56423050247656,944.8008144811022)" opacity="0.71"></path><path d="M1165 264H1215C1243 264 1265 286 1265 314H1215C1187 314 1165 292 1165 264Z " transform="matrix(-0.08202243782574324,0.25243910657527086,-0.25243910657527086,-0.08202243782574324,1387.6121637585313,5.990970042685774)" filter="url(#llleaves-blur-3)" opacity="0.41"></path><path d="M932 149H982C1010 149 1032 171 1032 199H982C954 199 932 177 932 149Z " transform="matrix(-0.2766338226572024,0.17285999748000588,-0.17285999748000588,-0.2766338226572024,1283.7320534108937,52.38576761698742)" filter="url(#llleaves-blur-2)" opacity="0.50"></path><path d="M723 39H773C801 39 823 61 823 89H773C745 89 723 67 723 39Z " transform="matrix(-0.3405497436583848,0.09125002879589016,-0.09125002879589016,-0.3405497436583848,1042.0849536908686,15.258911334913535)" filter="url(#llleaves-blur-2)" opacity="0.54"></path><path d="M223 174H273C301 174 323 196 323 224H273C245 224 223 202 223 174Z " transform="matrix(-0.28492699065122196,-0.3518555305752834,0.3518555305752834,-0.28492699065122196,280.7658178633022,351.75703098664553)" opacity="0.70"></path><path d="M617 557H667C695 557 717 579 717 607H667C639 607 617 585 617 557Z " transform="matrix(-0.37106552377139007,-0.18906732779150293,0.18906732779150293,-0.37106552377139007,804.4635195808625,924.0680424718815)" opacity="0.64"></path><path d="M1085 717H1135C1163 717 1185 739 1185 767H1135C1107 767 1085 745 1085 717Z " transform="matrix(-0.17197561740812797,0.23670413056241502,-0.23670413056241502,-0.17197561740812797,1505.8267906355372,600.94671992849)" filter="url(#llleaves-blur-3)" opacity="0.45"></path><path d="M1193 387H1243C1271 387 1293 409 1293 437H1243C1215 437 1193 415 1193 387Z " transform="matrix(-0.08202243782574324,0.25243910657527086,-0.25243910657527086,-0.08202243782574324,1448.9588021264103,132.0114349111446)" filter="url(#llleaves-blur-3)" opacity="0.41"></path><path d="M16 44H66C94 44 116 66 116 94H66C38 94 16 72 16 44Z " transform="matrix(-0.38272556219949333,-0.1317829793770969,0.1317829793770969,-0.38272556219949333,82.16686152814688,104.10574043065344)" opacity="0.62"></path><path d="M1027 603H1077C1105 603 1127 625 1127 653H1077C1049 653 1027 631 1027 603Z " transform="matrix(-0.23140141084825555,0.20835476618399545,-0.20835476618399545,-0.23140141084825555,1457.0661126471205,548.9220028325414)" filter="url(#llleaves-blur-2)" opacity="0.48"></path><path d="M136 703H186C214 703 236 725 236 753H186C158 753 136 731 136 703Z " transform="matrix(-0.2688431466211856,-0.3700308464519806,0.3700308464519806,-0.2688431466211856,-33.37763094550138,992.5435481802915)" opacity="0.70"></path><path d="M1307 44H1357C1385 44 1407 66 1407 94H1357C1329 94 1307 72 1307 44Z " transform="matrix(0.11229956377006793,0.13867841197978353,-0.13867841197978353,0.11229956377006793,1214.1783023906228,-126.93527495670097)" filter="url(#llleaves-blur-4)" opacity="0.27"></path><path d="M190 566H240C268 566 290 588 290 616H240C212 616 190 594 190 566Z " transform="matrix(-0.2798023468700688,-0.35813067254433,0.35813067254433,-0.2798023468700688,95.49733577511748,842.31454841085)" opacity="0.70"></path><path d="M350 308H400C428 308 450 330 450 358H400C372 358 350 336 350 308Z " transform="matrix(-0.30880855875974716,-0.3197806237536942,0.3197806237536942,-0.30880855875974716,417.0364757939187,563.7454995684735)" opacity="0.68"></path><path d="M335 574H385C413 574 435 596 435 624H385C357 624 335 602 335 574Z " transform="matrix(-0.30880855875974716,-0.3197806237536942,0.3197806237536942,-0.30880855875974716,312.34270149403983,907.0918668422607)" opacity="0.68"></path><path d="M1210 716H1260C1288 716 1310 738 1310 766H1260C1232 766 1210 744 1210 716Z " transform="matrix(-0.05779715577312548,0.25034698583353643,-0.25034698583353643,-0.05779715577312548,1518.331532776789,468.39049027763)" filter="url(#llleaves-blur-3)" opacity="0.39"></path><path d="M946 492H996C1024 492 1046 514 1046 542H996C968 542 946 520 946 492Z " transform="matrix(-0.3122788217435093,0.13255449546572817,-0.13255449546572817,-0.3122788217435093,1375.5603806123167,546.423873357529)" filter="url(#llleaves-blur-2)" opacity="0.52"></path><path d="M309 39H359C387 39 409 61 409 89H359C331 89 309 67 309 39Z " transform="matrix(-0.38436925073015005,-0.11021610907444077,0.11021610907444077,-0.38436925073015005,489.93473003135966,128.16721520445384)" filter="url(#llleaves-blur-2)" opacity="0.61"></path><path d="M1308 591H1358C1386 591 1408 613 1408 641H1358C1330 641 1308 619 1308 591Z " transform="matrix(0.008165898919198566,0.23384074973285618,-0.23384074973285618,0.008165898919198566,1490.9566111031677,293.414068128555)" filter="url(#llleaves-blur-3)" opacity="0.36"></path><path d="M7 447H57C85 447 107 469 107 497H57C29 497 7 475 7 447Z " transform="matrix(-0.2578622229766951,-0.38229646703917686,0.38229646703917686,-0.2578622229766951,-108.74578573281985,615.5018678662332)" opacity="0.71"></path><path d="M1087 491H1137C1165 491 1187 513 1187 541H1137C1109 541 1087 519 1087 491Z " transform="matrix(-0.17197561740812797,0.23670413056241502,-0.23670413056241502,-0.17197561740812797,1454.6756083632479,335.60682213312816)" filter="url(#llleaves-blur-3)" opacity="0.45"></path><path d="M802 386H852C880 386 902 408 902 436H852C824 436 802 414 802 386Z " transform="matrix(-0.37980187746077193,-0.026558334460991404,0.026558334460991404,-0.37980187746077193,1164.6757241331102,589.7262725971419)" filter="url(#llleaves-blur-2)" opacity="0.58"></path><path d="M615 164H665C693 164 715 186 715 214H665C637 214 615 192 615 164Z " transform="matrix(-0.37106552377139007,-0.18906732779150293,0.18906732779150293,-0.37106552377139007,876.0248483553805,384.8611569741421)" opacity="0.64"></path><path d="M1062 372H1112C1140 372 1162 394 1162 422H1112C1084 422 1062 400 1062 372Z " transform="matrix(-0.20204968658419256,0.22439891053772035,-0.22439891053772035,-0.20204968658419256,1425.765618965097,227.6821370559794)" filter="url(#llleaves-blur-2)" opacity="0.46"></path></g><g fill="none" stroke-width="3" stroke="hsl(170, 43%, 58%)"><path d="M1213 505H1263C1291 505 1313 527 1313 555H1263C1235 555 1213 533 1213 505Z " transform="matrix(-0.05779715577312548,0.25034698583353643,-0.25034698583353643,-0.05779715577312548,1468.681710233232,244.44424945199995)" filter="url(#llleaves-blur-3)" opacity="0.39"></path><path d="M1079 151H1129C1157 151 1179 173 1179 201H1129C1101 201 1079 179 1079 151Z " transform="matrix(-0.12181082544249729,0.2497492033506972,-0.2497492033506972,-0.12181082544249729,1310.4802817143022,-84.52814530505765)" filter="url(#llleaves-blur-3)" opacity="0.42"></path><path d="M402 706H452C480 706 502 728 502 756H452C424 756 402 734 402 706Z " transform="matrix(-0.3268645370746567,-0.29431015111956216,0.29431015111956216,-0.3268645370746567,384.6020502893449,1102.966164907616)" opacity="0.68"></path><path d="M400 447H450C478 447 500 469 500 497H450C422 497 400 475 400 447Z " transform="matrix(-0.3268645370746567,-0.29431015111956216,0.29431015111956216,-0.3268645370746567,458.1746503551622,758.719629503041)" opacity="0.68"></path><path d="M740 612H790C818 612 840 634 840 662H790C762 662 740 640 740 612Z " transform="matrix(-0.3844093105813112,-0.08874788218573211,0.08874788218573211,-0.3844093105813112,1037.1509544069245,951.9795577670236)" filter="url(#llleaves-blur-2)" opacity="0.61"></path><path d="M1159 31H1209C1237 31 1259 53 1259 81H1209C1181 81 1159 59 1159 31Z " transform="matrix(0.06771559681080347,0.19666037284624563,-0.19666037284624563,0.06771559681080347,1138.1448243351283,-185.55446419251598)" filter="url(#llleaves-blur-3)" opacity="0.32"></path><path d="M1163 608H1213C1241 608 1263 630 1263 658H1213C1185 658 1163 636 1163 608Z " transform="matrix(-0.11154720658113133,0.2505391280075115,-0.2505391280075115,-0.11154720658113133,1506.8980296116672,399.7054194927447)" filter="url(#llleaves-blur-3)" opacity="0.42"></path><path d="M158 47H208C236 47 258 69 258 97H208C180 97 158 75 158 47Z " transform="matrix(-0.38340360795124717,-0.12457538383011967,0.12457538383011967,-0.38340360795124717,278.77852281809083,125.51673960915468)" opacity="0.62"></path><path d="M460 56H510C538 56 560 78 560 106H510C482 106 460 84 460 56Z " transform="matrix(-0.3845719249564247,-0.08174328608355931,0.08174328608355931,-0.3845719249564247,699.5104755550083,153.83940182408566)" filter="url(#llleaves-blur-2)" opacity="0.60"></path><path d="M1318 455H1368C1396 455 1418 477 1418 505H1368C1340 505 1318 483 1318 455Z " transform="matrix(0.027709288374120344,0.22567404379148492,-0.22567404379148492,0.027709288374120344,1438.417234524116,157.97744967367083)" filter="url(#llleaves-blur-3)" opacity="0.35"></path><path d="M812 720H862C890 720 912 742 912 770H862C834 770 812 748 812 720Z " transform="matrix(-0.37310861080096613,0.0065126350268079015,-0.0065126350268079015,-0.37310861080096613,1188.4715356054048,1017.3520236536112)" filter="url(#llleaves-blur-2)" opacity="0.57"></path><path d="M863 262H913C941 262 963 284 963 312H913C885 312 863 290 863 262Z " transform="matrix(-0.36319321599497106,0.038173145220833184,-0.038173145220833184,-0.36319321599497106,1255.5510988817878,356.384371403936)" filter="url(#llleaves-blur-2)" opacity="0.56"></path><path d="M519 410H569C597 410 619 432 619 460H569C541 460 519 438 519 410Z " transform="matrix(-0.3508635062210182,-0.24567727193864616,0.24567727193864616,-0.3508635062210182,661.7717217464483,727.4159929392326)" opacity="0.66"></path><path d="M369 167H419C447 167 469 189 469 217H419C391 217 369 195 369 167Z " transform="matrix(-0.31812743350148714,-0.3072120914905701,0.3072120914905701,-0.31812743350148714,493.3106730709336,381.8023335668345)" opacity="0.68"></path><path d="M867 36H917C945 36 967 58 967 86H917C889 86 867 64 867 36Z " transform="matrix(-0.2584167964639222,0.18775079258194488,-0.18775079258194488,-0.2584167964639222,1165.421000704915,-95.40405221334422)" filter="url(#llleaves-blur-2)" opacity="0.49"></path><path d="M931 375H981C1009 375 1031 397 1031 425H981C953 425 931 403 931 375Z " transform="matrix(-0.3122788217435093,0.13255449546572817,-0.13255449546572817,-0.3122788217435093,1340.3673223166738,394.87556864552437)" filter="url(#llleaves-blur-2)" opacity="0.52"></path><path d="M777 154H827C855 154 877 176 877 204H827C799 204 777 182 777 154Z " transform="matrix(-0.3840805195488182,-0.05397899681031912,0.05397899681031912,-0.3840805195488182,1134.9723492378255,292.39104336137234)" filter="url(#llleaves-blur-2)" opacity="0.59"></path><path d="M483 567H533C561 567 583 589 583 617H533C505 617 483 595 483 567Z " transform="matrix(-0.33770611048688237,-0.2734690161846664,0.2734690161846664,-0.33770611048688237,551.1036993081858,937.6810030346616)" opacity="0.67"></path><path d="M535 703H585C613 703 635 725 635 753H585C557 753 535 731 535 703Z " transform="matrix(-0.3508635062210182,-0.24567727193864616,0.24567727193864616,-0.3508635062210182,611.4020971679613,1127.1498366130093)" opacity="0.66"></path><path d="M267 705H317C345 705 367 727 367 755H317C289 755 267 733 267 705Z " transform="matrix(-0.28981889850228865,-0.34539271349179906,0.34539271349179906,-0.28981889850228865,156.73590997621218,1051.057286083571)" opacity="0.69"></path><path d="M43 178H93C121 178 143 200 143 228H93C65 228 43 206 43 178Z " transform="matrix(-0.25737678549632526,-0.38157677637812737,0.38157677637812737,-0.25737678549632526,39.475955446398395,290.7341276589199)" opacity="0.71"></path><path d="M1014 35H1064C1092 35 1114 57 1114 85H1064C1036 85 1014 63 1014 35Z " transform="matrix(-0.09660320085853978,0.25165994217100085,-0.25165994217100085,-0.09660320085853978,1181.8854022437463,-201.96998641843248)" filter="url(#llleaves-blur-3)" opacity="0.41"></path><path d="M131 433H181C209 433 231 455 231 483H181C153 483 131 461 131 433Z " transform="matrix(-0.2688431466211856,-0.3700308464519806,0.3700308464519806,-0.2688431466211856,60.1864818634275,648.1057443603115)" opacity="0.70"></path><path d="M485 237H535C563 237 585 259 585 287H535C507 287 485 265 485 237Z " transform="matrix(-0.3446715490848137,-0.2597286417680652,0.2597286417680652,-0.3446715490848137,651.3503746171423,491.25876920613604)" opacity="0.66"></path><path d="M33 576H83C111 576 133 598 133 626H83C55 626 33 604 33 576Z " transform="matrix(-0.25767975163942936,-0.38202594215667435,0.38202594215667435,-0.25767975163942936,-125.21017185008864,787.573683934301)" opacity="0.71"></path><path d="M599 308H649C677 308 699 330 699 358H649C621 358 599 336 599 308Z " transform="matrix(-0.3644284122090036,-0.2104028418892162,0.2104028418892162,-0.3644284122090036,815.4498931745345,590.9061056516996)" opacity="0.65"></path><path d="M670 431H720C748 431 770 453 770 481H720C692 481 670 459 670 431Z " transform="matrix(-0.3794339019781374,-0.14565102864256033,0.14565102864256033,-0.3794339019781374,926.7755403632516,733.890599924674)" opacity="0.62"></path><path d="M266 430H316C344 430 366 452 366 480H316C288 480 266 458 266 430Z " transform="matrix(-0.28981889850228865,-0.34539271349179906,0.34539271349179906,-0.28981889850228865,250.42908728795464,696.0116962819499)" opacity="0.69"></path><path d="M886 608H936C964 608 986 630 986 658H936C908 658 886 636 886 608Z " transform="matrix(-0.34905432205751086,0.07419378653260505,-0.07419378653260505,-0.34905432205751086,1309.679512320969,784.5060016678862)" filter="url(#llleaves-blur-2)" opacity="0.55"></path><path d="M1210 143H1260C1288 143 1310 165 1310 193H1260C1232 193 1210 171 1210 143Z " transform="matrix(-0.0126337253893578,0.24106584102955944,-0.24106584102955944,-0.0126337253893578,1316.4175552835568,-133.6204938318328)" filter="url(#llleaves-blur-3)" opacity="0.37"></path></g></svg>
