<svg xmlns="http://www.w3.org/2000/svg" version="1.1" xmlns:xlink="http://www.w3.org/1999/xlink" xmlns:svgjs="http://svgjs.dev/svgjs" viewBox="0 0 800 400"><path d="M39.01345443725586,347.085205078125C53.66218376159668,307.92227427164715,86.54708544413248,115.54558817545573,126.90583038330078,112.10762023925781C167.26457532246908,108.66965230305989,244.2451489766439,304.9327341715495,281.1659240722656,326.4573974609375C318.0866991678874,347.9820607503255,333.03436787923175,263.37817128499347,348.43048095703125,241.25559997558594C363.82659403483075,219.13302866617838,363.6771291097005,194.76830546061197,373.5426025390625,193.7219696044922C383.4080759684245,192.6756337483724,397.4588979085286,233.33333841959634,407.6233215332031,234.9775848388672C417.7877451578776,236.62183125813803,424.66367594401044,202.69058736165366,434.5291442871094,203.5874481201172C444.3946126302083,204.48430887858072,446.6367543538411,250.6726506551107,466.8161315917969,240.35874938964844C486.9955088297526,230.0448481241862,531.5396372477213,136.17339833577475,555.6054077148438,141.70404052734375C579.6711781819662,147.23468271891275,590.2840067545573,277.2795244852702,611.2107543945312,273.5426025390625C632.1375020345052,269.8056805928548,659.4917500813802,123.61733754475911,681.1658935546875,119.28250885009766C702.8400370279948,114.9476801554362,727.8026936848959,235.27652867635092,741.255615234375,247.53363037109375C754.7085367838541,259.7907320658366,758.4454549153646,201.94320424397787,761.8834228515625,192.8251190185547" fill="none" stroke-width="25" stroke="url(&quot;#SvgjsLinearGradient1003&quot;)" stroke-linecap="round"></path><defs><linearGradient id="SvgjsLinearGradient1003"><stop stop-color="hsl(37, 99%, 67%)" offset="0"></stop><stop stop-color="hsl(316, 73%, 52%)" offset="1"></stop></linearGradient></defs></svg>
