<svg xmlns="http://www.w3.org/2000/svg" version="1.1" xmlns:xlink="http://www.w3.org/1999/xlink" xmlns:svgjs="http://svgjs.dev/svgjs" viewBox="0 0 1422 800"><defs><linearGradient x1="50%" y1="0%" x2="50%" y2="100%" id="ssscribble-grad"><stop stop-color="hsl(180, 69%, 40%)" stop-opacity="1" offset="0%"></stop><stop stop-color="hsl(180, 69%, 60%)" stop-opacity="1" offset="100%"></stop></linearGradient></defs><g fill="none" stroke-width="3.25" stroke="url(#ssscribble-grad)" stroke-linecap="round"><path d="M1515.11 420.35C1262.44 448.8 1189.77 474 1433.41 471.57 1539.97 468.52 1525.45 460.66 1400.74 449.34 1153.53 436.03 1152.84 427.54 1361.88 447.81 1460.29 476.91 1470.8 519.66 1393.28 577.29 1254.12 646.14 1102.4 726.44 983.89 813.96 926.22 899.31 939.89 978.87 1009.17 1044.1 1113.07 1086.54 1215.19 1101.93 1289.34 1086.29 1323.86 1043.21 1309.16 975.73 1253.2 893.24 1164.52 812.83 1061.22 745.12 958.82 704.75 861.71 703.57 783.8 744.03 727.15 823.49 688.64 929.16 668.5 1044.42 660.88 1147.56 664.53 1217.29 672.26 1239.46 679.08 1207.54 689.44 1129.66 694.2 1020.89 691.22 906.22 688.73 815.63 677.27 769.63 656.15 781.64 635.02 850.66 604.73 957.09 566.07 1073.79 527.9 1175.15 482.6 1235.28 432.41 1241.76 385.75 1194.73 338.88 1104.52 296.91 991.39 266.2 876.79 248.81 783.56 250.72 726.99 270.76 714.67 312.97 745.08 375.4 808.15 443.11 893.03 512.73 980.21 568.86 1054.21 592.25 1106.4 575.51 1126.14 510.76 1112.42 406.39 1067.9 275.26 998.78 143.68 914.65 46.7 821.67 6.67 731.38 39.39 651 132.96 582.71 261.16 532.11 378.32 499.12 433.84 482.69 402.87 480.61 285.61 488.81 123.41 507.16 -25.16 529.29 -97.34 551.54 -61.41 576.72 68.14 597.85 231.77 613.37 344.56 628.25 348.99 636.49 234.28 638.07 -20.62 635.81 39.51 602.18 291.11 572.85 342.44 551.73 255.03 526.38 83.26 496.76 -78.05 466.75 -137.6 431.75 -66.67 391.41 96.87 349.99 268.54 302.62 366 249.41 347.79 195.57 229.93 136.92 74.86 75.13 -48.25 16.27 -81 -41.55 -12.97 -94.59 129.12 -137.48 289.02 -169.08 410.7 -185.21 459.31 -184.79 425.35 -165.65 331.62 -127.58 209.55 -77.44 105.06 -16.15 48.09 49.13 50.32 105.58 111.69 148.34 213.4 167.92 337.81 156.71 456.81 113.46 552.39 39.28 617.92 -56.7 646.45 -164.35 643.82 -268.07 614.12 -349.99 570.1 -397.63 522.6 -400.81 471.02 -359.74 428.91 -280.27 399.4 -177.6 371.25 -36.32 380.49 -5.14 404.93 -143.83 424.13 -264.7 444.86 -373.28 465.99 -442.32 487.11 -454.36 508.13 -406.24 530.08 -311.48 553.48 -192.64 580.63 -77.64 614.24 8.4 652.85 48.49 701.83 36.42 763.38 -21.37 831.21 -112.58 910.85 -214.09 999.03 -304.28 1083.15 -368.27 1162.87 -391.52 1227.25 -371.51 1264.57 -312.3 1269.72 -224.12 1236.74 -121.71 1173.72 -17.22 1086.16 73.77 991.98 141.8 920.5 182.38 888.13 193.36 913.59 178.61 998.25 141.08 1129.1 90.51 1276.12 35.4 1394.8 -21.89 1452.28 -70.75 1425.66 -107.05 1325.98 -132.12 1186.55 -141.19 1063.29 -135.6 1014.11 -117.81 1064.07 -88.88 1202.68 -52.28 1373.23 -8.44 1504.84 38.38 1534.97 85.36 1449.44 135.01 1287.86 182.01 1132.46 224.89 1069.68 268.26 1135.45 306.61 1300.94 339.37 1476.89 372.12 1566.44 399.22 1515.11 420.35Q1515.11 420.35 1515.11 420.35" opacity="0.88"></path><path d="M1479.92 237.43C1326.71 257.39 1154.61 272.74 1050.25 283.93 1062.81 295.51 1181.77 303.73 1344.8 309.65 1476.34 317.31 1512.65 324.53 1440.57 333.13 1291.65 346.02 1130.03 363.16 1019.33 386.77 997.47 417.59 1066.44 457.44 1191.34 507.58 1326.19 565.22 1416.92 632.31 1434.5 707.04 1375 782.75 1257.67 859.05 1118.61 930.38 947.53 1010.45 937.33 1038.01 1058.5 973.99 1149.29 908.81 1219.25 833.8 1257.78 759.72 1263.63 701.48 1235.3 666.49 1181.33 663.89 1106.39 697.99 1023.03 766.34 940.37 861.53 857.39 968.58 784.93 1072.18 724.68 1154.13 671.28 1199.11 629.43 1198.49 596.62 1150.71 568.49 1066.53 545.52 960.47 525.13 854.56 506.05 773.97 487.02 734.89 467.07 747.85 447.11 811.78 426.71 910.18 406.93 1020.43 380.8 1155.06 361.27 1150.33 380.92 1017.29 404.97 907.05 441.99 804.99 490.4 727.12 538.48 683.56 588.13 678.96 630.31 709.8 651.52 770.44 648.04 846.92 611.45 925.72 542.17 998.36 442.51 1051.26 323.17 1078.51 207.61 1079.18 111.92 1052.31 58.68 1002.75 61.46 934.54 121.57 855.83 226.59 774.01 342.09 691.7 437.19 617.02 475.92 553.26 437.57 499.84 327.51 459.87 174.86 432.12 32.17 415.26 -53.05 407.5 -45.81 405.91 50.24 410.93 198.88 418.05 336.54 424.82 397.36 434.22 351.53 440.71 212.29 442.98 41.55 445.87 -83.26 443.57 -99.77 435.57 0.63 427.62 170.71 413.79 323.92 393.84 377.53 373.89 306.12 348.29 150.5 317.38 -12.32 286.53 -99.16 250.53 -70.8 210.02 58.03 170.13 227.12 126.68 361.93 81.07 408.9 38.11 353.35 -4.44 226.75 -44.04 30.2 -90.01 90.4 -119.83 303.19 -93.08 428.64 -60.08 495.25 -15.1 493.1 38.66 428.68 91.93 328.61 143.25 224.59 185.32 138.42 208.73 95.19 210.71 100.51 186.5 151.3 135.69 236.21 60.59 337.96 -32.81 447 -132.38 544.59 -228.2 622.31 -306.64 679.93 -355.29 713.06 -366.96 726.22 -338.04 721.86 -274.8 706.92 -185.73 687.96 -86.76 651.57 30.27 605.42 11.95 603.48 -129.53 605.5 -243.73 616.43 -344.16 636.38 -408.11 656.34 -421.1 684.84 -380.01 721.68 -295.49 758.77 -185.64 804.48 -73.7 858.14 18.18 911.18 73.68 970.12 83.84 1031.72 50.12 1086.88 -20.54 1137.26 -111.15 1176.19 -203.59 1197.61 -284.16 1198.19 -336.26 1173.34 -352.57 1128.38 -332.19 1062.59 -277.86 984.3 -198.85 913.3 -103.99 858.09 -6.77 835.84 81.96 859.07 156.06 929.7 207.92 1042.01 236.05 1172.18 240.65 1297.15 225.12 1385.13 195.06 1410.84 152.28 1366.45 105.67 1261.77 60.71 1134.53 16.73 1024.3 -18.54 975.5 -43.43 1013.68 -60.81 1131.53 -66.95 1291.91 -63.19 1433.14 -52.23 1501.68 -33.93 1465.96 -10.62 1342.42 16.97 1182.85 46.71 1061.71 76.67 1041.05 108.38 1133.76 138.45 1300.53 165.73 1460.1 193.4 1533.53 217.48 1479.92 237.43Q1479.92 237.43 1479.92 237.43" opacity="0.40"></path><path d="M1445.86 155.15C1303.11 173.93 1138.84 192.35 1026.9 210.73 1014.43 229.6 1103.22 249.36 1250.26 270.93 1394.67 294.28 1473.52 321.06 1457.52 352.45 1354.14 387.16 1203.56 428 1060.84 475.69 971.45 527.02 962.64 585 1028.86 648.69 1146 712.8 1269.77 778.89 1360.95 843.59 1396.37 900.77 1364.58 949.49 1277.76 985.14 1155.31 1004.22 1028.21 1004.66 922.08 984.59 851.39 947.48 826.85 893.74 844.04 828.28 896.64 761.94 967.57 699.38 1041.08 650.05 1111.22 624.34 1162.33 626.01 1190.31 658.75 1197.3 720.75 1181.68 806.58 1149.08 906.38 1101.84 1005.42 1047 1090.91 990.31 1148.85 929.1 1169.58 872.06 1148.87 821.58 1088.77 771.09 1001.39 728.42 899.99 693.88 803.52 659.68 732.74 633.14 700.14 614.36 713.86 595.58 772.83 585.02 863.26 582.64 966.55 580.6 1065.11 587.23 1138.41 602.31 1173.94 617.38 1167.26 639.63 1119.17 666.77 1039.25 689.39 939.9 710.88 837.57 725.58 747.28 725.64 679.81 709.52 643.66 671.7 640.41 612.89 668.87 531.85 721.22 432.76 787.65 330.31 861.53 231.44 929.72 151.97 984.1 107.91 1021.81 106.67 1036.64 152.75 1028.79 234.27 1000.13 337.93 953.58 438.21 894.42 502.85 824.99 513.73 752.27 458.76 680.92 348.03 610.81 206.06 547.84 72.18 493.42 -10.78 445.58 -17.28 406.93 58.34 376.4 187.3 352.17 325.65 333.89 418.44 319.66 423.84 309.27 336.02 300.44 184.36 291.54 30.08 284.26 -64.23 275.23 -55.47 263.48 52.74 252.1 215.11 237.22 357.86 218.44 411.96 199.67 354.53 177.43 215.68 152.24 56.58 127.42 -49.83 100.41 -59.84 72.27 28.83 45.76 178.94 19.81 330.08 -3.87 427.85 -23.7 438.37 -38.78 365.5 -47.1 237.76 -49.12 106.54 -42.2 17.47 -25.2 -3.33 -1.62 51.67 31.42 162.64 72.58 300.88 114.99 427.48 159.76 514.12 202.33 546.7 234.63 523.26 255.4 458.11 259.46 366.06 242.71 274.03 204.45 201.13 144.57 155.46 68.02 147.56 -21.06 174.38 -114.5 231.34 -200.48 308.14 -271.04 393.41 -316.25 484.24 -329.77 567.76 -308.93 639.24 -255.23 701.68 -178.71 749.36 -88.61 784.33 0.13 810.29 69.47 827.91 108.61 840.89 108.05 849.56 65.3 857.89 -13.5 868.36 -115.77 877.82 -222.78 891.48 -315.12 910.25 -374.11 929.03 -387.85 952.48 -353.37 979.6 -278.89 1005.7 -178.71 1033.41 -71.78 1060.16 22.85 1082.6 90.2 1099.76 119.9 1107.88 109.77 1106.98 62.44 1092.67 -10.81 1062.78 -96.09 1023.84 -182.13 972.06 -252.66 912.06 -297.91 857.62 -313.92 810.74 -297.39 782.71 -252.14 784.82 -183.25 820.65 -99.79 893.17 -11.28 992.93 76.35 1110.74 153.52 1227.41 215.25 1317.18 259.94 1364.09 285.28 1353.7 293.07 1289.25 284.29 1183.57 263.51 1064.88 235.28 973.45 199.52 936.61 163.36 974.14 130.08 1079.94 97.22 1226.45 70.98 1367.97 52.19 1454.63 37.04 1456.36 29.55 1369.22 28.9 1228.69 31.58 1087.53 39.59 1006.06 51.65 1023.28 65.49 1135.19 81.77 1297.99 99.48 1440.57 117.67 1499.95 136.36 1445.92 155.14Q1445.86 155.15 1445.86 155.15" opacity="0.69"></path><path d="M1411.92 224.73C1279.59 242.33 1124.07 263.4 1007.35 287.95 972.89 312.77 1031.09 341.58 1155.19 374.63 1299.59 408.52 1407.92 447.21 1443.05 490.75 1394.94 535.15 1280.33 584.12 1138.07 636.85 931.57 738.74 983.06 840.49 1192.78 919.62 1347.88 954.79 1295.1 934.15 1096.9 851.96 829.93 688.53 962.2 694.43 1085.78 950.71 1108.62 1065.62 1080.75 1110.04 1045.33 1022.67 1016.85 935.01 988.56 839.96 962.67 753.4 935.95 692.13 913.34 665.57 895.73 679.85 878.13 733.98 865.95 816.57 858.38 912.48 849.98 1007.56 844.49 1084.04 839.76 1130.26 831.38 1140.91 819.98 1113.76 802.18 1054.28 776.19 970.92 739.27 876.06 688.75 782.59 560.23 639.69 390.09 601.61 228.22 662.34 153.98 787.77 206.23 908.21 375.65 976.98 527.7 982.08 538.74 920.09 346.98 818.64 100.6 692.16 17.53 571.72 198.23 471.86 327.58 426 430.74 386.28 468.91 352.14 423.84 320.78 307.11 293.79 155.91 270.21 25.01 248.14 -38.35 228.12 -7.38 209.39 105.85 191.08 259.59 173.25 391.92 155.64 445.92 138.04 401.43 121.08 279.96 105.1 69.14 82.66 72.29 52.21 279.11 48.81 407.79 51.01 475.95 59.47 467.5 74.81 265.99 113.65 60.4 176.11 68.41 248.33 280.2 295.53 507.89 306.98 593.81 255.75 512.52 140.85 357.42 -21.32 242.07 -183.42 208.21 -280.83 271.95 -274.34 384.02 -157.26 452.31 -76.7 518.74 6.68 579.71 80.12 640 129.68 692.16 148.43 736 131 777.82 78.01 812.33 -3.63 840.45 -102.18 867.82 -201.58 890.14 -285.96 907.74 -340.11 925.35 -354.42 937.82 -326.09 944.74 -261.35 950.91 -171.31 950.18 -71.08 941.56 23.37 930.93 98.86 911.38 144.64 883.03 156.19 853.99 132.99 818.83 81.34 781.05 10.89 730 -150.21 724.24 -257.36 812.36 -264.93 981.98 -174.96 1187.63 -24.5 1315.07 130.71 1275.29 259.04 1089.34 330.23 914.22 349.33 942.87 324.47 1180.04 280.7 1407.35 239.82 1428.7 217.6 1372.01 199.9 1253.25 187.44 1060.57 172.79 1077.81 171.7 1294.69 183.66 1419.65 193.41 1465.92 207.13 1411.92 224.73Q1411.92 224.73 1411.92 224.73" opacity="0.24"></path><path d="M1377.92 403.03C1109.1 435.89 939.09 487.37 1063.73 554.79 1322.27 620.88 1401.66 698.41 1225.36 777.65 926.86 863.43 1254.57 828.74 1252.91 690.21 1073.81 599.69 879.6 543.97 752.62 560.41 712.8 659.47 748.43 819.99 810.59 987.09 889.52 1088.5 941.19 1078.41 959.06 953.32 968.58 782.98 953.66 653.51 920.8 645.85 887.94 772.03 838.7 951.05 767.2 1080.46 687.35 1098.5 575.91 994.7 440.03 826.51 320.92 663.66 231.18 571.65 220.35 569.38 296.68 646.56 443.72 757.46 579.75 856.19 591.94 924.16 445.78 935.58 207.22 898.44 57.78 823.28 119.21 728.92 348.17 634.58 500.39 536.22 402.29 452.93 131.07 387.65 -6.24 324.85 157.1 277.28 425.92 244.42 322.57 203.25 227.49 210.83 516.21 264 316.16 321.51 248.27 323.38 548.94 183.06 640.89 41.26 600.26 -108.59 492.57 -220.01 366.35 -251.97 293.3 -189.44 283.15 -50.69 320.46 93.41 389.18 178.52 460.06 147.83 539.45 5.76 599.48 -179.9 632.34 -306.11 665.2 -298.49 669.34 -162.38 651.92 20.63 643.01 158.42 634.08 187.25 653.71 109.93 720.81 -33.08 847.97 -164.13 1024.84 -228.98 1183.18 -211.21 1270.99 -116.53 1222.11 17.05 1067.96 162.56 900.02 281.91 868.04 361.63 1154.52 408.87 1138.12 375.93 940.94 362.93 1145.31 357.48 1397.16 370.17 1377.92 403.03Q1377.92 403.03 1377.92 403.03" opacity="0.77"></path><path d="M1343.92 579.44C1095.56 609.96 911.4 651.53 979.56 699.83 1217.46 743.99 1368.9 786.27 1294.8 816.28 1064.5 829.08 874.47 815.59 852.36 769.33 990.49 705.79 1164.56 623.25 1256.59 543.24 1226.53 500.89 1093.4 510 930.08 587.15 776.2 719.07 680.27 877.04 638.38 1008.84 637.88 1063.36 656.23 1016.71 669.16 881.65 688.29 724.63 685.39 614.13 654.88 611.85 624.36 725.8 567.69 891.22 491.01 1024.97 420.53 1072.09 346.67 1009.64 294.3 871.62 283.3 708.92 328.98 581.42 435.83 521.79 552.12 536.89 641.44 606.89 631.51 697.26 499.49 791.04 289.24 853.79 119.33 877.42 109.67 868.49 272.34 828.11 480.27 771.12 532.01 700.09 363.2 630.01 113.52 569.7 33.58 507.81 211.56 460.21 459.92 429.7 382.49 393.18 183.87 401.58 507.5 427.02 541.45 431.14 389.11 421.27 201.87 383.18 116.12 312.54 196.31 205.98 374.58 72.22 565.35 -58.14 677.25 -164.33 695.6 -211.22 636.01 -183.38 547.93 -83.25 473.81 57.07 410.7 172.73 386.33 217.84 391.58 158.96 407.74 13.46 435.5 -158.14 466.01 -272.11 496.53 -269.87 528.35 -153.21 569.74 15.58 622.03 162.44 701.91 226.47 817.9 194.33 944.9 84.9 1083.23 -45.7 1189.85 -145.84 1218.53 -191.23 1150.44 -164.17 999.66 -81.83 861.39 38.16 817.38 164.51 934.89 275.08 1153.91 368.37 1333.62 432.11 1322.03 472.2 1130.17 495.06 928.73 508.29 931.37 521.67 1153.49 530.92 1373.3 548.93 1343.92 579.44Q1343.92 579.44 1343.92 579.44" opacity="0.33"></path><path d="M1309.92 644.53C986.59 685.67 1199.68 737.58 1322.65 725.21 1169.92 700.86 953.4 655.12 815.16 591.75 820.27 532.76 941.66 478.78 1087.4 450.26 1193.63 467.02 1204.63 533.95 1135.43 650 1009.72 789.11 874.28 923.48 760.21 1010.73 661.97 1020.9 596.86 946.24 554.48 808.7 521.74 667.68 494.95 575.46 466.79 577.85 438.62 679.94 410.41 830.77 390.03 964.39 379.29 1034.32 393.16 1011.06 442.59 910.37 507.84 765.55 596.9 624.41 679.19 523.48 704.99 478.67 653.54 491.54 510.4 543.22 327.74 622.51 172.96 699.05 138.51 756.48 343.06 805.04 419.15 759.72 106.51 703.63 80.43 661.69 266.45 624.71 493.92 596.54 531.78 568.38 351.25 550.35 135.99 539.18 77.11 524.3 226.68 508.76 450.83 484.3 586.65 445.24 547.86 385.59 392.9 300.25 225.56 199.41 160.28 82.43 217.95 -33.76 367.55 -122.35 536.87 -168.63 668.1 -153.15 746.03 -81.56 762.02 34.3 742.74 158.48 695.94 238.53 653.75 245.78 631.38 165.01 608.91 20.53 611.28 -136 639.45 -238.11 667.62 -240.54 720.24 -142.63 795.83 9.25 871.32 157.67 964.75 248.38 1060.36 258.87 1128.46 192.28 1158.85 83.17 1124.34 -26.61 1036.52 -113.34 907.63 -146.88 794.95 -126.73 774.19 -61.3 872.87 33.11 1069.54 135.51 1253.83 242.3 1317.88 334.43 1202.7 407.59 999.2 470.74 865.66 518.04 935.41 554.65 1161.54 587.29 1347.78 616.37 1309.92 644.53Q1309.92 644.53 1309.92 644.53" opacity="0.78"></path><path d="M1275.92 557.93C973.16 590.37 1089.42 586.73 1295.01 545.76 1246.31 513.39 1075.73 471.7 889.31 429.93 771.28 406.35 768.73 403.06 852.98 433.21 983.77 500.38 1092.15 603.56 1145.49 730.64 1144.1 853.2 1091.1 949.31 1013.76 989.51 917.31 961.85 828.82 868.69 759.34 735.5 690.78 612.4 643.22 537.51 617.4 543.85 591.58 634.47 588.72 769.99 608.59 899.43 629.38 985.4 670.9 996.59 722.6 935.9 755.2 822.2 765.68 688.67 727.27 568.44 634.15 479.41 488.69 436.55 324.06 435.47 205.97 471.05 177.91 524.67 269.05 579.82 428.59 637.93 576.02 680.18 605.79 703.62 373.93 718.64 227.77 678.36 527.92 641.46 572.52 615.64 425.51 587.39 217.89 554.7 106.5 518.77 176.7 472.67 366.88 412.47 556.74 344.28 632.15 259.51 574.32 161.6 426.48 66.67 283.94 -24.02 213.02 -93.44 230.84 -126.19 327.06 -113.95 456.4 -51.82 596.78 41.52 708.23 151.89 782.68 246.67 830.72 288.44 853.79 262.58 867.65 166.66 873.63 27.26 886.23 -113.48 912.05 -204.12 937.87 -210.5 975.68 -130.39 1018.4 2.66 1053.23 145.82 1077.13 253.69 1073.84 300.29 1044.13 279.03 975.21 206.08 874.62 110.4 785.07 10.2 725.91 -62.36 741.93 -95.69 846.7 -92.01 1019.85 -51.65 1194.57 11.71 1279.29 93.28 1227.04 177.49 1056.1 254.6 884.84 331.71 829.34 395.91 950.7 446.28 1168.27 494.94 1320.52 532.11 1275.92 557.93Q1275.92 557.93 1275.92 557.93" opacity="0.54"></path><path d="M1242.54 373.24C963.67 401.3 972.36 392.61 1210.32 366.09 1260.43 353.27 1182.63 343.48 1027.18 345.74 856.92 368.53 742.79 415.15 709.26 489.77 752.21 584.37 839.08 695.47 930.31 807.04 1015.65 895.73 1064.65 947.04 1078.09 944.06 1067.9 887.99 1037.39 786.06 1000.8 663.01 958.01 558.95 921.94 500.19 898.47 509.74 875 589.32 865.23 709.12 863.76 830.83 856.08 925.98 843.89 964.86 813.41 942.48 759.29 867.37 671.64 758.6 550.11 641.82 422.71 532.34 302.15 450.07 228.43 400.61 231.2 382.94 317.49 391.74 463.31 415.75 594.32 454.4 651.07 492.05 583.75 521.27 321.92 559.17 286.05 565.54 562.54 536.48 611.3 513 496.36 478.36 306.93 432.81 162.59 386.09 157.62 326.93 283.72 256.58 471.51 186.69 621.02 110.38 673.19 35.55 619.84 -24.61 502.08 -67.12 380.35 -80.21 287.12 -61.52 259.25 -7.08 290.25 77.95 367.7 170.29 466.44 258.01 562.55 315.92 660.28 321.09 737.85 268.86 794.23 164.64 846.34 33.87 883.01 -90.67 906.48 -170.25 929.95 -179.8 939.12 -116.29 931.27 -3.16 919.16 128.93 884.29 244.23 827.24 317.5 771.81 337.68 711.71 307.43 670.45 243.17 675.62 156.05 737.19 72.77 861.18 8.94 1013.67 -34.91 1159.26 -47.83 1237.06 -34.44 1209.32 -0.52 1080.87 47.91 910.28 101.41 801.38 161.84 819.72 218.06 973.12 265.2 1171.6 313.11 1291.3 349.77 1242.54 373.24Q1242.54 373.24 1242.54 373.24" opacity="0.13"></path><path d="M1207.86 205.3C1044.08 226.43 865.99 239.73 769.74 247.16 798.83 256.62 927.96 264.29 1083.04 274.88 1198.27 293.74 1218.73 323.03 1147.16 367.77 1011.25 426.38 863.06 502.9 745.35 594.56 674.46 688.57 660.57 781.39 687.12 858.45 745.58 905.13 808.88 913.29 860.58 876.1 909.79 802.61 937.74 700.98 945.86 592.61 950.03 507.9 940.29 463.85 919.17 475.86 898.05 544.88 866.53 648.82 822.52 759.85 774.57 857.62 708.18 916.17 622.37 926.7 534.06 891.48 435.97 818.08 344.95 723.48 285.84 618.54 269.4 521.45 312.61 442.4 402.62 382.08 525.77 345.24 639.68 327.52 689.25 326.41 649.85 334.62 519.13 344.96 278 366.66 345.17 372.37 595.86 346.99 648.65 325.86 565.37 293.12 402.49 250.62 244.14 208.95 177.2 159.58 225.76 106.74 364.23 59.8 528.8 16.79 656.05 -14.64 713.2 -29.48 690.87 -22.97 615.87 9.66 509.69 61.02 415.12 133.06 353.26 216 321.93 288.6 328.93 343.06 360.93 362.8 411.8 336.78 467.65 266.21 517.09 160.29 569.53 41.1 608.19 -67.11 629.32 -136.13 650.45 -148.14 653.05 -99.81 640.45 -6.95 630.85 109.56 613.42 223.22 599.16 312.19 603.76 364.87 631.53 375.65 695.4 350.96 789.81 295.9 914.7 228.13 1048.58 161.81 1151.28 97.84 1198.68 51.64 1163.55 25.59 1058.31 13.41 912.7 18.91 789.7 36.66 756.58 62.68 835.51 93.44 1001.99 123.82 1173.04 156.22 1260.64 184.17 1207.92 205.29Q1207.86 205.3 1207.86 205.3" opacity="0.25"></path><path d="M1173.85 158.02C1031.1 176.8 867.66 197.12 755.14 219.97 734.85 244.57 807.66 274.88 933.87 313.27 1069.85 356.83 1160.25 411.61 1181.44 477.94 1133.96 548.27 1034.95 626.39 916.28 706.2 794.96 776.3 699.22 833.81 636.8 868.51 603.72 874.65 597.7 848.17 606.13 788.89 628.18 709.12 648.69 615.52 659.56 524.92 672.35 459.1 670.61 428.14 651.83 441.88 633.05 500.86 598.13 589.13 549.93 687.22 503.64 781.67 448.97 851.39 394.38 886.72 353.41 887.06 328.5 852.04 332.64 790.94 366.12 710.39 434.91 623.14 531.61 539.49 625.67 460.34 702.41 395.04 730.35 344.83 689.61 305.81 582.36 279.19 432.62 261.01 292.65 249.4 209.15 240.39 222.19 230.3 327.47 221.88 487.1 209.07 629.85 190.29 683.95 171.51 628.76 147.65 497.52 120.66 291.4 82.77 342.72 32.74 544.3 40.68 667.27 61.94 740.9 100.28 760.42 154.82 730.57 213.86 670.41 278.85 602.28 339.84 528.53 381.39 472.25 399.57 437.96 385.47 414.47 336.37 409.79 255.97 417.79 154.27 430.07 48.94 447.31 -43.13 466.08 -102.11 484.86 -115.85 504.29 -81.08 527.42 -8.02 554.83 89.81 593.66 194.1 649.69 287.64 716.51 360.68 803.7 404 906.39 417.41 1003.47 402.26 1090.61 367.02 1145.08 321.52 1150.2 266.33 1098.84 215.17 995.44 173.78 821.83 124.46 811.72 97.59 1030.4 110.33 1168.91 122.89 1227.94 139.24 1173.91 158.01Q1173.85 158.02 1173.85 158.02" opacity="0.66"></path><path d="M1139.91 260.87C871.08 293.73 698.27 358.63 791.16 453.94 1024.96 552.42 1142.27 673.36 1077.65 781.5 893.4 834.81 714.77 808.3 604.99 688.06 534.08 537.41 499.4 415.49 466.54 407.87 433.68 534.08 405.75 705.45 419.71 823.48 472.54 851.19 599.88 776.73 741.07 653.45 762.61 508.27 610.46 388.35 352.57 307.06 235.59 240.92 395.08 196.47 663.91 163.61 683.15 130.75 448.27 112.58 264.88 121.77 311.21 146.12 532.35 214.76 725.67 316.87 808.63 397.07 774.78 436.69 715.82 384.88 637.78 242.77 609.58 58.08 642.44 -68.12 675.3 -60.5 766.12 74.73 901.1 249.47 1017.01 393.79 1102.14 455.16 1062.25 444.92 912.01 379.84 725.71 310.19 703.48 268.66 910.95 230.29 1159.15 228.01 1139.91 260.87Q1139.91 260.87 1139.91 260.87" opacity="0.54"></path><path d="M1105.86 449.97C878.38 478.14 686.28 537.01 681.3 615.13 842.38 685.08 1016.87 753.11 1091.82 788.84 1060.43 778.08 952.52 705.84 842.56 580.51 725.08 457.63 648.46 371.46 620.3 373.86 592.13 475.95 615.08 620.05 683.75 740.11 744.89 810.23 808.85 802.64 803.32 740.29 691.46 640.69 487.09 536.18 305.36 451.71 289.7 368.91 470.38 311.79 697.86 283.62 735.8 255.46 564.1 258.91 366.59 292.9 288.43 328.55 384.71 389.11 555.14 451.8 730.77 477.22 834.58 454.94 876.59 364.18 883.21 223.47 885.76 67.95 913.93 -34.13 942.08 -36.53 993.2 61.04 1035.4 204.57 1042.22 350.54 982.39 452.66 843.68 500.34 710.16 501.52 643.72 477.46 742.48 456.31 960.63 427.01 1143.78 421.8 1105.92 449.96Q1105.86 449.97 1105.86 449.97" opacity="0.48"></path><path d="M1071.86 608.11C886.85 631.58 699.76 667.22 622.66 704.27 678.1 731.37 809.38 741.36 930.5 718.2 1020.24 668.78 1040.66 581.9 1017.48 473.65 970.1 384.48 923.3 330.31 899.83 339.86 876.36 419.44 878.44 533.64 885.14 641.78 867.64 730.33 810.59 769.96 690.08 764.59 538.2 726.8 382.03 668.53 309.38 611.03 369.27 547.48 546.85 499.27 731.86 475.8 781.51 452.33 674 455.81 505.11 478.69 362.87 495.51 330.89 517.15 393.24 524.17 517.99 498.78 647.2 434.26 742.81 328.5 828.56 203.15 880.39 79.44 903.86 -0.13 927.34 -9.69 920.25 53.99 875.19 160.36 820.27 285.82 727.68 397.6 633.68 477.78 602.08 531.71 658.91 558.35 818.34 571.93 1004.44 575.55 1121.49 584.63 1071.92 608.1Q1071.86 608.11 1071.86 608.11" opacity="0.28"></path><path d="M1037.92 637.14C895.18 655.92 733.41 667.28 621.72 666.97 585.63 660.93 623.22 634.39 695.49 584.45 790.56 526.99 864.51 452.32 903.51 374.97 933.49 319.91 936.19 292.13 917.41 305.85 898.63 364.82 860.16 448.74 797.63 535.07 726.09 619.95 622.84 680.1 503.16 710.97 406.27 723.54 348.76 714.1 371.09 693.41 469.02 666.28 623.18 639.73 765.92 620.95 819.95 602.17 769.19 592.95 655.14 587.53 516.62 575.68 417.19 555.81 377.88 518.63 386.95 463.15 435.18 383.09 491.33 284.45 558.25 184.35 607.6 92.82 626.38 33.85 645.16 20.13 631.59 55.52 597.21 124.35 573.6 215.46 554.67 310.04 570.22 392.11 634.14 466.66 753.48 522.51 905.77 561.09 1033.58 593.94 1091.95 618.37 1037.92 637.14Q1037.92 637.14 1037.92 637.14" opacity="0.72"></path><path d="M1003.86 519.08C776.38 547.25 583.85 510.88 543.36 422.54 610.64 343.63 676.89 269.46 648.73 271.86 620.56 373.96 503.3 504.6 399.11 588.87 402.68 650.96 572.38 657.21 799.86 629.04 837.8 600.87 683.55 543.62 538.31 444.62 438.26 323.43 438.04 169.96 466.21 67.86 494.37 65.46 545.59 162.46 682.56 278.29 864.72 403.55 1041.8 490.91 1003.86 519.08Q1003.86 519.08 1003.86 519.08" opacity="0.38"></path><path d="M969.92 327.13C662.05 364.69 503.9 258.33 466.35 237.85 428.79 389.45 526.05 532.6 833.92 495.04 828.24 457.49 607.98 253.45 645.54 101.85 683.09 122.33 964.24 289.58 969.92 327.13Q969.92 327.13 969.92 327.13" opacity="0.17"></path></g></svg>