<?xml version="1.0" encoding="UTF-8" standalone="no"?>
<!-- Created with Inkscape (http://www.inkscape.org/) -->

<svg
   width="63.278492mm"
   height="71.027267mm"
   viewBox="0 0 63.278492 71.027267"
   version="1.1"
   id="svg1"
   xmlns:inkscape="http://www.inkscape.org/namespaces/inkscape"
   xmlns:sodipodi="http://sodipodi.sourceforge.net/DTD/sodipodi-0.dtd"
   xmlns="http://www.w3.org/2000/svg"
   xmlns:svg="http://www.w3.org/2000/svg">
  <sodipodi:namedview
     id="namedview1"
     pagecolor="#505050"
     bordercolor="#eeeeee"
     borderopacity="1"
     inkscape:showpageshadow="0"
     inkscape:pageopacity="0"
     inkscape:pagecheckerboard="0"
     inkscape:deskcolor="#505050"
     inkscape:document-units="mm" />
  <defs
     id="defs1" />
  <g
     inkscape:label="Layer 1"
     inkscape:groupmode="layer"
     id="layer1"
     transform="translate(-73.490445,-113.07853)">
    <path
       d="m 103.54944,184.01701 c -0.12271,-0.0897 -0.22311,-0.31198 -0.22311,-0.49388 0,-0.1819 -0.11907,-0.30097 -0.26459,-0.26459 -0.14552,0.0364 -0.24668,0.22316 -0.2248,0.41507 0.0235,0.20614 -0.12069,0.28734 -0.35237,0.19844 -0.21568,-0.0828 -0.83949,-0.15049 -1.38624,-0.15049 -1.261688,0 -2.684288,-1.04445 -3.513638,-2.57968 -0.72233,-1.33713 -1.24267,-1.41904 -2.70448,-0.42572 -2.32368,1.57899 -4.84992,1.34516 -7.07436,-0.65479 -0.91052,-0.81864 -1.38557,-1.08427 -1.61585,-0.90352 -0.1794,0.14081 -0.92149,0.47304 -1.64909,0.7383 -0.72761,0.26525 -1.55777,0.63917 -1.84481,0.83093 -0.30649,0.20475 -1.2788,0.34865 -2.35575,0.34865 -1.80026,0 -1.85175,-0.0194 -2.8109,-1.05833 -0.53738,-0.58209 -1.12714,-1.05834 -1.31058,-1.05834 -0.19932,0 -0.26707,-0.17319 -0.16837,-0.43041 0.0908,-0.23672 0.0635,-0.56414 -0.0607,-0.7276 -0.47093,-0.61977 -1.65688,-3.81483 -2.12359,-5.72115 -0.87366,-3.56859 -0.17229,-7.18096 1.56907,-8.08145 1.51332,-0.78257 3.11747,-0.37127 4.58908,1.17663 0.67497,0.70996 0.82886,0.76771 1.19063,0.44684 0.52491,-0.46556 2.32151,-1.21494 2.91278,-1.21494 0.4461,0 0.70913,-0.96096 1.23116,-4.49792 0.20288,-1.37465 1.95379,-6.53838 3.00543,-8.86354 0.3949,-0.87312 1.34899,-2.27623 2.1202,-3.11802 0.77122,-0.84179 1.35672,-1.56419 1.30113,-1.60535 -2.07959,-1.53953 -3.55538,-2.84584 -4.46026,-3.94803 -1.12485,-1.37014 -2.38012,-3.68537 -2.3851,-4.3991 -0.002,-0.30866 -0.49949,-0.33375 -2.97915,-0.15032 -4.77611,0.3533 -5.78411,0.32129 -6.11142,-0.19409 -0.15731,-0.24768 -0.21311,-0.52323 -0.124,-0.61233 0.17736,-0.17737 4.33148,-0.79198 7.16146,-1.05956 l 1.78594,-0.16886 -0.001,-1.50029 -9.9e-4,-1.5003 -2.57869,-0.73502 c -1.41828,-0.40426 -3.02518,-0.85634 -3.57088,-1.00462 -0.82266,-0.22354 -0.99219,-0.38702 -0.99219,-0.95682 v -0.68721 l 1.91823,0.14779 c 1.05503,0.0813 2.7473,0.4501 3.76061,0.81959 1.01331,0.36949 1.86401,0.64759 1.89043,0.61801 0.0264,-0.0296 0.24137,-0.52017 0.47768,-1.09017 0.2363,-0.57 1.40967,-2.59251 2.60749,-4.49447 3.21394,-5.10326 6.73359,-8.5993 11.24651,-11.1711 1.117068,-0.63659 2.331568,-1.15711 2.698888,-1.15672 0.39238,4.2e-4 1.15188,0.41809 1.84125,1.01255 1.01523,0.87546 1.19417,1.18741 1.32763,2.31439 0.0848,0.71641 0.0507,1.92926 -0.0758,2.69523 -0.12654,0.76597 -0.17283,1.53988 -0.10288,1.71979 0.07,0.17992 0.95504,0.60681 1.96685,0.94865 l 1.83965,0.62153 2.88872,-0.84352 c 2.17271,-0.63445 3.62041,-0.87936 5.84067,-0.98808 2.80743,-0.13748 2.96923,-0.1169 3.30479,0.42043 0.19406,0.31074 0.59941,0.56498 0.90076,0.56498 0.98033,0 1.70604,0.9529 1.70604,2.24012 0,4.20137 -1.6905,9.89133 -3.91544,13.17873 -0.41602,0.61469 -0.96396,1.65339 -1.21764,2.30823 -0.25368,0.65485 -0.68322,1.57154 -0.95452,2.03709 l -0.49328,0.84646 2.09982,1.21117 c 1.46511,0.84508 2.09981,1.36358 2.09981,1.7154 0,0.91886 -0.9399,0.88285 -2.80613,-0.10751 -0.97434,-0.51706 -1.90242,-0.93522 -2.06239,-0.92925 -0.15997,0.006 -0.80748,0.47804 -1.4389,1.04905 l -1.14805,1.0382 1.74336,1.66787 c 1.72638,1.65162 2.11849,2.45668 1.34173,2.75475 -0.66311,0.25446 -1.95308,-0.44381 -3.37063,-1.82455 l -1.3377,-1.30296 -1.41377,0.44468 c -0.77757,0.24458 -1.41377,0.51064 -1.41377,0.59125 0,0.0806 0.39465,0.63508 0.87699,1.23215 2.5726,3.18448 7.09787,12.69556 7.90908,16.62306 0.1736,0.84048 0.40726,1.52814 0.51924,1.52814 0.51621,0 2.60266,-1.33205 5.70712,-3.6436 3.01416,-2.24433 4.85377,-3.02931 7.13455,-3.0444 2.48232,-0.0164 3.66634,0.69832 4.71814,2.84813 0.60739,1.24145 0.70006,1.70591 0.57742,2.89413 -0.18449,1.78758 -0.61627,2.60822 -2.21745,4.2145 -2.37744,2.38501 -5.05589,3.87938 -8.95321,4.9952 -0.85004,0.24336 -2.48147,0.37093 -4.56402,0.35688 -1.7826,-0.012 -3.24112,0.0521 -3.24114,0.1424 -3e-5,0.0904 0.98221,0.26046 2.18276,0.37803 l 2.18281,0.21376 -1.98437,0.21424 c -3.48633,0.37638 -4.58246,0.60624 -4.70958,0.98761 -0.0969,0.29058 0.0975,0.33812 0.90403,0.2211 2.68557,-0.38965 6.08133,-1.05808 6.31909,-1.24386 0.77298,-0.60402 9.36601,-1.22898 10.28101,-0.74773 0.75998,0.39972 0.16121,0.75865 -1.44687,0.86731 -4.90865,0.33169 -6.2884,0.45876 -7.11435,0.65521 -0.66831,0.15896 -0.024,0.2278 2.3151,0.24735 1.96632,0.0164 3.24115,0.13115 3.24115,0.29166 0,0.15783 -1.04083,0.26734 -2.57969,0.27141 -2.85844,0.008 -5.9604,0.27119 -12.23698,1.03997 -2.14345,0.26253 -7.18492,1.53864 -7.54062,1.9087 -0.18204,0.18938 -0.017,0.22543 0.52917,0.11554 1.78756,-0.35967 9.41758,-1.25275 11.57552,-1.35489 1.90604,-0.0902 2.3151,-0.0411 2.3151,0.27777 0,0.21303 -0.14883,0.38811 -0.33073,0.38907 -0.1819,9.5e-4 -1.93807,0.2512 -3.9026,0.55611 -1.96453,0.30491 -3.92907,0.59558 -4.36563,0.64594 -0.43656,0.0504 -1.27,0.1486 -1.85208,0.21832 -0.58208,0.0697 -2.01083,0.3596 -3.175,0.64418 -2.40538,0.58798 -4.47503,0.85096 -4.80397,0.61041 z m 3.1779,-1.87084 c 0.47377,-0.47376 -1.06233,-0.60126 -1.91731,-0.15913 -0.45223,0.23386 -0.82225,0.49785 -0.82225,0.58666 0,0.24148 2.45343,-0.1414 2.73956,-0.42753 z m -4.59882,-3.09386 c 0.65379,-2.11672 0.69548,-4.81295 0.10197,-6.59455 -1.15463,-3.46598 -2.05883,-2.40901 -2.481508,2.90076 -0.2286,2.87178 0.15435,4.94893 0.999618,5.42197 0.65169,0.3647 0.78511,0.19761 1.37992,-1.72818 z m -9.782398,-0.47128 c 0,-0.20792 -0.41672,-0.81989 -0.92604,-1.35993 -0.50933,-0.54004 -0.92605,-1.0843 -0.92605,-1.20946 0,-0.34699 -0.46557,-0.27113 -0.63312,0.10315 -0.0814,0.18191 -0.0839,-0.5027 -0.005,-1.52135 0.20749,-2.69399 1.19666,-7.3028 1.73199,-8.06979 0.84106,-1.20502 1.04662,-2.65199 0.75644,-5.32466 -0.54806,-5.0478 -0.59462,-5.74685 -0.42722,-6.41385 0.0941,-0.3749 0.41771,-0.81362 0.71913,-0.97494 1.1244,-0.60176 1.81895,0.82506 2.22825,4.57751 0.0913,0.83675 0.27644,1.52135 0.41149,1.52135 0.13505,0 0.24555,-0.18438 0.24555,-0.40973 0,-0.22535 0.58458,-1.38621 1.29907,-2.57969 0.71449,-1.19347 1.69511,-2.97882 2.17915,-3.96743 0.76001,-1.55227 0.96717,-1.78689 1.518508,-1.71979 1.6982,0.20665 1.25655,2.07804 -1.964468,8.32389 -1.06315,2.06156 -2.13499,4.44281 -2.38186,5.29167 -0.24687,0.84886 -0.66767,2.19822 -0.93512,2.99858 -0.87944,2.63182 -1.57317,6.4984 -1.39679,7.7852 0.19289,1.40728 0.57374,1.81038 1.59936,1.69278 0.57448,-0.0659 0.72445,-0.20562 0.65939,-0.61443 -0.22557,-1.41736 0.0124,-2.76718 1.00645,-5.70902 0.59562,-1.76269 1.25522,-3.46781 1.46578,-3.78917 0.21056,-0.32136 0.61651,-1.26348 0.90212,-2.0936 0.2856,-0.83012 0.716288,-1.77625 0.957078,-2.10251 0.41653,-0.56439 0.4295,-0.49361 0.26707,1.45732 -0.11278,1.35461 -0.0772,2.05052 0.10489,2.05052 0.15159,0 0.27768,-0.0893 0.28021,-0.19844 0.018,-0.7789 0.84605,-3.92422 1.28908,-4.89674 0.29689,-0.65171 0.76602,-1.76084 1.04251,-2.46472 0.79296,-2.01874 1.12398,-1.8128 0.95327,0.59306 -0.0809,1.13962 -0.18985,2.28721 -0.24221,2.55018 -0.0545,0.27364 0.0349,0.43477 0.20891,0.37676 0.53008,-0.17669 1.03191,-2.34938 1.2058,-5.22052 0.15418,-2.54565 0.21254,-2.77812 0.69742,-2.77812 0.46133,0 0.54613,0.22048 0.66146,1.71979 l 0.13229,1.71979 0.69406,-1.71979 c 0.38174,-0.94589 0.77433,-2.38094 0.87242,-3.18901 0.16684,-1.37432 0.12492,-1.53666 -0.64906,-2.51354 -0.91627,-1.15647 -1.66223,-1.40013 -4.36549,-1.42595 -0.87779,-0.008 -2.24701,-0.19497 -3.0427,-0.41462 -0.795698,-0.21966 -2.577818,-0.47364 -3.960268,-0.56441 -1.38245,-0.0908 -2.66085,-0.28157 -2.8409,-0.42398 -0.65096,-0.51491 -1.05973,0.0714 -2.41395,3.46234 -2.87573,7.20082 -4.18881,14.60266 -3.7539,21.16071 l 0.23284,3.51091 0.97405,1.1887 c 1.27872,1.56051 3.56853,2.57754 3.56853,1.58498 z m 14.599628,-0.0434 0.81503,-0.42147 -0.62738,-0.31278 c -0.89721,-0.44731 -0.925,-1.1612 -0.0795,-2.04366 l 0.73369,-0.76581 -0.61044,-0.64978 c -0.33573,-0.35738 -0.54327,-0.8248 -0.46118,-1.03872 0.12528,-0.32646 2.20251,-1.42764 4.28332,-2.27066 2.23817,-0.90678 2.82123,-1.21555 3.34196,-1.76984 0.56339,-0.5997 0.57555,-0.7 0.24464,-2.01689 -0.19153,-0.76219 -0.4664,-1.61363 -0.61082,-1.89209 -0.23291,-0.44907 -0.30222,-0.391 -0.61329,0.51386 -0.32104,0.93383 -0.3071,1.05068 0.16476,1.38118 0.79805,0.55898 0.67437,1.60939 -0.21214,1.80179 -0.40019,0.0869 -0.96573,0.26174 -1.25677,0.38862 -0.29105,0.12689 -1.30308,0.43299 -2.24896,0.68022 -0.94589,0.24723 -1.8329,0.55087 -1.97115,0.67475 -0.13824,0.12389 -0.46985,0.22524 -0.73691,0.22524 -0.40357,0 -0.43774,-0.0893 -0.20236,-0.52916 0.24496,-0.4577 0.20155,-0.52862 -0.32142,-0.52512 -1.18498,0.008 -1.35021,0.3174 -1.00386,1.88009 0.32313,1.45792 0.25083,5.45007 -0.11801,6.51638 -0.25419,0.73485 0.28452,0.79767 1.49084,0.17385 z m -26.394788,-0.28017 c 0.20099,-0.52375 -0.25669,-4.13107 -0.78875,-6.21681 -0.20968,-0.82196 -0.81105,-2.39954 -1.33637,-3.50573 -1.35039,-2.84353 -1.95472,-2.68396 -1.95472,0.51616 0,1.90456 1.66992,7.47914 2.65476,8.86223 0.62016,0.87093 1.17182,1.00415 1.42508,0.34415 z m 3.5122,-2.27493 c -0.0852,-0.76398 -0.23788,-2.1332 -0.33929,-3.04271 -0.15968,-1.4321 -0.12617,-1.65364 0.25018,-1.65364 0.34413,0 0.44066,-0.28907 0.46385,-1.38906 0.0334,-1.58518 -0.0355,-2.66509 -0.17972,-2.81464 -0.17401,-0.18049 -2.4954,0.55925 -2.4954,0.79519 0,0.12479 0.29516,1.36288 0.6559,2.75131 0.36075,1.38843 0.73505,3.47351 0.83179,4.63352 0.1349,1.61756 0.26815,2.10909 0.57175,2.10909 0.32081,0 0.36648,-0.2633 0.24094,-1.38906 z m 28.096068,0.0497 c 1.19283,-0.59703 2.1473,-1.24387 2.1473,-1.45521 0,-0.20924 -0.0616,-0.38045 -0.13688,-0.38045 -0.22138,0 -4.8902,2.66845 -4.8902,2.79498 0,0.32417 0.9432,0.01 2.87978,-0.95932 z m -2.11909,-1.97002 c 0.74208,-0.51046 1.9525,-1.05749 2.68983,-1.21561 1.33371,-0.28603 2.93733,-1.34487 2.57973,-1.70335 -0.20629,-0.20679 -2.24949,0.53857 -2.81351,1.02639 -0.19532,0.16893 -1.20735,0.6048 -2.24896,0.9686 -1.5165,0.52967 -1.91067,0.78007 -1.97837,1.25677 -0.11507,0.81023 0.19405,0.75215 1.77128,-0.3328 z m 10.08723,-0.3948 c 0,-0.29104 -0.13364,-0.52917 -0.29698,-0.52917 -0.21737,0 -0.21615,-0.0974 0.005,-0.36334 0.16585,-0.19983 0.2278,-0.55553 0.13765,-0.79044 -0.0901,-0.2349 -0.0321,-0.80508 0.12892,-1.26706 0.35675,-1.02335 0.29173,-1.10673 -0.59892,-0.76811 -0.58234,0.22141 -0.6992,0.4311 -0.70446,1.26417 -0.003,0.54931 -0.11,1.44522 -0.23672,1.99093 l -0.23041,0.99218 h 0.89818 c 0.72179,0 0.89818,-0.10392 0.89818,-0.52916 z m 4.64371,-2.83835 c -0.28843,-0.75164 -0.44799,-0.14306 -0.23415,0.89308 0.19595,0.94947 0.21657,0.9679 0.30137,0.26927 0.0501,-0.41247 0.0198,-0.93553 -0.0672,-1.16235 z m 4.88129,-1.65957 c 0,-0.27386 -0.11907,-0.57152 -0.26459,-0.66146 -0.15478,-0.0957 -0.26458,0.17885 -0.26458,0.66146 0,0.48261 0.1098,0.75712 0.26458,0.66146 0.14552,-0.0899 0.26459,-0.38759 0.26459,-0.66146 z m 2.56199,-0.0496 c -0.0845,-0.21106 -0.14716,-0.14837 -0.15985,0.15985 -0.0115,0.27892 0.051,0.43519 0.13896,0.34727 0.0879,-0.0879 0.0973,-0.31612 0.0209,-0.50712 z m -7.32449,-1.89405 c 0,-0.14026 -0.23532,-0.0421 -0.52293,0.21822 -0.28761,0.26029 -0.44803,0.59443 -0.35649,0.74255 0.17279,0.27958 0.87942,-0.49241 0.87942,-0.96077 z m -13.11624,-3.08342 c -0.19177,-1.23693 -0.36188,-2.9038 -0.37802,-3.70417 -0.0324,-1.60581 -0.51816,-3.3334 -0.9168,-3.26051 -0.14071,0.0257 -0.51131,0.79964 -0.82355,1.71979 -0.31224,0.92016 -1.11985,2.78728 -1.79468,4.14916 -0.67483,1.36188 -1.22696,2.64029 -1.22696,2.8409 0,0.29192 0.39012,0.33177 1.95403,0.19957 1.56952,-0.13267 2.07502,-0.0804 2.56891,0.26551 0.33818,0.23687 0.69382,0.34248 0.79031,0.23469 0.0965,-0.10779 0.0185,-1.20801 -0.17324,-2.44494 z m 23.12652,1.86803 c 0.0601,-0.41043 -0.0247,-0.56676 -0.26458,-0.48771 -0.19415,0.064 -0.39278,0.38816 -0.4414,0.72039 -0.0601,0.41044 0.0247,0.56677 0.26458,0.48772 0.19415,-0.064 0.39278,-0.38816 0.4414,-0.7204 z m -31.30983,-3.03092 c 0.20265,-0.85787 0.27056,-1.45319 0.1509,-1.32292 -0.3081,0.33542 -1.02292,2.68606 -1.19844,3.94102 l -0.14803,1.05833 0.41356,-1.05833 c 0.22746,-0.58209 0.57936,-1.76023 0.78201,-2.6181 z m 25.18445,1.90703 c -0.0845,-0.21107 -0.14715,-0.14837 -0.15985,0.15985 -0.0115,0.27892 0.0511,0.43519 0.13897,0.34727 0.0879,-0.0879 0.0973,-0.31612 0.0209,-0.50712 z m -15.91826,-3.32312 c -0.29538,-1.57447 -0.56486,-0.88795 -0.36323,0.92533 0.29379,2.64223 0.31213,2.69674 0.42291,1.25748 0.056,-0.72721 0.0291,-1.70948 -0.0597,-2.18281 z m 20.23544,2.10273 c 0,-0.3739 -0.6205,-0.84667 -1.11125,-0.84667 -0.539,0 -0.65092,0.67917 -0.14552,0.88311 0.5313,0.21438 1.25677,0.19335 1.25677,-0.0364 z m -29.76562,-16.97673 c 3.63732,-0.23329 5.43922,-0.48214 5.97549,-0.82524 0.29601,-0.18938 0.13881,-0.45952 -0.74997,-1.28882 -1.24128,-1.15821 -1.23966,-1.15462 -0.85059,-1.88161 0.3911,-0.73078 0.78649,-0.64681 2.57359,0.54656 0.87168,0.58209 1.69957,1.05834 1.83976,1.05834 0.31495,0 0.92413,-1.28426 0.74594,-1.57257 -0.0714,-0.11551 -0.5834,-0.28254 -1.13781,-0.3712 -1.15216,-0.18423 -2.24802,-1.07053 -2.12462,-1.71832 0.12356,-0.64868 1.01022,-0.66679 2.74769,-0.0561 0.85003,0.29876 1.67811,0.5432 1.84018,0.5432 0.39829,0 1.37974,-2.24928 1.58649,-3.63589 0.131,-0.87861 0.0474,-1.31634 -0.38472,-2.01561 -0.35028,-0.56677 -0.55206,-1.33821 -0.55206,-2.11068 0,-0.98331 -0.24941,-1.63874 -1.29699,-3.40835 -0.71335,-1.20501 -1.57656,-2.43739 -1.91823,-2.73861 -1.0021,-0.88345 -4.18371,-2.75961 -4.67977,-2.75961 -0.85039,0 -4.51636,2.41298 -5.78848,3.81005 -0.69602,0.76438 -1.682208,2.12128 -2.191528,3.01533 -0.94667,1.66176 -1.32491,1.99931 -1.32033,1.17826 0.01,-1.7843 2.722838,-5.11604 5.876008,-7.21644 0.97766,-0.65124 1.78133,-1.25292 1.78594,-1.33707 0.0156,-0.28422 -2.66696,-0.77305 -4.24219,-0.77305 -2.001318,0 -5.268058,0.88436 -7.102508,1.92275 -1.94326,1.1 -4.50967,3.70654 -5.45509,5.54039 l -0.77846,1.51001 0.59123,0.55082 c 0.83478,0.77771 0.78475,1.58853 -0.098,1.58853 -0.66057,0 -0.68234,0.0468 -0.52306,1.12448 0.0914,0.61846 0.20997,1.49496 0.26348,1.94777 0.19698,1.66711 1.38421,3.29168 3.80554,5.2074 1.85371,1.46663 3.75629,2.68304 5.37506,3.43655 0.52566,0.24468 1.11373,0.63523 1.30683,0.8679 0.2427,0.29244 0.56025,0.36769 1.02864,0.24376 0.37265,-0.0986 2.106298,-0.27091 3.852548,-0.38292 z m -5.378168,-7.11761 c -0.38899,-0.41694 -1.06444,-1.26194 -1.501,-1.87777 -0.43656,-0.61583 -1.06707,-1.49099 -1.40113,-1.94479 -1.34991,-1.83377 0.14852,-3.08509 2.45946,-2.05386 2.20536,0.98411 2.522468,2.23726 0.70516,2.78662 -0.4606,0.13923 -0.83745,0.39262 -0.83745,0.56309 0,0.17047 0.65484,0.76095 1.45521,1.31218 0.80036,0.55123 1.455208,1.09732 1.455208,1.21354 0,0.24887 -0.891168,0.75908 -1.325878,0.75908 -0.16628,0 -0.62059,-0.34114 -1.00958,-0.75809 z m 5.186378,-1.77101 c -1.42894,-0.77546 -1.59666,-1.90334 -0.60107,-4.04195 0.82202,-1.76578 1.27865,-1.67265 1.45658,0.29706 0.074,0.81925 0.28873,1.64332 0.47716,1.83125 0.50944,0.50807 2.87522,0.35302 4.50075,-0.29497 1.41264,-0.56313 1.89899,-0.54428 1.89899,0.0736 0,0.56375 -1.40463,1.71264 -2.6167,2.14028 -1.45451,0.51318 -4.1655,0.51038 -5.11571,-0.005 z m -12.021808,-5.00505 c -1.15809,-0.81117 -0.97306,-3.56481 0.33101,-4.92597 1.04454,-1.09026 1.4677,-0.64258 1.37259,1.45213 l -0.0733,1.61528 h 1.91837 c 1.0551,0 1.91173,0.0595 1.90362,0.13229 -0.008,0.0728 -0.63151,0.57878 -1.38533,1.12448 -1.51394,1.09597 -3.03915,1.32166 -4.06692,0.60179 z"
       style="fill:#65c0b1;fill-opacity:1;stroke-width:0;stroke-dasharray:none"
       id="path1" />
  </g>
</svg>
