<?xml version="1.0" encoding="UTF-8" standalone="no"?>
<!-- Created with Inkscape (http://www.inkscape.org/) -->

<svg
   width="57.365517mm"
   height="87.705856mm"
   viewBox="0 0 57.365517 87.705857"
   version="1.1"
   id="svg1"
   xmlns:inkscape="http://www.inkscape.org/namespaces/inkscape"
   xmlns:sodipodi="http://sodipodi.sourceforge.net/DTD/sodipodi-0.dtd"
   xmlns="http://www.w3.org/2000/svg"
   xmlns:svg="http://www.w3.org/2000/svg">
  <sodipodi:namedview
     id="namedview1"
     pagecolor="#505050"
     bordercolor="#eeeeee"
     borderopacity="1"
     inkscape:showpageshadow="0"
     inkscape:pageopacity="0"
     inkscape:pagecheckerboard="0"
     inkscape:deskcolor="#505050"
     inkscape:document-units="mm" />
  <defs
     id="defs1" />
  <g
     inkscape:label="Layer 1"
     inkscape:groupmode="layer"
     id="layer1"
     transform="translate(-76.333117,-104.53246)">
    <path
       d="m 87.67651,191.97333 c -0.50933,-0.13559 -1.81902,-0.33176 -2.91042,-0.43594 -1.78822,-0.17068 -1.99273,-0.24821 -2.06887,-0.78429 -0.11191,-0.78793 0.79041,-1.1249 3.01213,-1.1249 h 1.70257 l -0.0145,-1.91823 c -0.0248,-3.28357 -0.44672,-12.91865 -0.57121,-13.04314 -0.0651,-0.0651 -0.67862,0.0726 -1.36341,0.3059 -1.49037,0.50782 -2.43635,0.23101 -3.49003,-1.02121 -1.37901,-1.63886 -1.55374,-2.40232 -1.52899,-6.68062 0.0233,-4.03063 0.55927,-7.73975 1.95911,-13.55817 1.15788,-4.81273 3.71468,-10.75741 5.91819,-13.76006 1.00017,-1.3629 1.34714,-1.65364 1.97339,-1.65364 0.69873,0 1.06428,-0.46264 1.08255,-1.37005 0.002,-0.0987 -0.66093,-0.42807 -1.47315,-0.73196 -2.16567,-0.81028 -2.87053,-1.21949 -4.32375,-2.51015 -1.94322,-1.72585 -2.14394,-1.73433 -4.01661,-0.16957 -1.06334,0.88851 -1.84881,1.34215 -2.32393,1.34215 -1.37983,0 -1.74496,-1.01746 -0.79743,-2.22205 0.62465,-0.79411 2.84141,-1.99934 3.34734,-1.81991 0.2051,0.0727 0.33073,-0.12311 0.33073,-0.51563 0,-0.34812 -0.14883,-0.83407 -0.33073,-1.0799 -0.30705,-0.41496 -0.44439,-0.40009 -1.91823,0.20773 -2.10695,0.86892 -2.96388,0.86516 -3.3648,-0.0148 -0.22034,-0.4836 -0.2299,-0.81073 -0.0328,-1.12448 0.36397,-0.57953 2.35102,-1.33592 3.55731,-1.35413 l 0.95342,-0.0144 0.15268,-6.28386 c 0.19572,-8.05538 1.01218,-13.14009 2.17702,-13.5581 0.28928,-0.10381 1.18081,-0.006 1.98118,0.21645 1.25422,0.34924 1.79417,0.73848 3.90948,2.81835 l 2.45427,2.41316 0.83511,-0.35113 c 0.95796,-0.4028 1.93827,-0.55748 3.69393,-0.58285 l 1.23551,-0.0179 0.45362,-1.38906 c 0.24949,-0.76398 0.85437,-2.08005 1.34418,-2.92459 0.48981,-0.84454 0.89056,-1.64547 0.89056,-1.77984 0,-0.53004 1.30977,-1.11113 2.0486,-0.90888 0.40124,0.10984 0.91942,0.22077 1.15151,0.24651 1.24313,0.13787 3.6931,2.78456 4.46446,4.82295 0.26463,0.6993 0.74286,2.58114 1.06274,4.18187 0.31988,1.60073 0.68587,3.01964 0.81331,3.15314 0.13751,0.14406 0.76819,-0.25911 1.55155,-0.99185 1.20592,-1.128 1.37752,-1.20829 1.98792,-0.93017 1.35117,0.61563 1.06743,1.87795 -0.73035,3.24918 -0.48967,0.37349 -1.16048,0.67908 -1.49068,0.67908 -0.5344,0 -0.58245,0.0945 -0.43728,0.85989 0.0897,0.47294 0.23884,1.90253 0.33142,3.17685 0.14383,1.97979 0.22398,2.27077 0.55073,1.9996 0.41544,-0.34479 1.92524,-2.46767 1.92524,-2.70703 0,-0.081 -0.41672,-0.32133 -0.92604,-0.53414 -1.12742,-0.47106 -1.17537,-0.99411 -0.1576,-1.71882 1.03114,-0.73424 1.3628,-0.69513 2.14202,0.25258 l 0.6615,0.80454 2.91037,-2.27325 c 3.32109,-2.59405 6.68335,-4.35965 9.78954,-5.1407 2.96803,-0.74631 4.47939,-0.71523 5.30369,0.10907 1.22159,1.22159 0.63573,2.73918 -1.3932,3.60888 -0.94165,0.40364 -1.14822,0.60416 -0.99879,0.96956 0.66368,1.62289 0.70605,2.25741 0.19674,2.94642 -0.8567,1.15899 -2.56396,1.93961 -4.39004,2.00728 -1.62587,0.0603 -1.63093,0.063 -2.79604,1.48784 -2.49181,3.04738 -4.16826,4.97276 -6.68566,7.67836 -4.77515,5.13214 -8.92381,10.88867 -9.46093,13.12765 -0.25162,1.04886 -0.21118,2.00119 0.22793,5.36805 0.46756,3.58502 0.65296,5.41951 0.93508,9.25237 0.0375,0.50932 0.0851,2.97987 0.10583,5.4901 l 0.0377,4.56406 0.99219,-0.003 c 1.44422,-0.004 3.58028,-1.10374 5.30505,-2.73187 3.46674,-3.27251 4.94269,-3.79341 6.4572,-2.2789 0.73284,0.73284 0.79236,0.91778 0.64391,2.00082 -0.11825,0.86269 -0.51069,1.64699 -1.41634,2.83054 -3.15067,4.11749 -6.35221,6.35562 -10.26222,7.17408 l -1.5875,0.33231 -0.0211,3.48282 -0.0211,3.48282 1.12234,0.65774 c 2.7234,1.59602 3.49987,2.9376 2.65065,4.57981 -0.62657,1.21165 -2.36045,1.48728 -7.96209,1.26568 -4.92388,-0.19478 -5.58389,-0.28974 -5.79253,-0.83345 -0.14307,-0.37285 0.36694,-1.04226 0.93949,-1.23311 0.24709,-0.0824 0.24805,-0.75038 0.004,-3.00018 -0.17243,-1.59183 -0.31335,-4.0551 -0.31314,-5.47392 l 3.9e-4,-2.57969 h -0.91406 c -1.07219,0 -1.0859,0.0465 -1.32718,4.49792 -0.52009,9.59547 -0.37023,9.03896 -2.56055,9.5087 -1.56954,0.33661 -5.81006,0.32478 -7.10446,-0.0198 z m 5.58932,-2.60972 h 0.76068 l 9e-4,-2.3151 c 5e-4,-1.27331 0.11945,-3.62479 0.26433,-5.22552 0.14489,-1.60073 0.3775,-4.63683 0.51691,-6.74688 0.28156,-4.26134 0.85699,-8.01546 1.49042,-9.72344 0.37714,-1.0169 0.50204,-1.12447 1.30558,-1.12447 0.4887,0 0.95576,0.10876 1.03792,0.24169 0.0822,0.13293 0.68403,0.50051 1.3375,0.81685 2.12239,1.02743 2.14359,1.09425 2.32442,7.32429 0.22128,7.62367 0.74359,14.97295 1.08996,15.33646 0.20066,0.21059 1.01921,0.25114 2.6706,0.13229 l 2.38125,-0.17138 -0.92604,-0.58028 c -1.78586,-1.11907 -1.71359,-0.55715 -1.77984,-13.83951 -0.053,-10.63342 -0.21095,-14.83797 -0.7801,-20.76979 -0.19777,-2.06121 -0.20456,-2.10586 -0.60299,-3.96328 -0.19077,-0.8893 -0.27903,-2.33371 -0.20157,-3.29872 0.11478,-1.42986 0.25369,-1.81637 0.83138,-2.31328 0.38147,-0.32813 0.92712,-1.1414 1.21254,-1.80727 1.04289,-2.43296 4.00123,-6.23811 8.82616,-11.35263 1.79452,-1.90221 4.16816,-4.53013 5.27476,-5.83982 1.10661,-1.30969 2.23939,-2.63733 2.5173,-2.95032 0.30763,-0.34646 1.10653,-0.6939 2.04228,-0.88816 1.37213,-0.28485 1.70168,-0.49343 3.07221,-1.94446 0.84437,-0.89397 1.53816,-1.71469 1.54175,-1.82383 0.0133,-0.40433 -0.92213,-0.17291 -3.13997,0.77681 -2.71807,1.16393 -4.50227,2.17987 -6.11391,3.48131 -2.41522,1.95035 -8.56287,8.15979 -9.60214,9.69865 -2.32363,3.44064 -7.94636,8.59896 -9.37311,8.59896 -2.1086,0 -3.18167,-4.34489 -1.29483,-5.24277 0.30724,-0.1462 1.12847,-0.52738 1.82496,-0.84706 1.8245,-0.83741 4.00548,-2.93918 4.85789,-4.68145 0.61308,-1.25308 0.7255,-1.82691 0.73556,-3.75446 0.01,-1.90807 -0.12555,-2.66253 -0.83963,-4.67446 -0.7159,-2.01705 -0.81012,-2.54351 -0.59157,-3.30554 0.30223,-1.05383 0.29995,-3.00153 -0.005,-3.95259 -0.16294,-0.50877 -0.21793,-0.3185 -0.23821,0.82421 -0.0253,1.42546 -0.70691,2.87995 -1.3496,2.87995 -0.65984,0 -1.05897,-0.91431 -1.07662,-2.46629 -0.027,-2.36975 -0.46828,-3.18348 -0.49198,-0.90715 -0.015,1.44068 -0.12505,1.8924 -0.56929,2.33663 -0.51995,0.51996 -0.57839,0.52563 -1.04694,0.1016 -0.37013,-0.33496 -0.51667,-0.89521 -0.5766,-2.20434 -0.0777,-1.69617 -0.25148,-1.76326 -0.58852,-0.22716 -0.33509,1.52725 -1.98609,2.27501 -3.12076,1.41343 -0.34746,-0.26383 -0.82842,-0.2911 -1.97181,-0.1118 -1.65405,0.25938 -2.24124,0.5884 -2.03045,1.13771 0.17878,0.46589 -0.35674,1.45654 -0.78736,1.45654 -0.18467,0 -0.91236,-0.36567 -1.61708,-0.81259 -1.53033,-0.9705 -1.7227,-0.81623 -1.72865,1.38626 -0.002,0.82484 -0.0763,1.68805 -0.16465,1.91823 -0.22738,0.59255 -1.32644,0.51897 -1.97782,-0.13241 l -0.55093,-0.55092 0.18146,1.45236 c 0.26278,2.10318 -0.0335,3.41095 -0.9957,4.39511 -0.81993,0.83865 -0.82117,0.84435 -0.48147,2.21478 0.5259,2.12158 1.17368,3.3968 2.29554,4.51904 1.2732,1.27363 3.82265,2.50768 5.62057,2.72062 0.74613,0.0884 1.49729,0.33019 1.66924,0.53738 0.34445,0.41503 0.59107,3.31078 0.36085,4.23693 -0.10301,0.41438 -0.46483,0.67178 -1.23632,0.87952 -1.56394,0.42113 -2.04078,0.78969 -2.3803,1.83982 -0.16505,0.51049 -0.56841,1.46394 -0.89634,2.11879 -1.11527,2.22706 -3.06358,8.31887 -4.51078,14.10393 -2.35924,9.4309 -2.42884,14.58357 -0.19126,14.16016 0.55894,-0.10577 1.0715,-2.15902 1.11168,-4.45322 0.0838,-4.78483 2.06813,-16.43626 3.13144,-18.38692 0.817,-1.4988 1.97763,-1.8869 2.8291,-0.94604 0.398,0.43979 0.42316,0.70117 0.18465,1.91823 -0.25758,1.31436 -0.4493,2.81982 -0.68488,5.37781 -0.0536,0.58209 -0.22737,2.23322 -0.38614,3.66919 -0.63953,5.78402 -0.66327,20.01074 -0.0327,19.62105 0.10963,-0.0678 0.28044,-4.20468 0.37958,-9.19317 0.19014,-9.56719 0.49329,-13.17102 1.10792,-13.17102 0.19642,0 0.46966,0.21025 0.60719,0.46723 0.39986,0.74714 0.15705,18.78269 -0.32983,24.49965 -0.23378,2.74496 -0.3556,5.10321 -0.27071,5.24055 0.26847,0.4344 -0.14561,1.51621 -0.69236,1.80882 -0.36456,0.19511 -0.68303,0.19751 -1.03744,0.008 -0.41518,-0.2222 -0.54285,-0.17461 -0.67854,0.2529 -0.25341,0.79842 0.0947,1.13403 0.99052,0.95487 0.4371,-0.0874 1.13704,-0.15895 1.55541,-0.15895 z m 10.17241,-4.56406 c -0.17471,-0.84316 -0.38646,-5.19795 -0.58568,-12.04495 -0.15606,-5.36325 -0.13298,-5.87861 0.25654,-5.72914 0.53896,0.20682 0.56269,0.37916 1.21763,8.8444 0.5104,6.59703 0.49318,8.27835 -0.0945,9.22921 -0.29575,0.47853 -0.66138,0.3406 -0.79401,-0.29952 z m -4.29825,-56.43647 c -1.03812,-0.45473 -1.2394,-0.76336 -1.03332,-1.58443 0.10426,-0.41541 0.4169,-0.70368 0.8848,-0.81585 0.39797,-0.0954 1.05695,-0.34147 1.4644,-0.54683 0.93907,-0.47328 1.72531,-0.23024 1.93308,0.59757 0.29215,1.16404 -0.0814,1.87768 -1.22164,2.33392 -0.58635,0.23461 -1.09345,0.41686 -1.12689,0.40499 -0.0334,-0.0119 -0.43863,-0.18709 -0.90043,-0.38937 z m -6.76714,-0.66858 c -0.82814,-0.48235 -1.25676,-1.71996 -1.25676,-3.62883 0,-1.89934 0.41206,-2.69997 1.38959,-2.69997 0.90815,0 2.0069,1.29993 2.33394,2.76129 0.29037,1.29754 0.26702,1.52452 -0.2713,2.63653 -0.61279,1.26586 -1.19595,1.51314 -2.19547,0.93098 z m 11.12413,-3.35224 c -0.67275,-0.717 -1.27793,-2.75722 -1.25959,-4.24636 0.005,-0.39302 0.23906,-0.99084 0.52049,-1.32849 0.46684,-0.5601 0.57623,-0.58301 1.24797,-0.26137 0.99265,0.47529 2.1774,2.68763 2.18531,4.08074 0.007,1.21271 -0.78664,2.48308 -1.55102,2.48308 -0.25326,0 -0.76768,-0.32742 -1.14316,-0.7276 z m 8.87458,49.0988 c 0.82502,-0.4415 0.23825,-0.58501 -0.94739,-0.23172 -1.98118,0.59036 -2.29565,0.82897 -0.86121,0.65348 0.72761,-0.089 1.54148,-0.27881 1.8086,-0.42176 z m -13.32158,-2.92901 c -0.005,-1.40468 -0.24829,-2.35418 -0.55564,-2.16422 -0.27125,0.16764 -0.32132,2.8491 -0.0581,3.11231 0.41534,0.41534 0.61712,0.10362 0.61375,-0.94809 z M 88.99942,114.5371 c 0,-0.26323 -0.17481,-0.70971 -0.38846,-0.99219 -0.38012,-0.50256 -0.38864,-0.50127 -0.39687,0.0601 -0.0109,0.74245 0.2492,1.41071 0.54906,1.41071 0.12995,0 0.23627,-0.21537 0.23627,-0.4786 z"
       style="fill:#65c0b1;fill-opacity:1"
       id="path1" />
  </g>
</svg>
