<?xml version="1.0" encoding="UTF-8" standalone="no"?>
<!-- Created with Inkscape (http://www.inkscape.org/) -->

<svg
   width="55.537495mm"
   height="86.43309mm"
   viewBox="0 0 55.537495 86.43309"
   version="1.1"
   id="svg1"
   xmlns="http://www.w3.org/2000/svg"
   xmlns:svg="http://www.w3.org/2000/svg">
  <defs
     id="defs1" />
  <g
     id="layer1"
     transform="translate(-115.64014,-100.93986)">
    <path
       d="m 134.87912,187.27919 c -0.10846,-0.11207 -1.94331,-0.18578 -4.07745,-0.16381 -4.27758,0.044 -4.72746,-0.0844 -4.29341,-1.2261 0.35131,-0.924 0.67374,-1.10046 2.01963,-1.10531 0.61847,-0.002 1.12448,-0.11135 1.12448,-0.24249 0,-0.13115 -0.47782,-1.76826 -1.06183,-3.63803 -0.58401,-1.86976 -1.30688,-4.70926 -1.60637,-6.30999 -0.2995,-1.60073 -0.73033,-3.59503 -0.95741,-4.43177 -0.3606,-1.32874 -0.49541,-1.52136 -1.06479,-1.52136 -2.4161,0 -4.31501,-3.72872 -3.90757,-7.67292 0.33043,-3.19869 0.96102,-5.93829 2.28376,-9.92187 1.66167,-5.00429 4.05992,-9.90901 6.24637,-12.77461 0.93258,-1.22226 1.65677,-2.24378 1.60932,-2.27005 -0.0474,-0.0263 -0.62205,-0.33351 -1.2769,-0.68276 -1.66094,-0.88583 -3.95225,-2.74928 -4.89479,-3.98077 -0.43656,-0.57041 -0.95434,-1.04261 -1.15061,-1.04935 -0.19628,-0.007 -1.37794,0.58872 -2.62592,1.32323 -2.23461,1.31522 -2.27673,1.32781 -2.77517,0.82937 -0.49844,-0.49845 -0.49367,-0.52031 0.31459,-1.44087 0.45139,-0.51411 1.59248,-1.3338 2.53575,-1.82155 1.7364,-0.89786 1.90507,-1.10578 1.46344,-1.80405 -0.21473,-0.33952 -0.64911,-0.32911 -3.47139,0.0832 -3.31482,0.48427 -3.81955,0.41351 -3.6416,-0.51052 0.0991,-0.51436 1.31198,-0.88982 4.60409,-1.4252 l 1.86775,-0.30374 0.33725,-2.03513 c 0.18549,-1.11932 0.43471,-3.99966 0.55383,-6.40075 0.2118,-4.26937 0.54053,-7.00125 1.0984,-9.12813 0.78032,-2.97503 2.14836,-4.81303 3.0348,-4.07735 0.21451,0.17802 1.0086,0.61028 1.76467,0.96056 0.90403,0.41885 2.11269,1.39344 3.53043,2.84672 1.53762,1.57616 2.23735,2.12825 2.44024,1.92536 0.15646,-0.15646 1.37478,-0.31527 2.70738,-0.35292 l 2.42292,-0.0684 1.07177,-1.75967 c 0.58948,-0.96782 1.84504,-2.52537 2.79015,-3.46123 1.50233,-1.48763 1.84379,-1.70156 2.71591,-1.70156 0.76517,0 1.03666,-0.12327 1.16549,-0.52917 0.22658,-0.71389 0.65957,-0.66623 1.80297,0.19844 0.67528,0.51067 1.31457,1.45341 2.14418,3.16195 2.3626,4.86563 3.27397,9.36871 3.41258,16.86155 l 0.0486,2.62715 1.98438,0.42366 c 2.32448,0.49628 2.64583,0.66014 2.64583,1.34912 0,0.55336 -0.20085,0.58945 -2.91042,0.52296 -0.80036,-0.0196 -1.65833,-0.0957 -1.9066,-0.16899 -0.3349,-0.0989 -0.62977,0.21872 -1.14251,1.23056 -0.38011,0.75011 -0.63685,1.50061 -0.57054,1.66778 0.0663,0.16717 0.83874,0.57784 1.71649,0.91259 1.82295,0.69523 2.28371,1.12272 2.03949,1.8922 -0.21453,0.67591 -0.17289,0.67789 -2.51758,-0.11959 -2.47773,-0.84273 -2.80174,-0.8312 -3.60921,0.12842 -0.36555,0.43443 -1.25071,1.11904 -1.96703,1.52135 -1.22806,0.68974 -1.71465,1.39294 -0.96386,1.39294 0.45552,0 3.0987,3.46587 4.27445,5.60488 3.35578,6.1051 5.52749,15.89824 4.80044,21.6472 -0.17997,1.42308 -0.37449,1.89415 -1.12748,2.73037 -0.50049,0.55581 -0.86093,1.15112 -0.80098,1.32291 0.068,0.19473 0.66428,0.30128 1.5836,0.28296 1.91115,-0.0381 3.2934,-0.8403 5.90611,-3.42769 1.09009,-1.07953 2.27506,-2.03634 2.63326,-2.12625 0.92571,-0.23234 2.41272,0.0818 4.00441,0.84595 1.62881,0.78197 2.05584,1.69772 1.88608,4.04459 -0.13741,1.89965 -1.14106,3.42975 -3.45022,5.25992 -2.01467,1.59677 -3.20486,2.21638 -5.62894,2.93041 -3.73045,1.09884 -6.55609,0.98627 -9.04564,-0.36034 -0.60948,-0.32967 -1.17502,-0.53251 -1.25677,-0.45076 -0.0818,0.0817 -0.15435,1.17058 -0.16133,2.41963 -0.007,1.24906 -0.16954,3.5807 -0.36125,5.18143 -0.1917,1.60073 -0.30866,2.9825 -0.25991,3.0706 0.0488,0.0881 0.6703,0.0683 1.3812,-0.0441 0.71091,-0.11238 2.95837,-0.244 4.99437,-0.29248 4.0141,-0.0956 4.57704,0.0602 4.57704,1.26715 0,0.49196 -0.14192,0.62906 -0.65115,0.62906 -0.35814,0 -0.87428,0.23951 -1.147,0.53223 -0.63009,0.67633 -1.12447,0.7079 -18.83935,1.20321 -3.41974,0.0956 -6.30645,0.0822 -6.41492,-0.0299 z m 6.6795,-1.73383 c 0,-0.40048 -0.11828,-0.51209 -0.42,-0.39631 -0.23101,0.0887 -0.88585,0.23567 -1.45521,0.32671 -1.51877,0.24286 -1.26143,0.62707 0.42,0.62707 1.30345,0 1.45521,-0.0581 1.45521,-0.55747 z m 10.7312,-0.0851 c 0.47864,-0.35225 0.48208,-0.3902 0.0506,-0.55747 -0.61865,-0.23983 -1.25677,0.0294 -1.25677,0.53027 0,0.50844 0.53588,0.52053 1.2062,0.0272 z m -17.20261,-0.96254 c 0.24351,-0.39401 -0.0388,-0.60822 -0.54541,-0.41383 -0.23378,0.0897 -0.35095,0.28301 -0.26038,0.42956 0.21447,0.34701 0.58608,0.33976 0.80579,-0.0157 z m 6.20683,0.14564 c 0,-0.27252 -1.92452,-5.69999 -1.99527,-5.62702 -0.0667,0.0688 -0.91515,4.79913 -0.91515,5.10222 0,0.0727 0.38695,0.134 0.8599,0.13623 0.47294,0.002 1.03849,0.11947 1.25677,0.26053 0.43695,0.28238 0.79375,0.33994 0.79375,0.12804 z m 3.44178,-0.51913 c -0.25499,-0.67066 -1.42442,-7.14917 -1.72039,-9.53078 -0.37676,-3.03158 -1.37925,-15.90092 -1.2624,-16.20573 0.20927,-0.54589 0.84517,-0.37333 0.97504,0.26458 0.23022,1.13083 1.73628,12.51336 2.14423,16.20573 0.47601,4.30837 0.84325,6.75867 1.04289,6.9583 0.26057,0.26058 0.14485,-2.10299 -0.2354,-4.80768 -0.20721,-1.47388 -0.45358,-4.2276 -0.5475,-6.11937 -0.0939,-1.89177 -0.21192,-4.0349 -0.26223,-4.7625 -0.28021,-4.05199 -0.11473,-15.2612 0.2944,-19.94213 0.13599,-1.55592 0.20585,-1.70796 0.9062,-1.97231 0.72954,-0.27538 0.75457,-0.34225 0.64794,-1.73167 -0.11099,-1.44634 -1.68782,-6.38267 -2.03914,-6.3836 -0.10254,-2.8e-4 -0.26559,0.4214 -0.36233,0.93706 -0.2207,1.17643 -0.69544,1.05449 -1.02751,-0.26392 l -0.25337,-1.00596 -2.12788,0.17176 c -1.17033,0.0945 -2.84225,0.30043 -3.71537,0.45769 -0.87313,0.15726 -2.12841,0.29267 -2.78953,0.30091 l -1.20202,0.015 -0.95326,2.67005 c -3.26151,9.13539 -4.42193,14.22051 -4.43951,19.45457 -0.009,2.7457 0.9787,9.96065 1.95861,14.30402 0.82254,3.64582 0.84573,2.28954 0.042,-2.45692 -0.35025,-2.06844 -0.8454,-5.78485 -1.10034,-8.25871 -0.51089,-4.9574 -0.39772,-7.10474 0.36667,-6.95747 0.37776,0.0728 0.44999,0.48205 0.48146,2.7278 0.0385,2.74945 0.0544,2.90933 0.75931,7.66926 0.23707,1.60073 0.52869,3.64164 0.64804,4.53536 0.11935,0.89372 0.35422,1.84622 0.52193,2.11666 0.25171,0.40591 0.28075,0.30703 0.16638,-0.56661 -0.44063,-3.36579 -0.65924,-5.63164 -0.81048,-8.40052 -0.1659,-3.03733 -0.157,-3.10885 0.38678,-3.10885 0.30612,0 0.59979,0.14883 0.6526,0.33073 0.0994,0.34221 0.34612,2.09219 1.87477,13.29531 0.4964,3.63802 1.01598,6.97177 1.15463,7.40833 0.23422,0.73751 0.25356,0.70002 0.27295,-0.52916 0.0115,-0.72761 -0.15208,-2.45401 -0.36346,-3.83646 -0.21138,-1.38245 -0.51804,-4.29948 -0.68147,-6.48229 -0.18875,-2.52102 -0.44945,-4.28301 -0.71465,-4.83023 -0.46854,-0.96679 -0.4892,-0.91678 0.59357,-1.43686 0.55969,-0.26883 1.14483,-0.32354 1.98437,-0.18555 2.21478,0.36405 2.91042,0.29372 2.91042,-0.29424 0,-0.29398 0.17639,-0.52917 0.39687,-0.52917 0.21828,0 0.39688,0.10245 0.39688,0.22767 0,0.12521 0.31085,0.68572 0.69078,1.24558 0.52324,0.77104 0.62534,1.1227 0.42098,1.44994 -0.19449,0.31142 -0.0169,1.71789 0.6361,5.03827 0.49825,2.53344 1.08463,5.55875 1.30307,6.72292 0.78296,4.17269 1.49526,6.74687 1.86692,6.74687 0.27459,0 0.3012,-0.15655 0.11143,-0.65567 z m -8.45305,-12.66756 c -0.15603,-2.16179 -0.35592,-4.0474 -0.4442,-4.19024 -0.44298,-0.71676 -0.5133,0.51493 -0.20684,3.62285 0.18654,1.89177 0.34625,4.23352 0.3549,5.20388 0.009,0.97037 0.10504,1.9824 0.21418,2.24896 0.34126,0.8335 0.38343,-2.70852 0.082,-6.88545 z m 12.021,-2.96471 c -0.1683,-2.11482 -0.45523,-3.05475 -0.82089,-2.68909 -0.20605,0.20605 0.32982,8.28694 0.63556,9.58433 0.2601,1.10372 0.40195,-4.17342 0.18533,-6.89524 z m 5.48781,1.80348 c -0.1152,-1.10168 -0.59129,-1.34259 -0.59129,-0.29919 0,0.51172 0.50053,1.69274 0.64037,1.511 0.0376,-0.0488 0.0155,-0.59416 -0.0491,-1.21181 z m -15.22722,-3.55681 c -0.0845,-0.21107 -0.14716,-0.14837 -0.15985,0.15985 -0.0115,0.27892 0.051,0.43519 0.13896,0.34727 0.0879,-0.0879 0.0973,-0.31612 0.0209,-0.50712 z m 30.40537,-0.88876 c 0.093,-0.37057 0.0888,-0.75408 -0.009,-0.85223 -0.2299,-0.2299 -0.66955,0.46267 -0.6748,1.06299 -0.006,0.70556 0.49274,0.55186 0.68414,-0.21076 z m -44.21215,-5.0809 c 0,-4.56257 -0.009,-4.63983 -0.31412,-2.71198 -0.3887,2.45548 -0.43341,5.82458 -0.0893,6.72965 0.14191,0.37327 0.29074,0.67868 0.33072,0.67868 0.04,0 0.0727,-2.11336 0.0727,-4.69635 z m 28.69798,3.39083 c 0.31174,-0.58249 0.37848,-5.04448 0.0755,-5.04448 -0.10914,0 -0.19844,0.88338 -0.19844,1.96306 0,1.67162 -0.0884,2.05714 -0.59531,2.59674 -0.73115,0.77827 -0.74767,0.99645 -0.0755,0.99645 0.28592,0 0.64311,-0.2303 0.79375,-0.51177 z m -1.43629,-1.40646 c -0.07,-0.76398 -0.1954,-2.52015 -0.27862,-3.9026 -0.2156,-3.58143 -2.60851,-16.40417 -3.06126,-16.40417 -0.39935,0 -0.54482,1.0933 -0.37944,2.85188 0.34048,3.6206 0.94218,8.45633 1.31622,10.57807 0.21187,1.20183 0.46777,3.38387 0.56868,4.84897 0.19062,2.76762 0.46599,3.41691 1.44915,3.41691 0.45812,0 0.49905,-0.14756 0.38527,-1.38906 z m 12.69039,0.33073 c 0.0899,-0.14552 0.0374,-0.26458 -0.11667,-0.26458 -0.15411,0 -0.2802,0.11906 -0.2802,0.26458 0,0.14552 0.0525,0.26458 0.11667,0.26458 0.0642,0 0.19027,-0.11906 0.2802,-0.26458 z m -15.71649,-1.74733 c -0.13714,-0.71246 -0.39501,-2.22067 -0.57305,-3.35159 -0.17805,-1.13092 -0.36664,-2.0133 -0.4191,-1.96083 -0.16819,0.16818 0.44913,5.47031 0.71977,6.18214 0.4006,1.05369 0.55049,0.57511 0.27238,-0.86972 z m -0.6986,-20.27923 c -0.1019,-0.47294 -0.4153,-1.27662 -0.69645,-1.78594 -0.53005,-0.96023 -0.51854,-0.73627 0.0714,1.38906 0.39026,1.40597 0.91412,1.73859 0.62505,0.39688 z m -7.79428,-6.28386 c 0,-0.14552 0.13394,-0.26458 0.29764,-0.26458 0.34113,0 2.98804,-1.09446 4.69338,-1.94065 1.57872,-0.78335 3.4723,-2.47434 2.94648,-2.63122 -0.21828,-0.0651 -0.75407,-0.22635 -1.19063,-0.35828 -0.51428,-0.15542 -0.82269,-0.44129 -0.87595,-0.81196 -0.11792,-0.82066 0.64053,-1.13568 2.07028,-0.85989 1.91,0.36843 2.26587,0.31068 2.59966,-0.42191 0.48427,-1.06286 0.3907,-1.21784 -0.62075,-1.02809 -1.48659,0.27888 -3.24947,-0.0858 -3.44866,-0.7134 -0.0934,-0.29419 -0.11139,-0.59327 -0.04,-0.66463 0.0713,-0.0714 1.12755,-0.27727 2.34711,-0.45758 1.21955,-0.18032 2.36266,-0.41764 2.54025,-0.5274 0.4585,-0.28337 0.40974,-3.25904 -0.0768,-4.68525 -1.08231,-3.1728 -4.96015,-6.39587 -8.95361,-7.44179 -1.21476,-0.31816 -1.30913,-0.3045 -1.76221,0.25503 -0.71479,0.88273 -1.48422,0.74906 -1.36197,-0.2366 0.0307,-0.2474 -1.96695,-0.51984 -2.45065,-0.33423 -0.54425,0.20885 -1.38995,2.11908 -2.02668,4.57778 -0.35455,1.36909 -0.50772,2.86005 -0.50772,4.94216 v 2.98161 l 1.4206,0.41298 c 0.78133,0.22714 1.56349,0.58516 1.73815,0.79561 0.5098,0.61427 -0.0912,1.37274 -1.50208,1.89558 -0.69289,0.25677 -1.29695,0.49281 -1.34236,0.52452 -0.0982,0.0686 0.62084,3.5559 1.0053,4.87553 0.42796,1.46895 0.64628,1.64889 2.42522,1.99897 2.18092,0.42918 2.07601,0.42324 2.07601,0.11769 z m 0.28378,-10.22213 c -0.96304,-1.22431 -0.61607,-5.61839 0.49801,-6.30693 0.63172,-0.39043 1.63028,0.13405 2.01689,1.05934 0.75277,1.80162 0.45312,5.09034 -0.52319,5.74224 -0.59428,0.39681 -1.45951,0.18192 -1.99171,-0.49465 z m -5.04628,9.34901 c 0,-0.18918 -0.11293,-0.45707 -0.25094,-0.59531 -0.38649,-0.38714 -1.07198,-3.2739 -1.07198,-4.5144 0,-0.97142 -0.0904,-1.141 -0.7276,-1.36562 -0.40019,-0.14106 -1.02423,-0.49853 -1.38677,-0.79439 -0.64616,-0.52732 -0.64944,-0.54867 -0.16644,-1.08237 0.27099,-0.29945 0.90482,-0.68045 1.4085,-0.84668 0.83342,-0.27506 0.89598,-0.36518 0.69561,-1.00215 -0.1211,-0.38495 -0.2078,-2.12866 -0.19268,-3.87491 0.0247,-2.84659 0.1119,-3.40706 0.84341,-5.41841 0.44874,-1.23387 0.77177,-2.28753 0.71783,-2.34147 -0.18871,-0.18871 -1.96806,0.52203 -2.91405,1.164 -0.52496,0.35625 -1.41227,0.88127 -1.9718,1.16672 -0.55953,0.28546 -1.36506,0.94087 -1.79007,1.45648 -1.02796,1.24709 -2.90316,5.08339 -3.25737,6.66394 -0.41511,1.8523 -0.0752,4.44265 0.70447,5.36929 0.34574,0.4109 0.62863,0.88667 0.62863,1.05727 0,1.2405 3.23574,3.56329 6.47174,4.64577 2.22711,0.745 2.25951,0.74948 2.25951,0.31224 z m -6.55575,-7.79198 c 0.0324,-0.10914 -0.17293,-0.54572 -0.45622,-0.97017 -0.65636,-0.98346 -0.73387,-4.3687 -0.12772,-5.57827 0.48153,-0.96089 1.3098,-1.13778 1.96055,-0.41871 0.62112,0.68633 1.12516,4.59261 0.72469,5.61629 -0.28252,0.72219 -2.29933,2.01873 -2.1013,1.35086 z m 19.70107,-15.197 c -0.0845,-0.21107 -0.14716,-0.14838 -0.15985,0.15985 -0.0115,0.27891 0.051,0.43518 0.13896,0.34726 0.0879,-0.0879 0.0973,-0.31612 0.0209,-0.50711 z m -16.58491,-0.59624 c 0,-0.0642 -0.11906,-0.19026 -0.26458,-0.2802 -0.14552,-0.0899 -0.26458,-0.0374 -0.26458,0.11668 0,0.15411 0.11906,0.2802 0.26458,0.2802 0.14552,0 0.26458,-0.0525 0.26458,-0.11668 z m -11.04635,76.57302 c -0.34985,-0.14063 -0.59531,-0.4662 -0.59531,-0.78961 0,-0.50699 0.12999,-0.54411 1.65099,-0.47154 1.29923,0.062 1.66908,0.17382 1.73593,0.52489 0.0611,0.32078 -0.19836,0.5248 -0.92338,0.72613 -1.1634,0.32306 -1.09066,0.32267 -1.86823,0.0101 z m 42.8625,-1.5014 c -0.73696,-0.14194 -0.76399,-0.49814 -0.0661,-0.87161 0.54906,-0.29385 1.5875,0.0399 1.5875,0.51017 0,0.19086 -0.74427,0.62326 -0.88153,0.51213 -0.0245,-0.0198 -0.3124,-0.0876 -0.63982,-0.15069 z"
       style="fill:#65c0b1;stroke-width:0;stroke-dasharray:none"
       id="path1" />
  </g>
</svg>
