<?xml version="1.0" encoding="UTF-8" standalone="no"?>
<!-- Created with Inkscape (http://www.inkscape.org/) -->

<svg
   width="90.871552mm"
   height="68.423355mm"
   viewBox="0 0 90.871552 68.423355"
   version="1.1"
   id="svg1"
   xmlns="http://www.w3.org/2000/svg"
   xmlns:svg="http://www.w3.org/2000/svg">
  <defs
     id="defs1" />
  <g
     id="layer1"
     transform="translate(-59.634436,-114.20572)">
    <path
       d="m 104.25238,182.487 c -1.41634,-0.22308 -1.77661,-0.35768 -2.39651,-0.89531 -0.54514,-0.4728 -0.82197,-0.52577 -1.83473,-0.35105 -1.34655,0.23231 -4.85813,0.27615 -5.74997,0.0718 -1.24824,-0.28603 -0.77752,-0.43176 1.9715,-0.61038 3.44845,-0.22406 4.93482,-0.51161 4.21856,-0.81612 -0.62057,-0.26382 -4.34045,0.0382 -6.39531,0.51928 -1.72859,0.40468 -6.65748,0.93701 -8.66511,0.93585 -0.8569,-4.9e-4 -1.25677,-0.11058 -1.25677,-0.34601 0,-0.31727 2.06089,-0.78724 5.02219,-1.14528 0.51201,-0.0619 1.64531,-0.23887 2.51844,-0.39324 2.22604,-0.39357 6.74336,-0.73837 7.57468,-0.57817 0.9309,0.1794 1.24959,-0.38181 0.34565,-0.60868 -0.38514,-0.0967 -1.66993,-0.0871 -2.85509,0.0214 -2.85589,0.26125 -3.33451,0.31544 -4.27149,0.48362 -0.74438,0.1336 -2.63629,0.38997 -4.11209,0.55721 -0.35773,0.0405 -0.88854,0.14894 -1.17958,0.24089 -0.52686,0.16646 -7.98804,0.77726 -8.99584,0.73645 -0.29104,-0.0118 -0.84703,-0.0216 -1.23554,-0.0217 -0.43546,-1.8e-4 -0.90318,-0.25052 -1.21957,-0.65273 -0.45298,-0.57587 -0.69611,-0.64604 -2.07176,-0.5979 -1.40034,0.049 -1.55855,8.2e-4 -1.55855,-0.47463 0,-0.45182 0.20305,-0.54086 1.38906,-0.60914 0.76399,-0.044 1.38907,-0.13018 1.38907,-0.19155 0,-0.0614 -0.37003,-1.03741 -0.82229,-2.16899 -1.62074,-4.05514 -1.82761,-8.05558 -0.47071,-9.10217 1.4558,-1.12288 2.94278,-0.93712 4.58018,0.57219 1.11884,1.03131 1.12834,1.03426 2.55594,0.7946 2.78819,-0.46807 8.36583,-1.64402 12.54543,-2.64498 2.32833,-0.55761 4.7903,-1.09195 5.47104,-1.18744 1.22579,-0.17193 1.24032,-0.18575 1.50802,-1.434 0.25395,-1.18411 0.21532,-2.70614 -0.12075,-4.75786 l -0.14506,-0.8856 -2.43058,0.11239 c -4.33997,0.20068 -9.60355,-0.49203 -13.77832,-1.81329 -4.07742,-1.29044 -9.17479,-4.31313 -12.14454,-7.20159 l -1.26726,-1.23257 h -2.2175 c -2.39871,0 -3.08834,-0.29596 -4.21929,-1.81074 -0.81595,-1.09287 -0.91627,-3.97664 -0.18801,-5.40415 0.30404,-0.59597 0.67357,-1.15822 0.82117,-1.24944 0.54019,-0.33386 0.22835,-0.80827 -0.86265,-1.31236 -1.47444,-0.68126 -3.4768,-2.71123 -3.88028,-3.93379 -0.2771,-0.83962 -0.25437,-1.11638 0.16161,-1.96766 0.44442,-0.9095 0.58521,-0.99714 1.71939,-1.07038 2.99581,-0.19344 5.87484,1.24274 17.1491,8.55468 2.7607,1.79046 6.44708,3.76628 7.81766,4.19013 0.42578,0.13166 0.60026,-4e-5 0.83941,-0.63364 0.19724,-0.52255 0.58927,-0.90003 1.13073,-1.08878 0.68318,-0.23816 0.81464,-0.41135 0.74809,-0.98557 -0.0762,-0.65751 -0.16989,-0.70031 -1.66823,-0.76212 -2.76258,-0.11396 -3.30729,-0.2752 -3.30729,-0.97895 0,-0.78097 1.07959,-1.20452 3.0702,-1.20452 h 1.40374 l 0.14918,-0.99219 c 0.0821,-0.5457 0.32689,-1.82562 0.5441,-2.84427 0.22267,-1.04428 0.38803,-3.12149 0.37914,-4.7625 -0.0175,-3.22544 0.37049,-6.49649 0.98536,-8.30753 0.46498,-1.36958 1.87637,-3.19009 2.47859,-3.19708 0.69041,-0.008 3.67851,2.26193 4.93668,3.75018 0.65302,0.77244 1.28891,1.51201 1.41309,1.6435 0.13333,0.14119 0.69122,0.0648 1.36253,-0.18669 1.57034,-0.58817 4.58102,-1.07009 5.51637,-0.88302 0.70437,0.14087 0.82867,0.0519 1.34436,-0.96228 0.97509,-1.91766 2.57425,-4.1057 3.53793,-4.84073 0.50851,-0.38786 0.92456,-0.8824 0.92456,-1.09898 0,-0.27335 0.1416,-0.3338 0.46302,-0.19765 0.25466,0.10787 0.9627,0.27937 1.57342,0.3811 0.61072,0.10174 1.28565,0.33042 1.49984,0.50818 1.10767,0.91928 4.61681,8.01611 5.70371,11.53508 0.28547,0.92423 0.66913,3.10761 0.85259,4.85195 l 0.33355,3.17153 1.6406,0.17569 c 0.90233,0.0966 1.86043,0.34604 2.12912,0.55424 0.47373,0.36708 0.47297,0.39057 -0.0251,0.77543 -0.31327,0.24207 -1.08726,0.39845 -1.98438,0.40092 -0.80893,0.002 -1.61888,0.0981 -1.79988,0.21304 -0.181,0.11495 -0.44382,0.7382 -0.58404,1.38501 -0.14023,0.64682 -0.32799,1.47491 -0.41724,1.84021 -0.15439,0.63191 -0.0723,0.68735 1.69016,1.14137 1.93256,0.49784 2.58341,0.95453 2.32395,1.63066 -0.18452,0.48085 -1.00299,0.50369 -3.24526,0.0905 l -1.68088,-0.30971 -1.56089,1.43419 c -0.8585,0.78881 -1.57435,1.54183 -1.59078,1.6734 -0.0164,0.13156 0.42578,0.62923 0.98271,1.10594 1.68632,1.44343 6.34743,8.27067 7.65447,11.21169 0.57185,1.28675 2.51022,6.47347 2.89628,7.74993 0.13909,0.45986 0.87207,0.66414 0.87207,0.24304 0,-0.12099 0.84626,-0.68387 1.88057,-1.25084 2.06627,-1.13265 3.71696,-2.77568 5.6155,-5.58944 2.74655,-4.07057 3.27533,-4.72893 4.50081,-5.60365 3.02511,-2.15926 6.89609,-0.61086 8.11737,3.24696 0.44221,1.39685 0.17349,3.98167 -0.68052,6.54604 -0.74643,2.24131 -1.28169,3.13879 -3.48768,5.84784 -1.94113,2.38378 -5.76466,5.22516 -7.03131,5.22516 -0.20172,0 -0.72207,0.17725 -1.15633,0.39388 -0.43425,0.21664 -1.97059,0.48453 -3.41408,0.59531 -2.34307,0.17983 -2.63265,0.25818 -2.70025,0.7306 -0.074,0.51726 0.0926,0.53054 7.40833,0.5901 4.11623,0.0335 7.57335,0.0633 7.68249,0.0661 0.10914,0.003 0.19844,0.24334 0.19844,0.53438 0,0.29105 -0.0893,0.5424 -0.19844,0.55856 -0.10914,0.0162 -1.20047,0.0644 -2.42518,0.10729 -1.22471,0.0429 -2.8553,0.15644 -3.62353,0.25243 -0.76822,0.096 -1.96884,0.21918 -2.66804,0.27377 -4.40293,0.34378 -7.37223,0.71794 -7.67202,0.96674 -0.57724,0.47907 -0.39495,0.82125 0.33932,0.63696 0.5289,-0.13274 11.08985,-0.91025 12.74216,-0.93809 0.1819,-0.003 0.3289,0.14326 0.32668,0.32516 -0.0105,0.85883 -0.46246,0.99109 -3.84719,1.12586 -1.88364,0.075 -6.69902,0.30715 -10.70085,0.51587 -4.00182,0.20873 -7.69276,0.36943 -8.20208,0.35711 -0.50932,-0.0123 -1.96439,0.0712 -3.23348,0.18569 -1.61561,0.1457 -2.41613,0.11788 -2.66996,-0.0928 -0.2698,-0.22392 -1.2699,-0.22609 -3.91027,-0.009 -1.95126,0.1608 -3.72634,0.35536 -3.94462,0.43237 -0.21828,0.077 -0.71249,0.11518 -1.09824,0.0849 -0.38576,-0.0303 -0.77974,0.0716 -0.87551,0.22661 -0.0958,0.15497 -0.25642,0.26556 -0.35697,0.24574 -0.10055,-0.0198 -0.48048,-0.0829 -0.84428,-0.14022 z m 18.90426,-2.29474 c 0.45334,-0.33149 0.4551,-0.36563 0.0273,-0.52979 -0.42082,-0.16148 -3.32115,0.51148 -3.32115,0.7706 0,0.28412 2.86212,0.0749 3.29385,-0.24081 z m -17.66878,-1.76234 c 0.40215,-1.54739 0.42898,-4.36903 0.0584,-6.13854 -0.33821,-1.61475 -1.23891,-3.38646 -1.7216,-3.38646 -1.12571,0 -1.28704,7.44166 -0.21685,10.00298 0.28732,0.68765 0.50203,0.86431 0.96984,0.79791 0.46482,-0.066 0.67086,-0.35478 0.91026,-1.27589 z m 28.25233,-0.55704 c 0.44634,-0.42033 -1.04969,-0.25789 -1.58985,0.17263 -0.48228,0.38439 -0.45714,0.39882 0.41245,0.23671 0.50933,-0.095 1.03916,-0.27915 1.1774,-0.40934 z m -22.24624,-0.56744 c 0.20543,-0.76656 0.17175,-4.70564 -0.0549,-6.41615 -0.15555,-1.17421 -0.24713,-1.32291 -0.81466,-1.32291 -0.35168,0 -0.68902,0.14882 -0.74966,0.33073 -0.0606,0.1819 0.0621,0.33072 0.27272,0.33072 0.49013,0 0.71947,1.61423 0.71947,5.06402 0,2.4638 0.27213,3.33775 0.62699,2.01359 z m 24.30999,0.40859 c -0.32742,-0.0631 -0.8632,-0.0631 -1.19063,0 -0.32742,0.0631 -0.0595,0.11466 0.59532,0.11466 0.65484,0 0.92273,-0.0516 0.59531,-0.11466 z m -8.31476,-0.81474 c 0.1102,-0.77681 -3.31053,-9.40835 -4.15579,-10.48634 -0.1234,-0.15739 -0.53094,-1.06006 -0.90563,-2.00595 -0.37469,-0.94588 -1.17966,-2.79135 -1.78882,-4.10104 -0.60916,-1.30969 -1.67363,-3.69094 -2.36547,-5.29167 -0.69185,-1.60073 -1.91873,-3.95725 -2.72639,-5.23672 -0.80767,-1.27947 -1.52138,-2.47009 -1.58602,-2.64583 -0.0883,-0.24003 -0.19768,-0.24433 -0.43963,-0.0173 -0.25179,0.23628 -0.18882,0.71602 0.28852,2.19812 0.51565,1.60103 0.55227,1.93192 0.2355,2.12769 -0.55825,0.34502 -0.76183,0.11917 -1.74859,-1.93987 -0.63668,-1.32852 -0.90073,-2.25011 -0.90073,-3.14374 0,-1.33008 0.40133,-1.65899 1.05833,-0.86736 0.53453,0.64407 0.99673,0.45919 1.32292,-0.52916 0.16809,-0.50933 0.47464,-0.92605 0.68121,-0.92605 0.20658,0 0.86363,-0.44091 1.46012,-0.9798 0.95374,-0.86165 1.02563,-1.00298 0.59608,-1.17203 -0.26865,-0.10572 -0.92175,-0.20059 -1.45133,-0.21082 -1.15673,-0.0223 -2.24264,-0.80019 -1.99997,-1.43259 0.13555,-0.35322 0.54815,-0.43809 2.12993,-0.43809 2.1323,0 2.27522,-0.11723 2.28451,-1.87385 0.004,-0.6667 -0.0316,-0.68031 -1.45119,-0.56258 -2.89316,0.23992 -2.76876,-1.13649 0.17742,-1.96315 0.85598,-0.24017 1.61965,-0.53914 1.69705,-0.66438 0.0774,-0.12524 0.49089,-0.22771 0.91887,-0.22771 0.88594,0 0.93116,-0.19646 0.47536,-2.06564 -0.35192,-1.44322 -0.65287,-1.90183 -1.25098,-1.90638 -0.37229,-0.003 -1.62125,-1.54564 -1.62125,-2.00269 0,-0.0887 -0.23475,-0.49098 -0.52166,-0.89391 -0.36868,-0.51776 -0.82321,-0.77305 -1.54996,-0.87053 -0.56619,-0.0759 -1.65301,-0.56765 -2.41844,-1.09417 -1.7175,-1.18144 -2.187,-1.1984 -2.67209,-0.0966 -0.66781,1.5169 -2.09827,1.1793 -2.09827,-0.49521 v -0.89365 h -1.49585 c -1.41238,0 -1.55182,0.0606 -2.49884,1.08644 -0.58347,0.63201 -1.40181,2.03916 -1.95649,3.36421 -0.83928,2.00493 -0.97266,2.63541 -1.1135,5.26356 l -0.16001,2.98579 h 0.73738 c 1.24725,0 2.7623,0.57585 2.93341,1.11495 0.20117,0.63385 -0.73093,2.03611 -1.87414,2.81944 -1.0085,0.69104 -0.99338,0.85832 0.36161,4.00033 1.02294,2.37205 1.3642,2.68943 3.24809,3.02079 0.82922,0.14585 0.97974,0.0925 1.10649,-0.39218 0.1442,-0.55144 0.15807,-0.55267 0.81369,-0.0721 0.5081,0.37247 0.78702,0.99318 1.17082,2.60561 0.53639,2.25349 0.49962,2.85251 -0.16723,2.72409 -0.25836,-0.0498 -0.60599,-0.73005 -0.91926,-1.79893 -0.27708,-0.9454 -0.53638,-1.75351 -0.57621,-1.79581 -0.12249,-0.13004 -1.99121,1.04266 -1.99121,1.24956 0,0.1069 0.0816,0.27595 0.18133,0.37568 0.38279,0.38278 0.84923,2.15714 0.62581,2.38056 -0.36352,0.36352 -0.79273,-0.0457 -1.25213,-1.19388 -0.49884,-1.24672 -1.20574,-1.59044 -3.11229,-1.5133 -0.73966,0.0299 -1.60325,-0.0839 -1.91909,-0.25293 -1.29135,-0.69111 -1.44037,-0.48208 -1.2428,1.74319 0.10013,1.12779 0.28871,2.12018 0.41906,2.20532 0.13035,0.0851 0.79604,0.07 1.4793,-0.0337 0.68326,-0.10369 1.37588,-0.13727 1.53915,-0.0746 0.80664,0.30954 1.70351,3.19541 1.8768,6.03898 0.26013,4.26855 -0.65103,5.91885 -3.58675,6.49642 -0.89972,0.17701 -1.68631,0.40347 -1.74798,0.50325 -0.0988,0.15987 0.098,2.6988 0.54942,7.08939 0.0988,0.96055 0.25939,1.38906 0.52067,1.38906 0.28828,0 0.37784,-0.40388 0.37784,-1.70402 0,-1.69736 0.74801,-4.30709 1.87062,-6.52633 0.9094,-1.79777 2.56687,-1.95259 5.39878,-0.50429 1.38781,0.70975 1.57825,0.74562 2.0827,0.39228 0.316,-0.22133 1.12835,-0.3847 1.88541,-0.37916 1.32801,0.01 4.35662,0.53534 5.2328,0.90819 0.73792,0.31401 0.57553,-0.537 -0.46302,-2.42641 -0.50932,-0.9266 -0.92604,-1.83869 -0.92604,-2.02687 0,-0.18819 -0.28444,-1.04729 -0.63209,-1.90913 -1.02917,-2.55134 -1.56928,-5.14944 -1.24659,-5.99645 0.25443,-0.66781 0.33122,-0.7003 0.96866,-0.40987 0.45438,0.20703 1.01615,0.95642 1.63459,2.18052 1.26466,2.5032 3.95563,8.60483 4.72116,10.70498 0.60062,1.64773 1.34551,2.64678 3.30897,4.43798 0.52222,0.47641 1.15688,1.37472 1.41035,1.99624 1.10777,2.71633 1.54698,3.40679 2.11543,3.32556 0.34237,-0.0489 0.58436,-0.30832 0.63757,-0.68343 z m -27.14126,-23.78583 c -0.39889,-0.70095 -0.43139,-1.67104 -0.056,-1.67104 0.3819,0 0.57595,0.6155 0.47259,1.499 -0.0863,0.73806 -0.0929,0.74079 -0.4166,0.17204 z m 10.1683,-0.54656 c -0.0646,-0.10914 -0.20082,-0.73422 -0.3028,-1.38907 -0.10199,-0.65484 -0.42264,-1.69384 -0.71258,-2.30889 -0.28994,-0.61505 -0.48649,-1.32942 -0.43679,-1.5875 0.13276,-0.68937 0.98832,-0.57135 1.39352,0.19223 0.59439,1.12009 1.53463,4.4711 1.37283,4.89274 -0.15738,0.41011 -1.10468,0.55463 -1.31418,0.20049 z m -3.28724,-13.70207 c -0.85651,-0.59992 -1.3891,-2.7499 -1.3891,-5.60753 0,-2.56234 0.34651,-3.7633 1.2282,-4.25672 1.16813,-0.65372 2.085,0.66613 2.55009,3.67089 0.44246,2.85848 -0.39461,6.60011 -1.47656,6.60011 -0.18255,0 -0.59323,-0.18303 -0.91263,-0.40675 z m -25.89372,37.8453 c -0.0764,-1.31865 -0.70167,-5.30892 -0.85601,-5.46246 -0.0944,-0.0939 -0.43956,-0.068 -0.76699,0.0576 -0.52632,0.20194 -0.59531,0.41336 -0.59531,1.82444 0,1.69659 -0.36912,2.13325 -0.66491,0.78657 -0.23577,-1.07345 -1.97287,-4.82891 -2.34308,-5.06553 -0.51087,-0.32652 -0.72824,0.5383 -0.42835,1.70424 0.46951,1.82544 1.62638,5.30176 2.0304,6.10125 0.35657,0.7056 0.44994,0.73626 2.0144,0.66146 1.45022,-0.0693 1.63694,-0.1398 1.60985,-0.60759 z m 33.37999,-0.19844 c -0.0795,-0.47294 -0.25568,-2.01957 -0.39163,-3.43695 -0.2512,-2.619 -0.38201,-3.11149 -0.82644,-3.11149 -0.29164,0 -0.31655,1.61241 -0.0771,4.98644 0.16546,2.33097 0.19571,2.42189 0.80574,2.42189 0.56833,0 0.6189,-0.0889 0.48939,-0.85989 z m 1.8598,-1.45521 c -0.22158,-2.92592 -0.38686,-3.77031 -0.73799,-3.77031 -0.18128,0 -0.21893,0.44173 -0.10712,1.25677 0.0948,0.69122 0.24717,2.06044 0.33854,3.04271 0.0914,0.98226 0.28218,1.78593 0.42402,1.78593 0.16116,0 0.19213,-0.86826 0.0826,-2.3151 z m 2.03427,-0.13229 c -0.0765,-1.12779 -0.24244,-2.05052 -0.36882,-2.05052 -0.26707,0 -0.30775,2.45446 -0.0611,3.68763 0.30082,1.50408 0.57273,0.46871 0.42994,-1.63711 z m -35.25903,1.70025 c 0,-0.42632 -0.82405,-5.72136 -0.90263,-5.79993 -0.044,-0.044 -0.27342,-0.006 -0.50987,0.085 -0.33553,0.12876 -0.36962,0.27761 -0.15529,0.67808 0.15103,0.28221 0.25421,0.7168 0.22927,0.96574 -0.0249,0.24895 -0.0234,0.51216 0.003,0.58492 0.0268,0.0728 0.0896,0.43799 0.13957,0.81163 0.17567,1.31333 0.68953,2.89254 0.94121,2.89254 0.13991,0 0.25438,-0.0981 0.25438,-0.21798 z m 1.90495,-3.15546 c -0.31142,-2.13855 -0.53585,-2.97656 -0.79715,-2.97656 -0.27874,0 -0.32836,0.2936 -0.2124,1.25677 0.0832,0.69122 0.22814,1.97114 0.32206,2.84427 0.17238,1.60263 0.54906,2.44723 0.91949,2.06173 0.1108,-0.1153 0.006,-1.5491 -0.232,-3.18621 z m 2.77249,2.8235 c 0.20409,-0.20408 0.19112,-0.5997 -0.0455,-1.38906 -0.18199,-0.60704 -0.47594,-1.96691 -0.65322,-3.02194 -0.33613,-2.00027 -0.8037,-2.58379 -0.8037,-1.00299 0,0.91877 0.48094,4.74967 0.67399,5.36862 0.12673,0.4063 0.44983,0.42399 0.82845,0.0454 z m 2.09616,-0.70683 c -0.092,-0.40018 -0.30619,-1.948 -0.47599,-3.43959 -0.21757,-1.91113 -0.41168,-2.71198 -0.65734,-2.71198 -0.19757,0 -0.3486,0.29327 -0.3486,0.67693 0,0.99857 0.52149,4.35181 0.83083,5.34235 0.32923,1.05422 0.88919,1.16799 0.6511,0.13229 z m 2.48682,-0.0176 c 0,-0.26431 -0.11342,-1.12751 -0.25205,-1.91822 -0.13863,-0.79071 -0.30636,-2.19078 -0.37274,-3.11127 -0.13469,-1.86767 -0.32284,-2.24029 -0.80102,-1.58634 -0.23552,0.32209 -0.26862,1.04579 -0.121,2.64542 0.3723,4.03426 0.4691,4.45099 1.03386,4.45099 0.31927,0 0.51295,-0.18145 0.51295,-0.48058 z m 2.0185,-3.54772 c -0.0988,-2.07004 -0.28467,-3.8687 -0.413,-3.99703 -0.1347,-0.13471 -0.41909,0.0502 -0.67285,0.43749 -0.41216,0.62903 -0.40545,0.86833 0.10766,3.8412 0.30095,1.74371 0.54719,3.24051 0.54719,3.32622 0,0.0857 0.1374,0.15583 0.30533,0.15583 0.22483,0 0.25796,-0.99231 0.12567,-3.76371 z m 2.81695,3.56528 c 0.18931,-0.3606 -0.54807,-7.79085 -0.79796,-8.04075 -0.13466,-0.13465 -0.45576,-0.16389 -0.71355,-0.065 -0.37743,0.14484 -0.43761,0.37441 -0.30899,1.17875 0.0879,0.54938 0.28069,2.16898 0.42854,3.59912 0.14784,1.43013 0.33453,2.8086 0.41486,3.06326 0.14649,0.4644 0.78187,0.63645 0.9771,0.26459 z m 30.80207,-0.78872 c -0.0671,-0.25743 -0.12638,-0.11087 -0.13177,0.3257 -0.005,0.43656 0.0495,0.64718 0.12197,0.46805 0.0725,-0.17913 0.0769,-0.53632 0.01,-0.79375 z m 3.13118,-4.09355 c -0.64929,-2.76877 -0.6786,-2.8568 -0.95111,-2.8568 -0.13572,0 -0.24733,0.2679 -0.24803,0.59532 -0.002,0.70099 1.34168,4.50247 1.52581,4.31835 0.0694,-0.0694 -0.0776,-0.99495 -0.32667,-2.05687 z m 4.36607,1.97185 c 0.004,-0.10914 -0.20407,-1.53789 -0.46289,-3.175 -0.30901,-1.95464 -0.58416,-2.97656 -0.80143,-2.97656 -0.39725,0 -0.40286,0.15899 -0.0786,2.22728 0.13878,0.88505 0.32467,2.17472 0.41309,2.86595 0.10777,0.84245 0.28626,1.25677 0.54143,1.25677 0.20937,0 0.38412,-0.0893 0.38835,-0.19844 z m 2.52771,-0.7978 c 0.38084,-0.25844 -0.66801,-6.99326 -1.06694,-6.85105 -0.15281,0.0545 -0.25147,0.32434 -0.21924,0.59972 0.0322,0.27538 0.20299,1.84015 0.37949,3.47726 0.1765,1.63711 0.38826,2.97474 0.47058,2.97251 0.0823,-0.002 0.27857,-0.0915 0.43611,-0.19844 z m 3.02085,-2.37654 c 0,-0.38958 -0.26002,-2.29301 -0.57784,-4.22985 -0.95054,-5.79287 -1.56414,-3.68041 -0.76416,2.6308 0.33311,2.62797 0.39477,2.81432 0.85057,2.57038 0.29098,-0.15573 0.49143,-0.55192 0.49143,-0.97133 z m -9.06777,-1.58816 c -0.10548,-0.44097 -0.12035,-0.44097 -0.3123,0 -0.11085,0.25466 -0.11085,0.67138 0,0.92604 0.19195,0.44097 0.20682,0.44097 0.3123,0 0.0609,-0.25466 0.0609,-0.67138 0,-0.92604 z m 11.47579,-4.63465 c -0.30576,-2.10904 -0.55593,-4.38469 -0.55593,-5.05701 0,-1.30557 -0.32336,-1.57217 -0.80816,-0.66631 -0.36489,0.68179 -0.26005,1.96155 0.5457,6.66152 0.53909,3.14456 0.67651,3.59423 0.99967,3.27107 0.32315,-0.32315 0.29823,-0.90179 -0.18128,-4.20927 z m 2.14592,-2.20299 c -0.30458,-1.55536 -0.69286,-2.96002 -0.86285,-3.12145 -0.33596,-0.31904 -0.3272,-0.20104 0.27283,3.67524 0.43208,2.79129 0.48033,2.93762 0.84758,2.57038 0.21859,-0.21859 0.15108,-1.03746 -0.25756,-3.12417 z m 2.56813,-0.91558 c 0.32891,-1.53363 0.0338,-3.15157 -0.76887,-4.21522 -0.70334,-0.93204 -0.88856,-0.54335 -0.55548,1.16569 0.15824,0.8119 0.4152,2.13103 0.57104,2.9314 0.15584,0.80036 0.32457,1.4552 0.37495,1.4552 0.0504,0 0.22065,-0.60168 0.37836,-1.33707 z m -3.4179,-4.1025 c 0,-0.35521 -0.11906,-0.64584 -0.26458,-0.64584 -0.14552,0 -0.26459,0.36421 -0.26459,0.80936 0,0.47221 0.11022,0.74125 0.26459,0.64585 0.14552,-0.0899 0.26458,-0.45415 0.26458,-0.80937 z m -51.32917,-4.06981 c 0,-2.20906 0.24524,-3.07032 0.67586,-2.37356 0.1008,0.16308 0.24373,1.08776 0.31763,2.05483 0.17757,2.32387 0.38717,2.68436 1.56066,2.68436 h 0.94803 l -0.18748,-2.3151 c -0.10312,-1.27331 -0.28719,-2.41961 -0.40905,-2.54734 -0.21825,-0.22875 -2.39307,-0.89778 -3.71445,-1.14266 -1.0313,-0.19112 -1.20547,0.31995 -1.05093,3.08381 0.14693,2.62763 0.18794,2.6991 1.6613,2.89492 0.10914,0.0145 0.19843,-1.03816 0.19843,-2.33926 z m -2.64583,1.71979 c 0,-0.0642 -0.11906,-0.19026 -0.26458,-0.2802 -0.14552,-0.0899 -0.26459,-0.0374 -0.26459,0.11668 0,0.15411 0.11907,0.2802 0.26459,0.2802 0.14552,0 0.26458,-0.0525 0.26458,-0.11668 z m -1.64493,-3.26559 0.0749,-2.97906 -1.26549,-0.52347 c -0.69602,-0.2879 -1.48141,-0.64827 -1.74531,-0.80081 -0.2639,-0.15255 -1.79367,-0.93566 -3.3995,-1.74026 -1.60583,-0.80459 -3.89023,-2.18514 -5.07644,-3.06787 -1.18621,-0.88274 -2.82879,-1.92488 -3.65016,-2.31587 -0.82138,-0.39099 -2.13107,-1.27085 -2.91042,-1.95525 -0.79453,-0.69773 -2.69552,-1.8717 -4.32742,-2.67242 -3.51628,-1.72534 -4.10104,-1.91812 -4.10104,-1.352 0,0.55947 1.87538,1.90469 3.96875,2.84679 3.59123,1.61622 5.03084,2.37653 4.90016,2.58796 -0.0743,0.12027 -1.01992,0.54137 -2.10131,0.93577 -1.08138,0.39441 -2.21305,0.94711 -2.5148,1.22824 -0.74627,0.69526 -0.7216,1.70536 0.0467,1.91126 1.05281,0.28214 2.48827,0.17795 3.52684,-0.25599 0.82587,-0.34507 1.19643,-0.36743 2.01669,-0.12167 0.5527,0.16559 1.0049,0.36057 1.0049,0.43329 0,0.0727 -0.23812,0.59897 -0.52916,1.16946 -0.29104,0.57049 -0.52917,1.20214 -0.52917,1.40366 0,0.45217 0.99811,1.39059 1.23116,1.15754 0.0933,-0.0933 0.18184,-1.06478 0.19682,-2.15891 0.0562,-4.10642 1.10138,-1.36165 1.21119,3.18076 0.006,0.24133 3.12997,2.23778 3.50178,2.23778 0.0776,0 0.195,-1.30862 0.2609,-2.90805 0.0659,-1.59943 0.20672,-2.99496 0.31295,-3.10119 0.45836,-0.45836 0.6857,0.80025 0.68948,3.81712 0.004,3.02332 0.0404,3.25127 0.56687,3.53305 0.83833,0.44866 1.01598,-0.0495 1.02063,-2.86228 0.004,-2.42858 0.15841,-2.82094 0.80395,-2.04313 0.24873,0.29971 0.2894,1.06026 0.15724,2.94048 -0.19423,2.76311 -0.03,3.26984 1.05965,3.26984 0.60993,0 0.62906,-0.0643 0.62906,-2.11667 0,-1.63284 0.0842,-2.11667 0.36856,-2.11667 0.53202,0 0.68977,0.60263 0.68977,2.63508 0,1.18141 0.12177,1.89911 0.35507,2.09273 0.59385,0.49285 0.70326,0.0592 0.70326,-2.78753 0,-2.12634 0.0798,-2.73403 0.35919,-2.73403 0.38572,0 0.69915,2.0844 0.69915,4.64962 0,1.10694 0.0961,1.4227 0.46302,1.52076 1.19295,0.31887 1.25312,0.18612 1.33163,-2.93806 z m 1.64493,2.20726 c 0,-0.0642 -0.11906,-0.19026 -0.26458,-0.2802 -0.14552,-0.0899 -0.26459,-0.0374 -0.26459,0.11668 0,0.15411 0.11907,0.28019 0.26459,0.28019 0.14552,0 0.26458,-0.0525 0.26458,-0.11667 z m -0.0677,-2.64731 c 0.0355,-0.93752 -0.0538,-1.77774 -0.19844,-1.86716 -0.16488,-0.1019 -0.26307,0.53454 -0.26307,1.70511 0,2.33724 0.37406,2.46858 0.46151,0.16205 z m 11.44474,-2.62665 c 0,-0.0544 -0.2899,-0.61998 -0.64422,-1.25677 -0.35432,-0.63679 -0.84505,-1.96148 -1.0905,-2.94374 -0.43119,-1.72556 -0.47426,-1.78624 -1.274,-1.79474 -1.00101,-0.0106 -2.01836,-0.79629 -2.01836,-1.55867 0,-0.76133 1.05567,-2.31404 1.80618,-2.65659 0.53772,-0.24543 0.5879,-0.38924 0.39688,-1.1373 -0.12028,-0.47099 -0.1838,-1.8457 -0.14117,-3.0549 0.0805,-2.28425 0.88465,-5.0977 1.96562,-6.87734 0.29192,-0.4806 0.45383,-0.95075 0.3598,-1.04479 -0.24696,-0.24696 -3.50791,1.40942 -4.99126,2.53527 -1.67043,1.26786 -3.15454,3.62623 -4.02419,6.39479 -0.53048,1.6888 -0.66076,2.51256 -0.52305,3.30729 0.10086,0.58208 0.20139,1.43453 0.2234,1.89433 0.022,0.4598 0.26124,1.08044 0.53162,1.37921 0.27038,0.29876 0.4229,0.72222 0.33895,0.94102 -0.22945,0.59793 1.69578,2.86548 3.23921,3.81516 0.7395,0.45502 2.02975,1.05519 2.86722,1.3337 2.0472,0.68084 2.97787,0.90713 2.97787,0.72407 z m -7.71921,-8.37779 c -1.01788,-0.59389 -1.5129,-4.80451 -0.77152,-6.56244 0.67112,-1.59133 2.00609,-1.58154 2.8347,0.0208 0.54008,1.04439 0.63916,5.32125 0.14412,6.22099 -0.35081,0.63762 -1.40227,0.79036 -2.2073,0.32064 z m -2.78301,5.54859 c -0.88398,-1.50078 -1.26358,-1.7008 -2.47139,-1.30218 -0.58586,0.19335 -0.96883,0.44791 -0.85105,0.56569 0.23118,0.23118 3.23562,1.51839 3.58702,1.53681 0.11737,0.006 -0.002,-0.35399 -0.26458,-0.80032 z m 27.2194,-6.06767 c 0.31581,-1.17869 0.3433,-1.5875 0.10674,-1.5875 -0.67979,0 -1.18502,0.71374 -1.35784,1.91823 -0.16097,1.12186 -0.12632,1.25677 0.32271,1.25677 0.39117,0 0.59763,-0.35302 0.92839,-1.5875 z"
       style="fill:#ffffff;fill-opacity:1;stroke-width:0;stroke-dasharray:none"
       id="path1" />
  </g>
</svg>
