<?xml version="1.0" encoding="UTF-8" standalone="no"?>
<!-- Created with Inkscape (http://www.inkscape.org/) -->

<svg
   width="89.276466mm"
   height="46.248032mm"
   viewBox="0 0 89.276466 46.248032"
   version="1.1"
   id="svg1"
   xmlns="http://www.w3.org/2000/svg"
   xmlns:svg="http://www.w3.org/2000/svg">
  <defs
     id="defs1" />
  <g
     id="layer1"
     transform="translate(-60.479743,-125.24145)">
    <path
       d="m 80.860747,171.14054 c -0.56888,-0.21176 -1.41855,-0.67808 -1.88815,-1.03626 l -0.85382,-0.65124 -1.14499,0.5532 c -0.9917,0.47914 -1.65988,0.55623 -4.99102,0.57584 -2.80875,0.0165 -4.39789,-0.10415 -5.89222,-0.44747 -4.74415,-1.08996 -6.74502,-4.14021 -4.97204,-7.57969 0.78126,-1.5156 3.46067,-4.1097 4.65042,-4.50235 0.50194,-0.16566 0.91261,-0.39914 0.91261,-0.51886 0,-0.11973 -0.59975,-0.36156 -1.33277,-0.53741 -1.41846,-0.34028 -2.10682,-0.83323 -2.10682,-1.50875 0,-0.41409 0.28033,-0.41529 3.3073,-0.0142 0.29104,0.0386 0.50305,-0.0677 0.47114,-0.23623 -0.0319,-0.16849 0.10249,-0.94239 0.29865,-1.71979 0.19617,-0.77739 0.42746,-2.84904 0.51397,-4.60366 0.20057,-4.06789 0.97821,-7.88888 1.88818,-9.27766 0.23452,-0.35793 0.67217,-0.629 1.01554,-0.629 1.04606,0 3.15171,1.25577 5.1468,3.06946 1.7566,1.59688 2.00088,1.73567 2.77813,1.57839 0.46869,-0.0948 1.60777,-0.24151 2.53129,-0.32592 l 1.67911,-0.15348 1.22293,-1.62121 c 0.67261,-0.89166 1.96484,-2.36534 2.87162,-3.27484 1.45118,-1.45554 1.7705,-1.65365 2.66539,-1.65365 0.85868,0 1.25096,0.21588 2.52406,1.38906 1.1989,1.1048 1.74756,1.90346 2.68102,3.90261 0.6455,1.38245 1.37037,3.28745 1.6108,4.23333 0.24044,0.94589 0.53842,1.82433 0.66219,1.95209 0.12764,0.13177 1.00616,-0.21396 2.03001,-0.79887 2.560783,-1.46294 5.252923,-2.65043 7.086113,-3.12567 1.99489,-0.51715 5.70384,-0.52203 7.39258,-0.01 1.50353,0.45612 1.82594,0.30096 2.2888,-1.10153 0.4031,-1.22141 0.14105,-2.80928 -0.7822,-4.73954 -0.99328,-2.0767 -2.12341,-3.43233 -4.523,-5.42547 -2.47649,-2.05702 -2.90645,-2.68636 -2.90867,-4.2575 -0.001,-1.02956 0.12981,-1.35851 0.79122,-1.98277 4.00592,-3.78095 11.98969,0.4163 14.33932,7.5385 1.02703,3.11314 0.86379,8.34063 -0.36284,11.61909 -0.2935,0.78444 -0.48943,1.47045 -0.43541,1.52447 0.21797,0.21796 3.90652,1.8172 5.64201,2.4462 1.69363,0.61382 2.23688,0.6736 6.35,0.6988 l 4.49791,0.0276 2.11667,1.14654 c 2.45341,1.32895 3.57188,2.57166 3.57188,3.96866 0,0.76154 -0.1983,1.09957 -1.10031,1.87563 -0.60516,0.52066 -1.67405,1.5494 -2.3753,2.28607 -0.82478,0.86645 -1.92729,1.64546 -3.12224,2.20611 -1.01598,0.47668 -2.37638,1.33246 -3.02311,1.90174 -1.23032,1.08296 -1.75613,1.28366 -1.75613,0.6703 0,-0.36502 2.12891,-2.30346 3.51399,-3.19959 0.40472,-0.26186 0.688,-0.52396 0.6295,-0.58246 -0.14466,-0.14466 -1.40906,0.42064 -2.66635,1.19208 -0.57002,0.34976 -2.0583,1.04761 -3.30729,1.55078 -1.24899,0.50318 -2.64213,1.14397 -3.09587,1.42398 -0.87718,0.54133 -1.95315,0.67983 -1.95315,0.25142 0,-0.14173 0.86021,-0.86179 1.91158,-1.60014 l 1.91158,-1.34245 -1.18398,0.17912 c -1.60248,0.24242 -5.3378,1.84588 -7.22363,3.10089 -0.84796,0.56431 -1.62187,0.94431 -1.71979,0.84444 -0.0979,-0.0999 0.53534,-0.81599 1.40725,-1.59136 0.87192,-0.77538 1.51994,-1.47513 1.44006,-1.55501 -0.18718,-0.18718 -3.67466,1.50218 -5.47275,2.65103 -0.76399,0.48814 -1.38907,0.79472 -1.38907,0.68131 0,-0.11341 0.53579,-0.73204 1.19063,-1.37472 0.65484,-0.64268 1.19062,-1.26278 1.19062,-1.378 0,-0.34519 -0.85397,-0.23678 -1.30208,0.1653 -0.4901,0.43975 -5.12586,2.8043 -5.47252,2.79136 -0.13027,-0.005 0.35846,-0.55571 1.08606,-1.22409 l 1.32292,-1.21524 -2.39553,1.22409 c -1.31755,0.67324 -2.49824,1.22408 -2.62377,1.22408 -0.12553,0 0.23808,-0.41176 0.80803,-0.91503 l 1.03627,-0.91502 -1.05833,-0.002 c -0.58209,-8.8e-4 -1.77271,0.1779 -2.64584,0.39729 -0.87312,0.21938 -1.86235,0.43766 -2.19827,0.48506 -0.33593,0.0474 -0.93124,0.38028 -1.32292,0.73975 -2.59647,2.38294 -7.143243,3.80646 -14.531853,4.54967 -4.76014,0.47882 -6.59086,0.48166 -7.85212,0.0122 z m 7.11975,-2.63965 c 5.37477,-0.93043 7.24156,-1.43698 10.45104,-2.83585 4.044703,-1.76291 4.829733,-2.94071 3.836463,-5.75596 -0.49881,-1.41375 -0.50907,-2.61938 -0.0239,-2.80557 1.35788,-0.52107 3.44199,2.46148 3.30194,4.72538 -0.0536,0.86575 0.0176,1.10146 0.31061,1.02929 0.20904,-0.0515 1.51117,-0.43817 2.89362,-0.85928 2.38155,-0.72546 6.51119,-1.31304 9.78958,-1.39291 l 1.45521,-0.0354 -0.0998,-4.52764 c -0.0703,-3.18786 -0.011,-4.58253 0.20031,-4.71312 0.43881,-0.2712 0.50914,0.0961 0.88289,4.61055 0.33273,4.01893 0.35227,4.10285 0.97588,4.19097 l 0.63636,0.0899 -0.17888,-3.26493 c -0.0984,-1.79571 -0.31127,-3.95124 -0.47308,-4.79006 -0.24437,-1.26674 -0.40104,-1.55195 -0.92469,-1.68338 -0.34676,-0.087 -0.84147,-0.42648 -1.09936,-0.75433 -0.25789,-0.32785 -0.76202,-0.68567 -1.1203,-0.79514 -0.35827,-0.10948 -1.18719,-0.47184 -1.84203,-0.80524 -3.19283,-1.62557 -7.31553,-1.98081 -10.68349,-0.92056 -1.95693,0.61606 -5.66639,2.36173 -7.532353,3.54474 -0.93119,0.59036 -1.12082,0.83886 -0.99581,1.30497 0.0849,0.31666 0.15605,0.7841 0.15804,1.03876 0.002,0.31415 0.21228,0.46302 0.65262,0.46302 1.30698,0 2.532853,0.93425 2.114363,1.61138 -0.0818,0.13239 -0.737053,0.24071 -1.456073,0.24071 -1.23226,0 -1.3073,0.0396 -1.3073,0.68953 0,0.37924 -0.36887,1.15527 -0.81971,1.7245 l -0.81972,1.03498 0.8253,0.2877 c 0.91309,0.3183 1.425,1.03417 1.18561,1.65801 -0.20521,0.53479 -0.49554,0.60359 -4.07565,0.96589 -5.82602,0.58958 -10.87874,2.3598 -12.79746,4.48359 -1.06943,1.18374 -1.1045,1.29365 -0.62284,1.95236 0.31108,0.42542 0.40074,0.42955 1.12448,0.0518 0.77182,-0.40281 0.78806,-0.39764 0.87287,0.2777 0.0847,0.67479 0.11553,0.68466 1.5875,0.50909 0.82559,-0.0985 2.45358,-0.34394 3.61775,-0.54547 z m -11.70782,-0.55954 c 0.8763,-0.14485 0.99219,-0.25215 0.99219,-0.91868 0,-0.63563 -0.19824,-0.85389 -1.25677,-1.38372 -0.69122,-0.34598 -2.23291,-0.95104 -3.42597,-1.34457 -1.19306,-0.39354 -2.56228,-1.0024 -3.04271,-1.35303 -0.48043,-0.35063 -1.1414,-0.75666 -1.46882,-0.9023 -0.67669,-0.30098 -0.70032,-0.38105 -0.32142,-1.08903 0.21777,-0.40691 0.1871,-0.51177 -0.14969,-0.51177 -0.98334,0 -3.25413,1.8406 -3.98247,3.22801 -0.64711,1.23267 -0.48214,1.90642 0.61712,2.52036 2.57431,1.43778 8.62252,2.31936 12.03854,1.75473 z m 4.26276,-4.71218 c 1.7001,-1.20873 4.48032,-2.33774 7.62836,-3.09779 2.09463,-0.50572 2.61603,-0.73102 2.84547,-1.22957 0.1606,-0.34896 0.87537,-0.87728 1.66878,-1.23347 0.76333,-0.34268 1.62599,-0.80835 1.91703,-1.03483 0.93661,-0.72881 -0.2817,-0.52594 -1.39837,0.23287 -1.12242,0.7627 -2.43809,0.89137 -2.43809,0.23844 0,-0.43892 1.46154,-1.95824 1.88378,-1.95824 0.52903,0 2.07863,-1.21879 2.0817,-1.6373 0.004,-0.52947 -1.22747,-4.40977 -1.57702,-4.96962 -0.13366,-0.21406 -0.33428,-0.29794 -0.44583,-0.1864 -0.11154,0.11154 -0.0585,0.4339 0.11791,0.71635 0.17639,0.28245 0.32071,0.57469 0.32071,0.64943 0,0.38147 -1.27079,0.0355 -2.91955,-0.79476 -1.0164,-0.51185 -2.62404,-1.09331 -3.57254,-1.29214 -1.21789,-0.25529 -1.91303,-0.56486 -2.3661,-1.05373 -0.70683,-0.76269 -1.06276,-0.82991 -2.17094,-0.41003 -1.1113,0.42106 -1.93288,1.28362 -2.62934,2.7605 -0.5268,1.11709 -0.62328,1.73456 -0.62013,3.96875 0.002,1.4552 0.11337,3.11874 0.24738,3.69674 0.27739,1.19643 0.16395,1.46803 -0.3833,0.91772 -0.5462,-0.54927 -1.02045,-4.04176 -0.84121,-6.19487 0.1331,-1.59877 0.29485,-2.04528 1.21213,-3.34598 1.28074,-1.81609 1.11513,-1.81967 -2.58055,-0.0557 -1.86835,0.89176 -2.81957,1.54452 -3.91033,2.68339 -2.63758,2.75392 -3.50297,5.73939 -2.26961,7.82978 0.3185,0.53982 0.57909,1.20779 0.57909,1.48438 0,0.65562 1.64407,1.58986 4.36563,2.48076 1.16416,0.38109 2.47385,0.92172 2.91041,1.2014 0.43656,0.27969 0.85366,0.51722 0.92689,0.52786 0.0732,0.0106 0.71116,-0.39162 1.41764,-0.89391 z m -2.72651,-1.71769 c -0.77937,-0.77937 -0.64837,-1.91305 0.24969,-2.16087 1.03477,-0.28554 3.15701,-0.26352 3.72156,0.0386 1.28435,0.68736 -0.16327,2.33409 -2.25959,2.57038 -0.91978,0.10367 -1.245,0.0185 -1.71166,-0.44813 z m -4.62433,-2.10988 c -0.60838,-0.63502 -0.76409,-1.07616 -0.8772,-2.4852 -0.12981,-1.61717 -0.0996,-1.738 0.54015,-2.15715 0.96456,-0.632 1.62686,-0.18464 2.1765,1.47016 0.46708,1.40626 0.40033,2.89581 -0.16002,3.57099 -0.45977,0.55399 -0.85696,0.45968 -1.67943,-0.3988 z m 11.59444,-1.18585 c -0.7805,-0.7805 -0.89959,-1.07278 -0.89959,-2.20795 0,-2.15848 1.18855,-2.80696 2.58508,-1.41043 1.43609,1.43608 1.71888,3.08663 0.70292,4.10259 -0.64852,0.64852 -1.41007,0.49413 -2.38841,-0.48421 z m 40.544883,1.295 c 0.0841,-0.21909 -0.0373,-1.97526 -0.26977,-3.90261 -0.31962,-2.65014 -0.53245,-3.58487 -0.87319,-3.83499 -0.717,-0.52631 -0.91204,-0.39231 -0.77023,0.52916 0.0728,0.47295 0.20758,2.28697 0.29953,4.03116 0.092,1.7442 0.22342,3.26225 0.29214,3.37344 0.2201,0.35613 1.16331,0.21613 1.32152,-0.19616 z m 3.38817,-0.37238 c 0.2234,-0.36146 -0.3973,-5.66029 -0.70779,-6.04231 -0.313,-0.3851 -1.79151,-0.45044 -1.79151,-0.0792 0,0.13835 0.11219,0.82296 0.24932,1.52135 0.13713,0.69839 0.31018,2.0437 0.38455,2.98958 0.0744,0.94589 0.14076,1.74956 0.14754,1.78594 0.0353,0.18946 1.59053,0.0307 1.71789,-0.1754 z m 2.42904,-0.41194 c 0.17558,-0.45755 -0.38335,-4.03302 -0.73539,-4.70432 -0.51689,-0.98564 -0.81682,-0.4838 -0.63254,1.05833 0.1,0.83674 0.23632,1.98495 0.30296,2.55157 0.0666,0.56662 0.18416,1.13217 0.26117,1.25677 0.21773,0.35229 0.63897,0.2672 0.8038,-0.16235 z m 2.03502,-2.01578 c -0.0721,-2.54444 -0.0869,-2.6224 -0.49751,-2.6224 -0.29848,0 -0.38044,0.44649 -0.38044,2.07257 0,1.13991 0.0819,2.15443 0.18191,2.25447 0.48696,0.48696 0.74057,-0.13414 0.69604,-1.70464 z m 2.09545,-0.72884 c -0.20467,-1.9244 -0.57481,-2.2578 -0.5841,-0.52614 -0.009,1.68109 0.21487,2.56768 0.52266,2.06968 0.10586,-0.1713 0.13351,-0.86589 0.0614,-1.54354 z m 2.31827,0.90621 c 0,-0.70051 -0.30706,-1.17936 -0.66755,-1.04103 -0.28043,0.10761 -0.29532,0.27796 -0.0679,0.77705 0.32062,0.70369 0.73547,0.85259 0.73547,0.26398 z m 1.86208,-0.29827 c 0.18665,-0.2249 0.50751,-0.34439 0.71302,-0.26553 0.43544,0.16709 1.39365,-0.28516 1.39365,-0.65778 0,-0.1404 -0.29766,-0.25527 -0.66146,-0.25527 -0.3638,0 -0.66146,0.11906 -0.66146,0.26458 0,0.58132 -0.49658,0.21429 -0.80544,-0.59531 l -0.32804,-0.8599 -0.1957,0.79375 c -0.44111,1.78907 -0.2029,2.47714 0.54543,1.57546 z m -22.235,-12.0265 c 0,-0.14552 -0.0525,-0.26458 -0.11667,-0.26458 -0.0642,0 -0.19026,0.11906 -0.2802,0.26458 -0.0899,0.14552 -0.0374,0.26458 0.11668,0.26458 0.1541,0 0.28019,-0.11906 0.28019,-0.26458 z m 3.70417,-1.41111 c 0,-0.66975 -0.22553,-1.02551 -0.53059,-0.83697 -0.26055,0.16103 0.003,1.45433 0.29685,1.45433 0.12856,0 0.23374,-0.27781 0.23374,-0.61736 z m -2.22876,-4.67656 c -0.53016,-2.06942 -1.37627,-3.70191 -1.91867,-3.70191 -0.3991,0 -0.39885,0.0372 0.003,0.48147 0.51411,0.56808 1.35381,2.90691 1.62949,4.53861 0.1537,0.90977 0.24761,1.06018 0.44344,0.71025 0.16433,-0.29364 0.11102,-0.98037 -0.15748,-2.02842 z m -2.53374,-4.57845 c 0,-0.47104 -1.19692,-1.53573 -2.6666,-2.37202 -0.66627,-0.37912 -1.54381,-1.19162 -1.95009,-1.80556 -0.60149,-0.90891 -0.782,-1.03886 -0.97184,-0.69963 -0.37943,0.678 -0.0176,1.16118 1.71481,2.28989 0.90137,0.58726 2.04599,1.48781 2.5436,2.00122 0.9591,0.98954 1.33012,1.15302 1.33012,0.5861 z m 2.80574,-1.87833 c -0.85657,-1.46164 -3.07601,-3.46865 -4.27241,-3.8635 -1.60237,-0.52883 -1.58521,-0.13062 0.0293,0.67899 1.81641,0.91086 3.20953,2.2509 4.10562,3.94917 0.38527,0.73016 0.67362,1.04771 0.72605,0.79957 0.0478,-0.22638 -0.217,-0.93029 -0.58852,-1.56423 z m -6.77449,-4.1243 c 0,-0.14552 -0.17157,-0.26458 -0.38126,-0.26458 -0.20969,0 -0.45484,0.11906 -0.54478,0.26458 -0.0899,0.14552 0.0816,0.26458 0.38126,0.26458 0.29963,0 0.54478,-0.11906 0.54478,-0.26458 z m 25.2918,36.55148 c -0.1991,-0.32215 0.25673,-0.82645 2.36747,-2.61918 2.10458,-1.78749 3.35748,-2.51698 4.11655,-2.39679 0.47589,0.0754 0.45075,0.16487 -0.30177,1.07439 -0.4515,0.5457 -1.02995,0.99218 -1.28545,0.99218 -0.59068,0 -2.56935,1.30555 -3.58133,2.36299 -0.80896,0.8453 -1.08062,0.9664 -1.31547,0.58641 z m 5.96278,-2.06435 c 0.19972,-0.24082 1.13174,-1.01981 2.07114,-1.73107 1.67318,-1.26683 2.78992,-1.57063 2.78992,-0.75898 0,0.57875 -3.57194,2.91772 -4.46417,2.92323 -0.67725,0.004 -0.72047,-0.043 -0.39689,-0.43318 z m 5.09733,-1.83273 c 0.0883,-0.23018 0.1606,-0.45716 0.1606,-0.50439 0,-0.0472 0.23813,-0.0236 0.52917,0.0525 0.78151,0.20437 0.65862,0.87041 -0.1606,0.87041 -0.52028,0 -0.6503,-0.10284 -0.52917,-0.41852 z"
       style="fill:#ffffff;stroke-width:0;stroke-dasharray:none"
       id="path1" />
  </g>
</svg>
