<?xml version="1.0" encoding="UTF-8" standalone="no"?>
<!-- Created with Inkscape (http://www.inkscape.org/) -->

<svg
   width="82.891335mm"
   height="62.657093mm"
   viewBox="0 0 82.891335 62.657093"
   version="1.1"
   id="svg1"
   xmlns="http://www.w3.org/2000/svg"
   xmlns:svg="http://www.w3.org/2000/svg">
  <defs
     id="defs1" />
  <g
     id="layer1"
     transform="translate(-63.59942,-117.16417)">
    <path
       d="m 75.59312,179.29552 c -0.47495,-0.48837 -1.00187,-0.62634 -3.05307,-0.79941 -1.36348,-0.11504 -3.01017,-0.39409 -3.65932,-0.62011 -0.64915,-0.22602 -1.4971,-0.41267 -1.88435,-0.41479 -0.90001,-0.005 -2.07404,-1.35308 -2.07404,-2.38164 0,-1.03697 1.68674,-3.09427 3.83043,-4.67196 1.40711,-1.03559 1.7135,-1.38721 1.58046,-1.81379 -0.0908,-0.29104 -0.25508,-1.03633 -0.36515,-1.65619 -0.11006,-0.61985 -0.24859,-1.16649 -0.30783,-1.21475 -0.0592,-0.0482 -1.02638,-0.58899 -2.14921,-1.20164 -2.00072,-1.09166 -3.91162,-2.89591 -3.91162,-3.69332 0,-1.40652 6.66241,-5.55758 8.96377,-5.58494 0.62616,-0.007 1.181,-0.26834 1.85208,-0.8709 0.52696,-0.47315 1.30724,-1.11257 1.73394,-1.42094 l 0.77584,-0.56067 -0.9435,-0.82841 c -0.51893,-0.45562 -0.99993,-1.12359 -1.0689,-1.48437 -0.15798,-0.8264 0.45243,-1.7245 1.1721,-1.7245 0.81959,0 2.33134,1.7279 2.33134,2.66467 0,0.6506 0.10633,0.77492 0.66278,0.77492 h 0.66279 l -0.16933,-2.58381 c -0.14266,-2.17693 -0.10321,-2.63867 0.25055,-2.93226 0.97187,-0.80658 2.25231,0.42256 2.46263,2.36397 0.31549,2.91214 0.30433,2.88751 1.30949,2.88751 1.21806,0 3.65381,1.25443 5.63148,2.90026 0.87809,0.73076 1.66094,1.22444 1.73966,1.09706 0.29107,-0.47096 0.63308,-3.91116 0.52892,-5.32023 -0.20659,-2.79465 -0.73102,-4.65466 -2.25839,-8.00979 -1.53382,-3.36932 -1.78528,-4.16258 -1.94039,-6.12118 -0.12049,-1.5215 0.45397,-3.94583 1.19067,-5.02488 0.81848,-1.19883 1.70972,-1.52444 3.16295,-1.15557 0.92349,0.2344 1.25312,0.50939 1.95575,1.63156 0.46479,0.74231 1.19216,2.18308 1.61637,3.20173 0.42422,1.01865 1.2741,2.58689 1.88861,3.48499 2.735221,3.99748 3.34561,6.26734 3.314,12.32386 -0.0127,2.43748 0.0347,4.43178 0.10546,4.43178 0.26039,0 2.93218,-1.42245 4.34433,-2.31289 2.16184,-1.36317 3.14702,-2.40109 3.31366,-3.49104 1.31705,-8.61467 4.5777,-17.42831 8.45039,-22.84167 l 0.90227,-1.26122 -0.79929,-1.91378 c -0.43961,-1.05258 -0.86345,-2.57818 -0.94187,-3.39023 -0.1329,-1.37609 -0.093,-1.51547 0.58722,-2.05052 0.93916,-0.73874 1.83897,-0.72494 3.60315,0.0553 2.15328,0.95229 5.47618,4.63699 6.23267,6.91129 0.34262,1.03005 0.1516,1.68272 -1.79554,6.13499 -0.87905,2.01003 -1.87008,4.48803 -2.20227,5.50668 -0.3322,1.01865 -0.78949,2.2688 -1.01621,2.77813 -0.87179,1.95848 -2.16202,9.53596 -1.6204,9.51658 0.12935,-0.005 1.18768,-1.32798 2.35185,-2.94078 1.16416,-1.6128 2.65851,-3.51402 3.32077,-4.22492 1.18998,-1.27738 1.22328,-1.29255 2.83739,-1.29255 1.74403,0 4.00787,0.76072 7.54858,2.53655 0.99027,0.49667 1.96339,0.90303 2.16249,0.90303 0.1991,0 0.91609,-0.83347 1.59331,-1.85215 0.7941,-1.1945 1.46077,-1.90975 1.87754,-2.01435 0.8856,-0.22227 2.07754,0.32094 2.51882,1.14791 0.82975,1.55501 -0.013,6.06591 -1.60307,8.58064 -1.84939,2.92484 -4.10388,3.49085 -8.47944,2.12885 -1.38111,-0.4299 -2.64491,-0.7303 -2.80844,-0.66755 -0.45239,0.1736 -0.82897,1.15724 -1.94691,5.08537 -0.56327,1.97922 -1.2195,4.0578 -1.45828,4.61908 -0.40882,0.96096 -0.40624,1.05185 0.0443,1.55787 1.24561,1.39913 3.37968,1.58928 6.69611,0.59662 5.34831,-1.60082 10.75323,0.0496 12.05782,3.68185 0.39736,1.10638 0.1785,1.90456 -0.73243,2.67105 -0.71079,0.59809 -1.00796,0.65856 -3.23651,0.65856 -1.45827,0 -4.3216,0.3085 -7.05731,0.76036 -2.53189,0.4182 -5.09112,0.77913 -5.68717,0.80207 -0.95992,0.0369 -4.26132,-1.02174 -5.7257,-1.8361 -0.79052,-0.43961 -1.41252,-0.28351 -2.14471,0.53826 l -0.70724,0.79375 1.78798,4.1e-4 c 1.77015,4e-4 3.49675,0.5666 3.69793,1.21264 0.0909,0.29203 -2.48918,0.73025 -6.20943,1.05464 -1.42751,0.12447 -1.91823,0.0844 -1.91823,-0.15657 0,-0.22526 -0.10067,-0.24246 -0.33073,-0.0565 -0.1819,0.14703 -1.27954,0.52559 -2.43921,0.84124 -2.42682,0.66055 -3.84464,1.27759 -3.84464,1.67321 0,0.15149 0.20836,0.0918 0.46302,-0.13263 0.25466,-0.22444 1.11786,-0.54687 1.91823,-0.7165 1.53545,-0.32544 10.65705,-0.92169 11.19466,-0.73177 0.55619,0.19649 -1.76273,1.01972 -2.93681,1.04259 -0.62418,0.0122 -1.20194,0.13065 -1.28393,0.2633 -0.082,0.13265 -0.60087,0.16486 -1.15309,0.0716 -0.6098,-0.10303 -1.07276,-0.0584 -1.17909,0.11362 -0.0963,0.15579 -0.65572,0.28326 -1.2432,0.28326 -0.58748,0 -1.71655,0.18849 -2.50904,0.41888 -0.97421,0.28321 -1.67297,0.34473 -2.15739,0.18995 -0.82634,-0.26403 -2.92258,-0.20482 -8.08664,0.22844 -2.90502,0.24373 -4.18262,0.23664 -6.154849,-0.0341 -2.872651,-0.3944 -9.693711,-0.0465 -10.264441,0.52348 -0.47018,0.46959 1.11311,0.76836 3.07127,0.57954 3.1322,-0.30202 8.415051,-0.17909 8.415051,0.19581 0,0.60894 -1.11449,0.80713 -5.965971,1.06093 -5.10998,0.26732 -6.94985,0.42968 -8.14703,0.71892 -0.31426,0.0759 -2.59544,0.19669 -5.06929,0.26836 -4.38936,0.12716 -4.51177,0.11606 -5.07193,-0.45993 z m 16.96104,-4.45627 c 0.15156,-0.24522 -0.42744,-0.55689 -1.03453,-0.55689 -0.19081,0 -0.41546,0.17859 -0.49922,0.39687 -0.11387,0.29674 0.0419,0.39688 0.61753,0.39688 0.42341,0 0.83571,-0.10659 0.91622,-0.23686 z m -9.88734,-0.30162 c 0.38567,-0.20641 0.51177,-0.55773 0.51177,-1.42589 0,-1.59779 0.7244,-2.4898 1.73084,-2.13134 0.78299,0.27888 0.948,0.49752 1.57267,2.08381 0.40461,1.02746 0.40776,1.02918 0.97114,0.52917 0.94643,-0.83999 2.22992,-3.05234 2.82375,-4.86727 0.88793,-2.71383 0.40247,-6.99985 -1.13693,-10.03771 -0.84963,-1.67666 -1.75957,-2.54422 -3.58022,-3.4135 -1.22839,-0.58649 -1.80576,-0.69277 -3.70417,-0.68182 -1.66236,0.01 -2.4905,0.14102 -3.175,0.50393 l -0.92604,0.49097 0.92604,0.2311 c 1.2813,0.31976 2.16801,1.35321 1.95069,2.27351 -0.0924,0.3914 -0.41131,0.97953 -0.70862,1.30696 -1.18791,1.30822 -3.35873,0.2472 -3.35873,-1.64162 0,-1.19091 -0.28917,-1.1825 -1.29495,0.0377 -1.07911,1.30915 -2.1091,4.24401 -2.39512,6.82467 -0.25505,2.30127 -0.21328,2.51832 0.48456,2.51832 0.58585,0 1.49091,0.94825 1.87666,1.96621 0.26191,0.69116 0.21902,0.84502 -0.39396,1.41341 -1.11944,1.038 -0.79209,1.50221 1.12388,1.59378 1.3258,0.0634 1.72142,0.18812 2.04033,0.64343 0.29835,0.42596 0.32217,0.65331 0.0969,0.92479 -0.47593,0.57345 0.0988,0.95335 0.89404,0.591 0.51784,-0.23594 0.91275,-0.21281 1.82619,0.10699 1.43135,0.50113 1.23717,0.48435 1.84432,0.15941 z m -2.86167,-3.6055 c -0.44983,-0.18151 -0.41538,-0.75703 0.11181,-1.86801 0.37713,-0.79473 0.39233,-1.05484 0.10285,-1.75977 -1.22159,-2.97481 -1.22629,-2.99911 -0.69418,-3.58709 1.45418,-1.60685 3.64129,0.44121 3.64129,3.40978 0,1.85698 -0.57348,2.99664 -1.80107,3.57917 -0.46495,0.22063 -0.8869,0.39175 -0.93766,0.38026 -0.0508,-0.0115 -0.24114,-0.0809 -0.42304,-0.15434 z m 3.46548,-9.28363 c -0.28494,-0.25466 -0.66973,-0.83774 -0.85507,-1.29574 -0.28463,-0.70333 -0.27166,-0.95907 0.0835,-1.6458 0.87082,-1.68397 1.77816,-1.57723 2.90258,0.34145 0.84172,1.43629 0.8671,2.1135 0.0994,2.65124 -0.77168,0.5405 -1.5893,0.52175 -2.23034,-0.0512 z m 24.53841,10.77638 c 3.00899,-0.67024 3.95161,-1.06289 4.83267,-2.01308 0.74329,-0.8016 0.94787,-2.3145 0.44104,-3.26153 -0.37185,-0.69481 -3.65589,-3.21779 -4.47354,-3.43682 -1.00975,-0.27049 -2.90796,0.15795 -4.0509,0.91431 -0.5475,0.36232 -1.16958,0.65877 -1.38239,0.65877 -0.21282,0 -0.45308,0.10702 -0.53392,0.23782 -0.0808,0.1308 0.68515,0.32139 1.7022,0.42353 2.23416,0.22437 3.88885,1.00858 4.69844,2.22675 0.52864,0.79541 0.55715,0.96982 0.23793,1.4552 -0.5502,0.83659 -2.50339,1.14481 -3.64213,0.57474 -1.00329,-0.50226 -3.79822,-0.92877 -6.167139,-0.94113 -1.747281,-0.009 -2.534381,-0.47443 -2.534381,-1.49828 0,-0.85535 0.89284,-1.32856 2.866781,-1.51941 2.112059,-0.20421 2.293859,-0.31912 1.769939,-1.11871 -0.54833,-0.83686 -0.30844,-1.26407 1.67433,-2.98177 1.98177,-1.71684 2.81726,-2.14881 4.13999,-2.14051 2.84796,0.0179 8.81893,4.82693 9.55787,7.69796 0.33084,1.28543 0.4717,1.30981 1.94279,0.3363 0.89736,-0.59385 3.71289,-3.98348 3.71289,-4.46998 0,-0.098 0.35644,-0.99032 0.79209,-1.98291 0.43565,-0.9926 1.21215,-3.39381 1.72554,-5.33602 1.23397,-4.66825 2.11539,-6.71094 3.49313,-8.09536 0.99848,-1.00331 1.25248,-1.12447 2.35726,-1.12447 0.773,0 1.76591,0.24964 2.64278,0.66446 0.77251,0.36546 2.09739,0.73688 2.94419,0.82539 1.4076,0.14713 1.61264,0.0995 2.39127,-0.55569 1.04685,-0.88087 1.09423,-1.29394 0.12405,-1.08139 -1.19424,0.26164 -3.41885,-0.3101 -4.90457,-1.26051 -1.74044,-1.11334 -4.15837,-2.03185 -5.34876,-2.03185 -1.08736,0 -2.23957,0.93008 -3.96836,3.20328 -1.29734,1.70589 -2.2907,3.6088 -4.23268,8.10822 -1.35872,3.14806 -1.96425,4.03434 -2.75635,4.03434 -1.35872,0 -1.47627,-1.78755 -0.29459,-4.47989 0.44091,-1.00458 0.80166,-1.88185 0.80166,-1.94948 0,-0.0676 -0.45762,-0.58345 -1.01695,-1.14628 -0.89933,-0.90496 -1.03681,-1.21693 -1.1887,-2.69741 -0.19957,-1.94514 0.20477,-4.19538 1.51807,-8.4485 1.18186,-3.82743 3.49724,-9.94333 4.38646,-11.58647 0.39769,-0.73489 0.86733,-1.77323 1.04363,-2.30744 0.29916,-0.90646 0.26669,-1.04956 -0.48658,-2.14441 -0.92379,-1.34267 -3.21616,-3.86929 -3.51056,-3.86929 -0.10857,0 0.0502,0.56555 0.35273,1.25677 0.30258,0.69122 0.61109,2.04771 0.68559,3.01441 l 0.13545,1.75764 -1.50172,2.42771 c -3.6981,5.97843 -6.02869,12.4289 -7.60278,21.04257 -0.35971,1.96837 -0.56776,2.33584 -2.16319,3.82061 -1.94849,1.81334 -9.039539,5.54156 -11.37241,5.97921 -1.77535,0.33306 -2.26332,-1.27732 -0.84434,-2.78642 0.61456,-0.65358 0.62142,-0.72607 0.57645,-6.08542 -0.0415,-4.93996 -0.10022,-5.57546 -0.65854,-7.12181 -0.63667,-1.76336 -1.52578,-3.20645 -2.94298,-4.77668 -0.48241,-0.53449 -0.9951,-1.52971 -1.22671,-2.38125 -0.21885,-0.80463 -0.64285,-1.99602 -0.94221,-2.64754 -0.52136,-1.13464 -0.56091,-1.16252 -0.93839,-0.66146 -0.29314,0.38911 -0.36334,0.99758 -0.27405,2.3752 0.12698,1.95924 0.4517,2.99974 2.39453,7.67292 1.65875,3.98986 1.98372,6.34261 1.52455,11.03764 -0.18903,1.93278 -0.51402,3.84354 -0.72221,4.24614 -0.33095,0.63999 -0.32657,0.90606 0.0349,2.11682 0.66896,2.24063 0.55178,9.42957 -0.16089,9.87002 -0.59644,0.36862 -0.19973,1.21366 0.7576,1.61376 1.53104,0.63988 3.0421,0.81636 7.27885,0.85012 3.03812,0.0242 4.43834,-0.0876 6.30525,-0.50344 z m 29.01382,-5.57737 c 1.05503,-0.18263 1.91823,-0.43943 1.91823,-0.57067 0,-0.13123 -0.32742,-0.17728 -0.72761,-0.10232 -0.40018,0.075 -1.32291,0.208 -2.05052,0.29563 -2.16654,0.26094 -2.79201,0.43194 -2.61681,0.71542 0.0913,0.14767 0.47926,0.20672 0.86221,0.13124 0.38295,-0.0755 1.55947,-0.28667 2.6145,-0.4693 z m 5.4901,-0.23807 c -0.0899,-0.14552 -0.42438,-0.26276 -0.74322,-0.26053 -0.47128,0.003 -0.50547,0.052 -0.18282,0.26053 0.52126,0.33687 1.13424,0.33687 0.92604,0 z M 70.24197,138.19651 c -0.82976,-0.88324 -1.12523,-4.31867 -0.43114,-5.01277 0.54385,-0.54384 1.37844,-0.37947 2.05682,0.40509 0.61564,0.71199 0.64956,3.79697 0.0511,4.65132 -0.5275,0.75312 -0.93835,0.74242 -1.67682,-0.0436 z m 11.09326,-8.75052 c -0.46606,-0.56156 -0.41171,-2.97088 0.1073,-4.75619 0.48106,-1.65481 1.13066,-2.20221 2.03745,-1.71691 0.53128,0.28433 0.55561,0.43765 0.39695,2.50177 -0.23368,3.04007 -0.64308,4.20361 -1.51474,4.30493 -0.38233,0.0444 -0.83534,-0.10271 -1.02696,-0.3336 z"
       style="fill:#ffffff"
       id="path1" />
  </g>
</svg>
