<?xml version="1.0" encoding="UTF-8" standalone="no"?>
<!-- Created with Inkscape (http://www.inkscape.org/) -->

<svg
   width="77.40799mm"
   height="61.982037mm"
   viewBox="0 0 77.40799 61.982037"
   version="1.1"
   id="svg1"
   xmlns="http://www.w3.org/2000/svg"
   xmlns:svg="http://www.w3.org/2000/svg">
  <defs
     id="defs1" />
  <g
     id="layer1"
     transform="translate(-87.166888,-142.97575)">
    <path
       d="m 121.89409,204.75594 c -1.35051,-0.46428 -1.92644,-1.03059 -2.45462,-2.41362 -0.49849,-1.30527 -0.70421,-1.36302 -2.84326,-0.79808 -3.05628,0.80719 -4.08277,0.99625 -6.11492,1.12626 -1.17034,0.0749 -2.87771,0.23913 -3.79416,0.36503 -2.35317,0.32326 -2.9706,0.0365 -4.29341,-1.9938 -1.04174,-1.59892 -2.639267,-5.84196 -2.639267,-7.0099 0,-0.2957 0.16578,-0.93442 0.368397,-1.41936 0.48525,-1.16136 1.35085,-1.37211 2.84701,-0.69319 0.63262,0.28707 1.52681,0.52456 1.9871,0.52775 1.38507,0.01 12.02994,-3.38801 12.70056,-4.05376 0.16956,-0.16833 0.68843,-1.7348 1.15304,-3.48105 1.29774,-4.87761 1.31991,-4.3724 -0.18404,-4.19428 -2.23191,0.26434 -5.58829,-0.84954 -7.79765,-2.5878 -0.53026,-0.4172 -1.17744,-0.75855 -1.43818,-0.75855 -0.26073,0 -1.01751,0.45704 -1.68171,1.01564 -1.50353,1.26446 -2.33053,1.71281 -2.81583,1.52658 -0.80545,-0.30908 -0.3558,-1.21703 1.27744,-2.57945 0.90951,-0.75869 1.61632,-1.50717 1.5707,-1.66329 -0.0456,-0.15612 -0.28977,-0.49493 -0.54255,-0.75291 -0.41459,-0.42311 -0.53606,-0.43151 -1.23997,-0.0858 -1.0951,0.53786 -4.69883,1.24013 -4.97037,0.96858 -0.12389,-0.12388 -0.18296,-0.44625 -0.13128,-0.71637 0.0685,-0.35821 0.63018,-0.64785 2.07533,-1.07025 1.08976,-0.31853 2.32267,-0.58642 2.73982,-0.59532 0.69209,-0.0148 0.74281,-0.0798 0.5797,-0.74378 -0.0983,-0.40018 -0.24663,-1.78621 -0.32958,-3.08006 -0.12597,-1.96477 -0.2747,-2.55343 -0.9025,-3.57188 -0.41342,-0.67068 -1.24424,-2.6995 -1.84627,-4.5085 -0.91461,-2.74826 -1.07618,-3.54354 -0.98265,-4.83665 0.16506,-2.28189 0.48156,-2.50065 3.04557,-2.1051 2.05906,0.31764 3.92762,1.0651 5.74392,2.29767 l 0.96636,0.65579 2.50277,-1.20121 2.50277,-1.20121 0.002,-1.5101 c 0.004,-3.22093 0.85218,-6.43299 1.79352,-6.79422 0.68313,-0.26214 3.96911,1.52124 6.02793,3.2715 1.02867,0.87451 2.81984,2.75667 3.98038,4.18257 2.61938,3.21831 2.99228,3.75725 4.08214,5.89984 0.48115,0.94588 0.88964,1.74541 0.90777,1.77672 0.0181,0.0313 0.77931,-0.24454 1.69151,-0.613 1.30912,-0.52877 1.73843,-0.60362 2.0377,-0.35525 0.20852,0.17306 0.37914,0.41183 0.37914,0.53059 0,0.11877 -0.78374,0.72927 -1.74164,1.35667 -1.6189,1.06034 -1.73166,1.19666 -1.60003,1.93448 0.21964,1.23122 0.40743,2.04875 0.48946,2.13077 0.0411,0.0411 0.72948,-0.0952 1.52965,-0.30293 1.46134,-0.37942 2.11631,-0.34022 2.11631,0.12665 0,0.39958 -1.62574,1.29093 -2.72703,1.49514 -1.10158,0.20427 -1.66299,0.83953 -1.93241,2.18659 -0.14066,0.70334 -0.0881,0.84607 0.3115,0.84607 0.86125,0 3.90854,2.03408 5.81557,3.88191 3.80764,3.68945 7.13346,10.19387 7.93072,15.51036 0.1027,0.68488 0.29115,1.24523 0.41878,1.24523 0.12763,0 1.45994,-0.46693 2.9607,-1.03762 4.09794,-1.55833 5.82878,-1.9451 8.12425,-1.81543 1.62653,0.0919 2.19028,0.24836 3.12617,0.86773 3.29502,2.18064 2.19196,5.25373 -2.46471,6.86657 -1.16417,0.40321 -2.45395,0.96901 -2.86617,1.25733 -0.88254,0.61728 -7.22127,4.18017 -7.43692,4.18017 -0.60817,0 0.2283,-0.77289 2.42972,-2.24501 2.34902,-1.57084 2.50321,-1.72374 1.73825,-1.72374 -1.07911,0 -3.82413,1.2582 -6.78126,3.10826 -1.56217,0.97733 -2.42085,1.3718 -2.59879,1.19386 -0.25454,-0.25454 1.44182,-1.59034 4.07194,-3.20645 0.5457,-0.33532 0.99219,-0.71902 0.99219,-0.85267 0,-0.46186 -1.45918,-0.23436 -2.56976,0.40066 -0.613,0.35051 -1.38509,0.72316 -1.71577,0.82811 -0.6444,0.20453 -3.23896,2.04275 -3.51605,2.49111 -0.25549,0.41339 -0.92967,0.32171 -0.92967,-0.12642 0,-0.21828 0.16401,-0.39688 0.36448,-0.39688 0.47098,0 1.03882,-0.68487 0.90377,-1.09003 -0.064,-0.19211 -0.38819,-0.0306 -0.8348,0.41605 -0.40156,0.40156 -0.79752,0.66269 -0.87991,0.5803 -0.0824,-0.0824 -0.48598,0.024 -0.89687,0.23653 -0.41088,0.21247 -0.88661,0.38632 -1.05718,0.38632 -0.49483,0 0.11778,-0.60981 2.00316,-1.99401 1.98135,-1.45465 2.19698,-1.84528 1.39015,-2.51834 -0.62286,-0.5196 -1.67303,-0.70863 -1.38968,-0.25015 0.0899,0.14552 0.34337,0.26458 0.56319,0.26458 0.74033,0 0.26735,1.09725 -0.69548,1.61342 -4.32199,2.317 -9.19117,4.0143 -13.22917,4.61142 -1.74874,0.2586 -3.451,0.64182 -3.8867,0.875 -0.32879,0.17596 -0.80318,0.14782 -1.49032,-0.0884 z m 1.84961,-2.85362 c 0.3155,-0.17674 1.31486,-0.97619 2.22079,-1.77656 0.90594,-0.80036 1.81943,-1.55645 2.02999,-1.68018 0.21056,-0.12374 0.54599,-0.59999 0.74542,-1.05834 0.21414,-0.49217 0.36682,-0.64379 0.37294,-0.37033 0.0139,0.62013 0.2483,0.58362 1.05421,-0.16419 0.37177,-0.34496 1.0313,-0.85098 1.46563,-1.12448 l 0.7897,-0.49727 -0.59126,1.00731 c -0.32519,0.55402 -0.59126,1.0637 -0.59126,1.13261 0,0.22113 3.02857,-1.80378 3.35676,-2.24433 0.24243,-0.32544 0.42463,-0.35847 0.77919,-0.14127 0.84982,0.52059 0.66391,0.84167 -1.20784,2.086 -1.02266,0.67987 -1.92829,1.3476 -2.01249,1.48384 -0.29031,0.46973 0.36859,0.24613 1.1146,-0.37824 0.41135,-0.34428 1.40275,-0.95316 2.20312,-1.35308 2.13614,-1.06736 2.38196,-1.35267 2.37665,-2.75833 -0.009,-2.38948 -0.70892,-4.65569 -2.49455,-8.07723 -1.40971,-2.70123 -1.692,-3.4386 -1.47304,-3.84773 0.7036,-1.31469 1.5137,-0.9131 3.34628,1.65888 1.52015,2.13349 2.43284,3.84972 3.36677,6.33096 0.34775,0.92387 0.95008,2.30694 1.33852,3.07349 l 0.70625,1.39371 1.2452,-0.0802 c 1.14256,-0.0736 1.25218,-0.14092 1.32983,-0.81709 0.0465,-0.4053 -0.15432,-1.47686 -0.44635,-2.38125 -0.29203,-0.90438 -0.71531,-2.39124 -0.94062,-3.30412 -0.36795,-1.49088 -1.05187,-3.04384 -2.92786,-6.64826 -1.09997,-2.1134 -2.55063,-3.83457 -5.09547,-6.0456 -1.3818,-1.20054 -2.64677,-2.18199 -2.81105,-2.181 -0.16428,9.9e-4 -0.58389,0.42058 -0.93247,0.93241 -0.6562,0.96352 -1.52071,1.75317 -3.54985,3.24245 -1.1693,0.85821 -5.35353,2.7025 -6.13129,2.7025 -0.51622,0 -0.5069,0.23786 0.0327,0.8341 0.35332,0.39041 0.37177,0.55313 0.0999,0.88073 -0.22858,0.27542 -0.24007,0.40183 -0.0365,0.40183 0.16334,0 0.29698,-0.12608 0.29698,-0.28019 0,-0.15411 0.10768,-0.21365 0.2393,-0.1323 0.36592,0.22615 0.26628,3.78319 -0.1208,4.31256 -0.27471,0.37569 -0.26711,0.62784 0.0412,1.36567 0.20795,0.4977 0.31419,1.10626 0.23608,1.35236 -0.30986,0.97629 -4.32087,2.57895 -13.28044,5.30641 -4.53623,1.38092 -5.20951,1.48771 -6.28628,0.9971 -0.37127,-0.16916 -0.74141,-0.24118 -0.82254,-0.16005 -0.15998,0.15998 2.3828,5.37297 2.72157,5.57954 0.21658,0.13206 2.14161,-0.19864 6.5563,-1.1263 5.22098,-1.09707 7.32427,-1.68974 7.50256,-2.11407 0.49995,-1.18987 2.02204,-3.5244 2.58828,-3.9698 0.85894,-0.67565 3.04754,-1.12267 4.56169,-0.93172 0.87616,0.11048 1.66519,-6.5e-4 2.78525,-0.39232 1.66859,-0.58347 3.45956,-0.71767 3.73035,-0.27952 0.43027,0.69619 -0.23138,1.28258 -2.3879,2.11631 -1.23249,0.47649 -2.37518,1.02815 -2.53931,1.22592 -0.16694,0.20115 -0.83785,0.36897 -1.52279,0.3809 -1.6126,0.0281 -3.21075,0.90848 -3.80365,2.09534 -0.31257,0.62568 -0.46275,1.54821 -0.46302,2.84427 -4.4e-4,2.03245 0.1288,2.19764 1.23467,1.57812 z m 6.14204,-2.27295 c 0.34663,-0.26655 0.58282,-0.62689 0.52487,-0.80076 -0.0632,-0.18974 -0.41434,0.006 -0.87819,0.49051 -0.85032,0.88754 -0.63889,1.0732 0.35332,0.31025 z m 9.55621,-0.56925 c 0,-0.13237 -0.17791,-0.1724 -0.39536,-0.089 -0.21744,0.0835 -0.32828,0.26025 -0.2463,0.39289 0.17147,0.27744 0.64166,0.0547 0.64166,-0.30393 z m 22.75416,-6.34269 c 0,-0.29937 -0.17638,-0.52917 -0.40618,-0.52917 -0.3242,0 -0.34902,0.10681 -0.12298,0.52917 0.15576,0.29104 0.33854,0.52916 0.40618,0.52916 0.0676,0 0.12298,-0.23812 0.12298,-0.52916 z m -3.175,-1.19063 c 0,-0.21828 -0.17859,-0.39687 -0.39687,-0.39687 -0.21828,0 -0.39688,0.17859 -0.39688,0.39687 0,0.21828 0.1786,0.39688 0.39688,0.39688 0.21828,0 0.39687,-0.1786 0.39687,-0.39688 z m -36.85928,-6.68073 c -0.0665,-0.25466 -0.121,-0.0463 -0.121,0.46302 0,0.50933 0.0545,0.71769 0.121,0.46303 0.0666,-0.25467 0.0666,-0.67138 0,-0.92605 z m -3.14299,-8.06944 0.0821,-0.99183 1.03231,0.82958 c 0.89534,0.71952 1.17835,0.81 2.13292,0.68197 1.37237,-0.18407 3.04244,-1.04116 5.47185,-2.80816 2.62329,-1.90802 4.56395,-4.64558 2.90654,-4.10007 -1.21378,0.3995 -1.64911,0.27604 -1.73754,-0.4928 -0.0738,-0.64129 0.06,-0.79108 1.10743,-1.24006 1.40407,-0.60185 2.11356,-1.5311 1.87988,-2.46215 l -0.16343,-0.65118 -1.75218,1.15084 c -2.09385,1.37524 -2.60971,1.56444 -3.11717,1.14329 -0.62965,-0.52257 -0.45024,-0.8733 0.87307,-1.70677 1.95995,-1.23446 3.24067,-2.49866 3.24067,-3.19889 0,-1.45707 -3.4405,-6.46089 -4.44235,-6.46089 -0.29164,0 -0.33134,0.27964 -0.18786,1.32292 0.19665,1.42979 0.11598,1.50546 -1.10725,1.0387 -0.40966,-0.15632 -1.37322,-0.44832 -2.14126,-0.6489 -1.27248,-0.33231 -1.50092,-0.31989 -2.57364,0.13993 l -1.17721,0.50461 -0.79724,-0.67083 c -0.70988,-0.59732 -0.89326,-0.63913 -1.67362,-0.38159 -0.48202,0.15908 -1.25782,0.61518 -1.724,1.01355 -0.7372,0.62997 -0.88639,0.98281 -1.1453,2.70869 -0.33806,2.25353 0.0351,4.30265 1.233,6.77161 0.7776,1.60264 2.33186,3.28256 3.03702,3.28256 0.90485,0 1.85179,0.58997 1.85179,1.15372 0,0.4197 0.0706,0.46906 0.3175,0.22211 0.17463,-0.17462 0.41275,-0.3175 0.52917,-0.3175 0.45359,0 0.16534,0.52271 -0.92449,1.67646 -1.05952,1.12168 -1.19824,1.1888 -2.05674,0.99518 -2.18937,-0.49378 -2.73944,-1.57398 -1.42286,-2.79414 0.6383,-0.59156 0.64735,-0.63548 0.16258,-0.78934 -1.07847,-0.34229 -2.92393,-3.86522 -3.63825,-6.94533 -0.34703,-1.49636 -0.34845,-1.8869 -0.0116,-3.20718 0.21095,-0.82685 0.33449,-1.55296 0.27454,-1.6136 -0.06,-0.0606 -0.86677,0.65374 -1.79291,1.5875 -1.4025,1.41403 -1.78774,2.00725 -2.30531,3.54983 -0.90513,2.69768 -0.86393,5.61859 0.10726,7.60363 1.54433,3.1565 5.06188,5.28037 8.51216,5.13956 1.02291,-0.0417 1.06108,-0.0764 1.14043,-1.03503 z m -7.03068,-3.51827 c -0.67113,-0.47008 -1.77539,-2.30077 -2.01639,-3.34288 -0.0902,-0.39009 -0.0448,-1.02271 0.10082,-1.40584 0.22236,-0.58484 0.40283,-0.68329 1.12492,-0.61368 0.74957,0.0723 0.9528,0.26988 1.58193,1.53813 0.91254,1.83959 1.25474,3.01528 1.07626,3.69777 -0.16923,0.64712 -1.04003,0.70611 -1.86754,0.1265 z m 8.81068,-4.0227 c -1.19779,-1.18345 -1.72981,-2.32782 -1.72981,-3.72081 0,-1.21694 0.72444,-2.04322 1.55911,-1.77831 0.84092,0.2669 2.64313,2.48464 2.83043,3.48304 0.19625,1.04606 -0.27368,2.38175 -0.96885,2.75379 -0.64202,0.3436 -0.56043,0.3792 -1.69088,-0.73771 z m -11.21798,-11.19743 c -0.92974,-0.75971 -1.19027,-0.6176 -0.52282,0.28518 0.41781,0.56511 0.66919,0.71296 0.86782,0.51039 0.1975,-0.20143 0.0962,-0.43508 -0.345,-0.79557 z m 12.24563,-2.74749 c -0.11493,-0.45792 -0.26992,-0.62085 -0.43427,-0.45651 -0.16434,0.16435 -0.14472,0.46264 0.055,0.83579 0.17079,0.31912 0.36621,0.52455 0.43426,0.4565 0.068,-0.0681 0.0433,-0.44416 -0.055,-0.83578 z m 3.02805,-2.00251 c -0.62465,-1.11141 -1.55218,-2.11176 -1.55218,-1.67403 0,0.44131 1.56295,2.73864 1.86319,2.73864 0.15804,0 0.0181,-0.47907 -0.31101,-1.06461 z m -32.574577,8.98091 c -0.69328,-0.4038 -1.30821,-1.77544 -1.15567,-2.5778 0.11808,-0.62111 -0.0648,-0.85485 -1.48573,-1.89892 -0.91274,-0.67066 -1.83674,-1.6135 -2.11579,-2.15891 -0.44537,-0.87051 -0.4576,-1.05876 -0.12107,-1.86417 0.39948,-0.95609 3.23616,-4.17901 3.6782,-4.17901 0.39172,0 4.20226,3.75045 4.43557,4.36563 0.54636,1.4406 -0.5955,1.55262 -2.62793,0.25781 -1.72403,-1.09834 -1.95158,-1.12209 -2.35104,-0.24536 -0.70353,1.54408 -0.029,2.70999 2.74505,4.74435 1.92666,1.41295 2.15465,2.09904 1.06097,3.19273 -0.69155,0.69154 -1.31183,0.8009 -2.06256,0.36365 z m 42.342197,-9.17308 c -1.38342,-1.58598 -1.31994,-2.59728 0.2646,-4.21552 1.30546,-1.33322 2.17394,-2.82034 2.17394,-3.72248 0,-0.28371 0.13071,-0.8908 0.29046,-1.34908 0.25114,-0.72042 0.41577,-0.83323 1.21595,-0.83323 1.14647,0 2.46234,0.74447 2.46234,1.3931 0,0.96537 -0.86092,2.21261 -2.72426,3.94673 l -1.8997,1.76795 0.59219,0.63035 c 0.78431,0.83486 0.74817,1.62576 -0.10496,2.29683 -0.85192,0.67013 -1.73162,0.7032 -2.27056,0.0854 z"
       style="fill:#65c0b1;fill-opacity:1;stroke-width:0;stroke-dasharray:none"
       id="path1" />
  </g>
</svg>
