<?xml version="1.0" encoding="UTF-8" standalone="no"?>
<!-- Created with Inkscape (http://www.inkscape.org/) -->

<svg
   width="69.497169mm"
   height="84.206993mm"
   viewBox="0 0 69.497169 84.206993"
   version="1.1"
   id="svg1"
   xmlns:inkscape="http://www.inkscape.org/namespaces/inkscape"
   xmlns:sodipodi="http://sodipodi.sourceforge.net/DTD/sodipodi-0.dtd"
   xmlns="http://www.w3.org/2000/svg"
   xmlns:svg="http://www.w3.org/2000/svg">
  <sodipodi:namedview
     id="namedview1"
     pagecolor="#505050"
     bordercolor="#eeeeee"
     borderopacity="1"
     inkscape:showpageshadow="0"
     inkscape:pageopacity="0"
     inkscape:pagecheckerboard="0"
     inkscape:deskcolor="#505050"
     inkscape:document-units="mm" />
  <defs
     id="defs1" />
  <g
     inkscape:label="Layer 1"
     inkscape:groupmode="layer"
     id="layer1"
     transform="translate(-70.302251,-106.30355)">
    <path
       d="m 90.832641,190.16124 c -1.13949,-0.59961 -1.4691,-0.97041 -1.70772,-1.92116 -0.24704,-0.98428 0.4481,-1.23207 1.64624,-0.58683 1.09945,0.59209 2.58761,2.22573 2.28359,2.50682 -0.505,0.46691 -1.33619,0.46735 -2.22211,0.001 z m 7.95637,0.26007 c -1.25403,-0.15925 -1.83245,-0.47284 -4.29948,-2.33098 -1.23059,-0.92686 -1.52136,-1.29054 -1.52136,-1.90285 0,-1.41885 0.82055,-1.2756 3.67218,0.64105 1.4249,0.95771 2.70863,1.74129 2.85273,1.74129 0.34198,0 1.412589,1.14259 1.412589,1.50755 0,0.40014 -0.73438,0.51947 -2.116659,0.34394 z m -14.39043,-0.65682 c -0.39011,-0.36154 -0.69082,-0.92845 -0.69082,-1.30234 0,-0.54737 0.16067,-0.69224 0.9272,-0.83605 1.12966,-0.21192 2.16046,0.37133 2.40943,1.36332 0.20643,0.82247 -0.12967,1.20279 -1.16999,1.32391 -0.5511,0.0642 -0.99082,-0.0993 -1.47582,-0.54884 z m -6.99371,-0.01 c -2.07103,-0.89952 0.0225,-2.43805 2.36323,-1.73675 0.83702,0.25078 1.02924,0.43114 1.02924,0.96576 0,1.10852 -1.71695,1.49873 -3.39247,0.77099 z m 25.485179,-0.50585 c -1.26492,-0.57119 -3.961229,-2.89628 -4.047669,-3.49037 -0.20607,-1.41645 1.790549,-1.39129 2.857039,0.036 0.3638,0.48688 1.22464,1.22117 1.91298,1.63177 1.33221,0.79468 1.59687,1.47476 0.75025,1.92786 -0.61205,0.32756 -0.49572,0.33588 -1.4726,-0.10525 z m 3.87315,-1.72417 c -1.77496,-1.52767 -2.27782,-2.38751 -1.6303,-2.7877 0.62718,-0.38762 2.33844,0.4671 3.96166,1.97874 1.80086,1.67706 1.84988,1.97608 0.37235,2.27159 -0.71975,0.14395 -1.03554,-0.0269 -2.70371,-1.46263 z m 6.87011,0.24781 c -2.28947,-0.82347 -3.10797,-1.9851 -1.86677,-2.64938 0.7716,-0.41294 1.97406,0.0613 3.42663,1.35151 1.14351,1.01567 1.1703,1.07281 0.67704,1.44397 -0.62563,0.47076 -0.49886,0.47904 -2.2369,-0.1461 z m 5.75455,-0.69741 c -0.88433,-0.1551 -1.74936,-1.05661 -1.37401,-1.43196 0.14749,-0.14749 1.28306,-0.33979 2.52349,-0.42733 2.09638,-0.14794 2.29721,-0.11728 2.84955,0.43506 0.52387,0.52387 0.54799,0.64046 0.20376,0.98469 -0.40266,0.40266 -2.91497,0.66541 -4.20279,0.43954 z m -39.257509,-2.38448 c -3.96519,-2.31706 -6.13078,-4.22368 -6.90673,-6.08081 -0.49857,-1.19323 -0.46144,-1.53835 0.25516,-2.37143 0.6059,-0.70441 0.65185,-0.71354 2.18281,-0.43361 0.86013,0.15727 2.01599,0.40363 2.56857,0.54747 0.9141,0.23794 1.06506,0.19816 1.674,-0.44104 0.36812,-0.38641 1.48579,-1.95272 2.48372,-3.48069 3.93288,-6.02181 5.93517,-8.76995 8.38267,-11.50525 2.39604,-2.6778 2.53415,-2.89429 2.2613,-3.54472 -0.15984,-0.38101 -0.74993,-1.8749 -1.31132,-3.31976 -0.56139,-1.44486 -1.14887,-2.66974 -1.30551,-2.72195 -0.15664,-0.0522 -0.43338,0.26375 -0.61496,0.70214 -0.4982,1.20274 -2.38146,2.78753 -4.05791,3.41477 -0.89704,0.33562 -2.4993,0.6298 -4.00786,0.73584 -2.01814,0.14186 -2.54104,0.26397 -2.65396,0.61976 -0.38892,1.22536 -1.77747,2.93642 -2.81074,3.46355 -1.35516,0.69136 -2.50038,0.5713 -3.99683,-0.41901 -1.82859,-1.2101 -2.49933,-4.21965 -1.52238,-6.83079 1.0897,-2.91246 2.47894,-3.88178 7.22828,-5.04342 4.09397,-1.00134 4.68295,-1.35647 5.66727,-3.41712 0.9283,-1.94339 1.25534,-3.64831 1.01146,-5.2731 -0.16594,-1.10558 -0.18756,-1.12554 -1.28681,-1.18764 -3.65598,-0.20653 -6.50673,-1.67686 -8.41589,-4.34067 -3.35789,-4.68518 -3.40441,-12.23824 -0.10202,-16.56326 0.73997,-0.9691 0.84808,-1.274 0.64298,-1.81343 -0.74672,-1.96403 -1.11538,-7.98648 -0.53193,-8.6895 0.51123,-0.61599 1.56872,-0.49916 2.5997,0.28721 0.87427,0.66684 0.95038,0.6798 1.63087,0.27783 0.63406,-0.37455 0.79742,-0.37828 1.46226,-0.0334 0.41165,0.21357 1.21793,0.81245 1.79174,1.33085 1.59315,1.43932 3.39283,2.4877 4.27047,2.4877 1.66089,0 3.76344,0.8389 5.84908,2.33373 3.61999,2.59455 5.43184,5.63566 5.42335,9.10288 -0.004,1.69621 -0.69604,4.92094 -1.4356,6.69094 -0.22683,0.54289 -0.41242,1.0679 -0.41242,1.16668 0,0.0988 0.8632,0.33193 1.91823,0.51808 1.47752,0.26071 2.100589,0.26775 2.711979,0.0306 0.43656,-0.1693 2.10344,-0.37327 3.70417,-0.45326 2.44698,-0.12228 3.23299,-0.0568 4.93624,0.41131 2.91208,0.8003 4.56843,1.60978 6.97001,3.4063 3.68329,2.75533 5.003,4.57471 4.98145,6.86756 -0.0248,2.6391 -1.76046,4.23458 -4.50061,4.13716 -1.70697,-0.0607 -2.47907,-0.45591 -4.79602,-2.45501 -1.01066,-0.87201 -2.3582,-1.8084 -2.99453,-2.08087 -1.49041,-0.63817 -4.08082,-0.97834 -4.33374,-0.56909 -0.10171,0.16455 0.67906,1.72919 1.73502,3.47697 1.9559,3.2373 3.00427,5.67273 3.44713,8.00791 0.13603,0.71729 0.28799,1.34483 0.3377,1.39454 0.32636,0.32636 3.40257,0.87509 4.87974,0.87044 3.13339,-0.01 6.58923,-1.63563 8.77955,-4.13026 0.45744,-0.52099 1.46071,-1.91692 2.2295,-3.10206 3.28736,-5.06768 7.98473,-7.54353 11.65372,-6.14233 1.39956,0.5345 1.99671,1.36417 1.99671,2.77418 0,0.8471 -0.16813,1.21137 -0.85573,1.85399 -0.47065,0.43986 -1.19125,0.87344 -1.60134,0.96351 -1.0575,0.23227 -2.80728,2.14101 -5.25695,5.73453 -2.32418,3.40944 -4.37317,5.45142 -6.7452,6.72212 -3.086,1.65318 -7.72338,2.54731 -11.19341,2.1582 -0.93932,-0.10533 -1.76218,-0.13718 -1.82858,-0.0708 -0.15914,0.15913 1.94916,2.65089 3.1975,3.77906 2.52771,2.28439 6.29017,4.58272 8.7416,5.33989 1.96846,0.608 2.31295,0.99802 2.31295,2.61872 0,1.62201 -0.98034,5.47709 -1.86326,7.32708 -0.66496,1.3933 -0.97538,1.74252 -1.98212,2.22988 -1.13342,0.54868 -1.2279,0.55544 -1.87126,0.13389 -0.8736,-0.5724 -1.46617,-1.99343 -1.26037,-3.02244 0.32448,-1.62241 0.0111,-2.02247 -2.0814,-2.65675 -1.05699,-0.32041 -2.431,-0.8121 -3.05336,-1.09266 -0.62236,-0.28056 -1.34009,-0.51011 -1.59496,-0.51011 -0.68425,0 -4.04196,-1.66736 -5.90368,-2.93163 -0.89291,-0.60637 -2.47351,-1.90994 -3.51245,-2.89683 l -1.88898,-1.79434 -3.448419,3.34838 c -1.89663,1.84161 -3.87675,3.88416 -4.40027,4.539 -0.52351,0.65485 -2.58066,2.8575 -4.57144,4.89479 -1.99078,2.0373 -4.0414,4.21019 -4.55694,4.82865 -1.2192,1.46262 -1.78495,1.44874 -4.451,-0.10916 z m 5.13934,-5.31173 c 1.36838,-1.42051 3.7398,-3.95198 5.2698,-5.62546 4.14324,-4.53179 10.014449,-9.72347 14.730929,-13.02598 0.77561,-0.54309 1.63972,-1.27922 1.92024,-1.63585 0.49829,-0.63347 0.49927,-0.70821 0.0428,-3.24589 -0.76451,-4.24974 -2.96149,-9.95784 -5.72293,-14.86907 -0.0312,-0.0554 -0.55853,0.0267 -1.17194,0.18235 -1.423009,0.3612 -2.078709,0.0447 -2.078709,-1.00349 0,-1.12068 1.24016,-1.92202 4.302589,-2.78018 2.08517,-0.58431 2.87533,-0.68948 4.10105,-0.54587 1.84253,0.21588 5.693,2.03631 7.60365,3.59486 0.7276,0.59352 1.5292,1.24821 1.78133,1.45488 0.56405,0.46234 1.09821,0.28038 1.65025,-0.56214 0.4651,-0.70983 0.34178,-1.10307 -0.83164,-2.65199 -1.16692,-1.54033 -5.95312,-4.41034 -8.34196,-5.00218 -0.91165,-0.22587 -6.91452,0.32079 -9.339229,0.85048 -1.01865,0.22253 -2.29779,0.6511 -2.84254,0.95237 l -0.99045,0.54777 -0.66319,-0.62303 c -0.38613,-0.36275 -0.66319,-0.91763 -0.66319,-1.3282 0,-0.49134 -0.19632,-0.7946 -0.64747,-1.00016 -1.1213,-0.5109 -1.50268,-1.37729 -1.23559,-2.80693 0.14397,-0.77063 0.44382,-1.40266 0.77576,-1.63516 0.86473,-0.60568 1.26603,-2.92026 0.87462,-5.04452 -0.46699,-2.53445 -2.25165,-5.98408 -3.83003,-7.40317 -0.7074,-0.63602 -1.38548,-1.1564 -1.50682,-1.1564 -0.12135,0 0.0687,0.50601 0.4223,1.12447 0.74413,1.30146 0.8055,1.8561 0.25587,2.31226 -0.70332,0.5837 -1.55798,0.0836 -2.57655,-1.50754 -1.47855,-2.30975 -1.7934,-2.72294 -2.07482,-2.72294 -0.14169,0 -0.0312,0.44648 0.24561,0.99218 0.74551,1.46989 1.25647,3.9793 0.88574,4.35002 -0.22021,0.22021 -0.4031,0.20976 -0.70434,-0.0402 -0.54857,-0.45528 -2.38431,-3.85513 -2.79134,-5.16967 -0.3278,-1.05864 -0.79294,-1.81662 -0.79294,-1.29214 0,0.85197 0.63009,3.4374 1.09246,4.48268 0.51239,1.15834 0.51623,1.24228 0.0789,1.7255 -0.93252,1.03042 -2.49651,0.49698 -3.55252,-1.21168 -0.31485,-0.50943 -0.66228,-0.92624 -0.77208,-0.92624 -0.4138,0 -2.40175,4.41883 -2.56058,5.69166 -0.15948,1.2781 -0.15076,1.30099 0.27601,0.72449 0.55749,-0.75308 1.23475,-0.75375 2.38103,-0.002 1.30495,0.85542 2.33054,2.5213 2.1442,3.48286 -0.20573,1.06163 -0.61637,1.48043 -1.4516,1.48043 -0.86115,0 -1.75977,-0.90376 -2.89387,-2.91042 l -0.82244,-1.45521 0.002,0.92604 c 0.003,1.30158 0.66908,4.2968 1.17175,5.26885 0.25292,0.48911 0.62929,0.81657 0.93853,0.81657 0.59071,0 1.4569,1.15553 1.18996,1.58745 -0.68977,1.11607 3.79439,2.70641 6.90229,2.44796 1.22596,-0.10195 1.41984,-0.0382 2.17276,0.71475 0.93006,0.93005 1.3214,2.38364 0.89418,3.32129 -0.2409,0.52872 -0.16494,0.77205 0.50366,1.61336 0.43303,0.54491 1.85229,3.12559 3.15389,5.73484 1.72415,3.4563 2.48841,5.31114 2.81545,6.83305 0.33441,1.55619 0.55735,2.08897 0.87414,2.08897 0.8506,0 1.60131,0.78922 1.60131,1.68347 0,0.72378 -0.59045,1.54765 -3.73429,5.21051 -4.40509,5.13234 -6.0818,7.34292 -8.41752,11.09768 -0.9505,1.52797 -2.40566,3.46274 -3.23369,4.29948 -1.28506,1.29859 -1.64675,1.52136 -2.4701,1.52136 -0.53054,0 -1.1949,-0.12326 -1.47638,-0.2739 -0.6977,-0.3734 -0.6454,0.0561 0.0911,0.74802 0.83664,0.78598 3.38762,2.16048 4.02735,2.16999 0.32904,0.005 1.4701,-0.96892 3.01714,-2.5749 z m 37.311189,-2.94109 c 0.14442,-0.26985 0.34164,-1.26236 0.43828,-2.20559 l 0.1757,-1.71496 -1.23335,-0.34532 c -0.67835,-0.18992 -1.66166,-0.68569 -2.18514,-1.1017 -1.1587,-0.92081 -1.64037,-0.97069 -1.48419,-0.15369 0.15139,0.79195 -0.59678,1.44885 -1.77609,1.55943 -0.85306,0.08 -0.75796,0.14513 1.20682,0.82663 3.00473,1.04221 3.75428,1.54986 3.96764,2.68716 0.19525,1.04074 0.49295,1.19055 0.89033,0.44804 z m -5.53562,-6.8903 c 0,-0.32767 -1.79959,-1.87949 -2.17957,-1.87949 -0.16999,0 0.15597,0.47625 0.72436,1.05833 1.01685,1.04135 1.45521,1.28871 1.45521,0.82116 z m -7.32405,-7.60416 c -0.29471,-0.44979 -0.49778,-0.57547 -0.57167,-0.3538 -0.063,0.18908 0.10313,0.50299 0.36925,0.69758 0.68725,0.50253 0.72023,0.4465 0.20242,-0.34378 z m 5.39596,-4.49369 c -0.20589,-0.20589 -3.05611,-0.88445 -3.73841,-0.89001 -0.87518,-0.007 -0.17613,0.37993 1.253,0.69378 1.5714,0.3451 2.72539,0.43621 2.48541,0.19623 z m -39.250919,-2.10873 c 0.70764,-1.09996 1.46433,-2.06812 1.68153,-2.15147 0.21719,-0.0833 0.9479,-0.0239 1.62379,0.13202 0.95217,0.2197 1.61616,0.19624 2.94869,-0.10419 3.32329,-0.74927 4.21506,-1.14512 4.90511,-2.17739 0.35541,-0.53167 0.89631,-1.27752 1.202,-1.65745 l 0.5558,-0.69078 -0.55333,-1.08462 c -0.30434,-0.59654 -0.55516,-1.35725 -0.55739,-1.69047 -0.004,-0.63302 -0.41276,-1.47498 -0.61119,-1.25965 -0.0632,0.0685 -0.41758,0.7275 -0.78758,1.46434 -0.64086,1.27623 -2.18815,2.9281 -3.30019,3.52325 -0.28407,0.15203 -1.92764,0.52521 -3.65237,0.82929 -3.42595,0.60401 -4.54421,1.12037 -5.38997,2.48883 -0.80418,1.30119 -1.00366,3.20131 -0.40547,3.8623 0.26098,0.28838 0.60488,0.52244 0.76423,0.52012 0.15935,-0.002 0.8687,-0.90417 1.57634,-2.00413 z m 44.638469,1.47917 c 0.90684,0 4.38141,-1.7975 4.84643,-2.5072 0.61662,-0.94109 0.33278,-1.17085 -0.57116,-0.46234 -1.20258,0.94258 -3.33765,2.10549 -4.51108,2.45706 -0.60884,0.18241 -1.10699,0.41203 -1.10699,0.51026 0,0.37016 0.37176,0.53005 0.63059,0.27121 0.14795,-0.14794 0.46844,-0.26899 0.71221,-0.26899 z m 8.88336,-7.80521 c 0.23209,-0.43656 1.13588,-1.60316 2.00843,-2.59244 0.87254,-0.98927 1.54216,-1.84296 1.48804,-1.89708 -0.31882,-0.31882 -2.76896,2.01808 -3.82678,3.64992 -0.67668,1.04386 -1.45366,2.22054 -1.72662,2.61483 -0.27297,0.39429 -0.49631,0.86622 -0.49631,1.04874 0,0.42794 2.00106,-1.7853 2.55324,-2.82397 z m -2.81782,36.41106 c 0,-0.26948 1.0563,-0.51659 1.53134,-0.35825 0.66424,0.22142 0.28533,0.59199 -0.6053,0.59199 -0.50933,0 -0.92604,-0.10519 -0.92604,-0.23374 z"
       style="fill:#ffffff;fill-opacity:1"
       id="path1" />
  </g>
</svg>
