<?xml version="1.0" encoding="UTF-8" standalone="no"?>
<!-- Created with Inkscape (http://www.inkscape.org/) -->

<svg
   width="66.710175mm"
   height="58.101303mm"
   viewBox="0 0 66.710175 58.101303"
   version="1.1"
   id="svg1"
   xmlns="http://www.w3.org/2000/svg"
   xmlns:svg="http://www.w3.org/2000/svg">
  <defs
     id="defs1" />
  <g
     id="layer1"
     transform="translate(-71.766342,-119.56487)">
    <path
       d="m 96.393697,177.09602 c -0.8081,-0.31058 -1.80642,-0.83259 -2.2185,-1.16002 -0.91088,-0.72376 -1.97904,-0.76287 -2.82499,-0.10343 -0.80077,0.62422 -4.61627,1.19759 -6.36702,0.9568 -0.81237,-0.11173 -1.60059,-0.43352 -2.10828,-0.86072 -0.44596,-0.37525 -1.60187,-0.93874 -2.56868,-1.2522 -1.1981,-0.38844 -1.7872,-0.72139 -1.85002,-1.04561 -0.10702,-0.55227 0.37484,-0.92616 1.20104,-0.93193 0.8732,-0.006 0.93898,-0.38746 0.20369,-1.18086 -2.13323,-2.30179 -2.9488,-6.32303 -1.78683,-8.81011 0.76103,-1.62891 4.1237,-3.44626 5.89551,-3.18621 l 0.75442,0.11073 0.15758,-2.39849 c 0.0867,-1.31917 0.18543,-3.38527 0.21946,-4.59133 l 0.0619,-2.19284 -1.48859,-0.60858 c -0.81873,-0.33472 -2.10044,-0.98505 -2.84825,-1.44518 -1.61934,-0.99639 -1.88086,-1.02887 -1.88086,-0.23357 0,0.71448 -1.71194,2.57197 -2.37042,2.57197 -0.54812,0 -1.33375,-0.8071 -1.33375,-1.3702 0,-0.69406 1.55253,-2.59855 2.11832,-2.59855 0.29013,0 0.52751,-0.0537 0.52751,-0.11935 0,-0.0656 -0.41776,-0.92884 -0.92836,-1.91822 -0.63381,-1.22814 -1.02826,-2.47046 -1.24323,-3.91555 -0.25457,-1.7113 -0.60682,-2.67483 -1.83931,-5.03119 -2.30977,-4.41598 -2.70682,-6.77332 -1.27033,-7.54211 0.87018,-0.4657 4.7902,-0.30464 6.53626,0.26856 l 1.60701,0.52755 1.40607,-0.94621 1.40607,-0.94622 -0.0827,-2.99396 c -0.0916,-3.31614 0.0697,-3.86629 1.28056,-4.36785 1.46544,-0.607 3.16721,-0.0473 9.45808,3.11046 2.34724,1.17824 4.9275,3.0839 5.838823,4.31227 0.47875,0.6453 1.14164,1.52435 1.4731,1.95343 l 0.60265,0.78015 0.81694,-0.58171 c 1.3437,-0.95681 2.9842,-0.61977 2.9842,0.61309 0,0.47047 -0.36668,0.91914 -1.34386,1.64434 -1.24535,0.9242 -1.33346,1.06276 -1.20194,1.88999 0.18922,1.19013 0.25491,1.22766 1.49745,0.85539 1.32199,-0.39608 1.93376,-0.22139 2.33894,0.66788 0.46705,1.02507 -0.28943,1.63439 -2.57574,2.0747 -0.90203,0.17371 -1.0656,0.3602 -1.23286,1.40561 -0.0865,0.5406 -0.32922,1.3739 -0.53941,1.85178 -0.21019,0.47788 -0.38216,0.91352 -0.38216,0.96809 0,0.0546 1.07986,0.91373 2.3997,1.90925 4.46079,3.36468 9.71525,10.46838 11.22204,15.1715 0.25642,0.80036 0.56907,1.56674 0.69478,1.70306 0.38039,0.4125 1.47396,-0.85306 1.82714,-2.11451 0.27494,-0.98196 0.25699,-1.44616 -0.11281,-2.91834 -0.24186,-0.96286 -0.78535,-2.43528 -1.20775,-3.27205 -2.56824,-5.08766 -2.57465,-9.37684 -0.0196,-13.09055 2.05077,-2.98069 5.65854,-4.73326 8.52058,-4.13911 4.08094,0.8472 4.76037,3.25639 1.38578,4.91379 -2.36335,1.16074 -2.94984,1.61497 -3.51463,2.72206 -1.01189,1.98347 -0.97191,3.05598 0.23882,6.40607 2.11769,5.85962 2.18279,6.11023 2.19911,8.46666 0.0191,2.75441 -0.30662,3.93961 -1.6567,6.02844 -1.22046,1.88829 -2.9766,3.04736 -5.37819,3.54969 -1.46883,0.30722 -1.53619,0.35824 -1.80862,1.36998 -0.15564,0.57798 -0.30253,1.33103 -0.32644,1.67346 -0.0488,0.69954 -0.75576,0.62663 9.82415,1.01325 3.18568,0.11642 4.79339,0.28248 5.29166,0.54658 0.49175,0.26065 1.13113,0.32948 2.04316,0.21995 1.13511,-0.13632 1.40089,-0.0783 1.8344,0.40077 0.46349,0.51215 0.47087,0.59628 0.0861,0.98108 -0.35718,0.35719 -0.61482,0.37589 -1.7021,0.12357 -1.37245,-0.3185 -9.56255,-0.2593 -10.10022,0.073 -0.17002,0.10507 -0.30912,0.3435 -0.30912,0.52984 0,0.42261 -1.26161,1.02201 -1.64821,0.78308 -0.17517,-0.10826 -0.20864,-0.052 -0.0866,0.1456 0.2761,0.44675 -0.60073,1.34713 -1.3119,1.34713 -0.52619,0 -1.02603,-0.46114 -1.71319,-1.58057 -0.20174,-0.32863 -0.34247,-0.29308 -0.89518,0.22616 -0.36069,0.33885 -0.77545,0.54215 -0.92169,0.45177 -0.14624,-0.0904 -0.34569,-0.0352 -0.44323,0.12261 -0.0975,0.15782 -0.34007,0.22449 -0.53897,0.14816 -0.1989,-0.0763 -0.43017,-0.0279 -0.51392,0.10762 -0.0838,0.13551 -0.68052,0.17398 -1.32617,0.0855 -0.96994,-0.13295 -1.20503,-0.0797 -1.35315,0.30626 -0.16284,0.42434 -0.46231,0.45061 -3.26709,0.28655 -2.71151,-0.1586 -3.26265,-0.11638 -4.52231,0.34646 -3.96554,1.45708 -6.544483,1.66526 -8.989183,0.72565 z m 3.934793,-2.69162 c 0.75402,-0.22392 1.37094,-0.49996 1.37094,-0.61344 0,-0.11347 -0.17051,-0.79346 -0.37891,-1.5111 -0.50559,-1.74107 -0.77576,-6.30303 -0.46116,-7.78708 0.13882,-0.65485 0.44199,-1.905 0.67372,-2.77813 0.25919,-0.97662 0.4695,-3.1708 0.54653,-5.70206 0.0689,-2.26302 0.20109,-4.31231 0.29383,-4.554 0.20998,-0.54721 1.02179,-0.82074 1.83219,-0.61734 0.9329,0.23414 1.19796,1.42572 1.19796,5.38532 v 3.56107 l 0.72761,-0.2063 c 1.13419,-0.32158 2.14839,-0.18559 4.36436,0.58519 1.1271,0.39203 2.10267,0.65939 2.16794,0.59411 0.19318,-0.19317 -0.35141,-2.38358 -0.94688,-3.80849 -1.59102,-3.80718 -8.94539,-12.83229 -10.45676,-12.83229 -0.17106,0 -0.56736,0.41475 -0.88065,0.92167 -0.742223,1.20094 -3.745343,3.68964 -5.426663,4.49711 -0.7276,0.34943 -2.45401,0.86104 -3.83646,1.1369 l -2.51354,0.50156 -0.1969,2.22607 c -0.10829,1.22433 -0.38551,4.19059 -0.61604,6.59169 -0.23053,2.40109 -0.49911,5.96549 -0.59685,7.92088 l -0.17771,3.55525 -1.19062,0.69552 c -1.71725,1.00315 -1.58572,1.46759 0.39687,1.40136 2.61252,-0.0873 3.21651,-0.27219 3.52081,-1.07792 0.14979,-0.39662 0.34031,-2.32848 0.42336,-4.29301 0.0831,-1.96453 0.27513,-3.98859 0.42683,-4.49791 0.38317,-1.28648 0.38865,-8.14016 0.007,-9.11634 -0.27214,-0.69661 -0.23896,-0.83315 0.30395,-1.25089 0.82691,-0.63627 1.3555,-0.59796 2.26083,0.16382 0.52459,0.44142 0.90653,1.15011 1.21204,2.24896 0.24534,0.88244 0.56464,1.60445 0.70955,1.60445 0.14491,0 0.26432,-0.56555 0.26535,-1.25678 0.001,-0.69122 0.0788,-2.07105 0.17275,-3.06628 0.16233,-1.71905 0.21433,-1.83023 1.04005,-2.22399 0.79983,-0.38142 0.92504,-0.37788 1.56946,0.0444 l 0.70028,0.45885 -0.179,10.23181 -0.179,10.23182 -0.63717,0.5391 c -0.63172,0.5345 -0.80891,1.2999 -0.43468,1.87769 0.16365,0.25266 0.57084,0.42539 1.40314,0.59522 0.0827,0.0169 0.76733,-0.15251 1.521353,-0.37643 z m 9.31869,-2.45531 c 0.56766,-0.20999 0.55293,-0.246 -0.43304,-1.05872 -0.56138,-0.46274 -1.09989,-0.84134 -1.19669,-0.84134 -0.35854,0 -0.48605,-0.84936 -0.20604,-1.37255 0.40737,-0.76118 1.75547,-0.49672 3.75302,0.73625 1.8946,1.1694 2.0314,1.05756 2.0372,-1.66544 l 0.004,-1.90486 -1.65365,-1.17821 c -2.34757,-1.67262 -3.40217,-2.12696 -4.46848,-1.92512 -1.31442,0.24881 -2.33252,1.18864 -2.61625,2.41513 -0.41083,1.77588 -0.3143,5.6049 0.16465,6.53108 l 0.4221,0.81626 1.80274,-0.16754 c 0.99151,-0.0921 2.06719,-0.26537 2.39039,-0.38494 z M 94.290397,170.2534 c 0.4997,-0.53637 0.53623,-0.81405 0.40618,-3.0878 -0.14639,-2.55949 -0.27512,-3.04728 -0.64585,-2.44742 -0.29366,0.47514 -0.8855,5.53669 -0.68528,5.86065 0.22765,0.36835 0.30344,0.34169 0.92495,-0.32543 z m -10.26661,-3.1241 c 0.0283,-1.30457 0.0581,-2.75603 0.0661,-3.22547 0.012,-0.69822 -0.11724,-0.89992 -0.7104,-1.10853 -0.97793,-0.34391 -2.49462,0.37665 -2.87383,1.36533 -0.7972,2.07843 1.48778,6.39966 2.96575,5.60868 0.42767,-0.22888 0.50841,-0.61481 0.55234,-2.64001 z m 35.785773,-3.47609 c 1.59357,-1.05554 2.68543,-2.54903 3.22799,-4.41538 0.58032,-1.99622 0.35447,-3.59388 -0.97355,-6.88707 -1.54672,-3.83552 -2.10832,-5.96239 -2.10832,-7.98449 0,-2.74566 0.55987,-3.99076 2.51964,-5.60339 1.55959,-1.28333 1.86922,-1.78677 1.09893,-1.78677 -0.17541,0 -1.05029,0.59176 -1.94416,1.31503 -2.13087,1.72417 -3.26191,3.86131 -3.26191,6.16352 0,2.12279 0.59908,4.29106 2.06226,7.464 0.96142,2.08486 1.24464,3.02014 1.32393,4.37203 0.14469,2.46697 -0.65271,4.46445 -2.50361,6.27151 -2.09549,2.04585 -1.78828,2.64565 0.5588,1.09101 z M 90.640047,147.5263 c 3.46918,-0.73666 6.69397,-3.32489 8.61881,-6.91748 0.957493,-1.78712 1.062443,-2.1415 0.802863,-2.7112 -0.222753,-0.4889 -0.220703,-0.91539 0.008,-1.67903 0.4131,-1.37879 0.38842,-1.62373 -0.163603,-1.62373 -0.65492,0 -1.64637,-0.74127 -1.64637,-1.23093 0,-0.22395 0.24978,-0.75796 0.55507,-1.1867 0.75887,-1.06573 0.55178,-1.64636 -1.36225,-3.81936 -1.79416,-2.0369 -2.35916,-2.43372 -1.72835,-1.21386 0.57038,1.10299 0.52645,1.56021 -0.17118,1.78163 -0.62202,0.19742 -0.63313,0.18685 -2.64078,-2.51209 -1.29536,-1.74138 -1.69678,-1.65566 -0.77722,0.16597 1.03431,2.04895 1.31148,3.45197 0.72631,3.67652 -0.621,0.2383 -1.11437,-0.27483 -2.42785,-2.52503 -0.64198,-1.09983 -1.41603,-2.29735 -1.72011,-2.66115 -0.66836,-0.79965 -0.6251,-0.55394 0.40762,2.31529 0.53788,1.49441 0.62793,2.03532 0.40739,2.44739 -0.41243,0.77064 -0.84079,0.65038 -1.5874,-0.44568 -0.54193,-0.79558 -0.67527,-0.87892 -0.7379,-0.46121 -0.19707,1.31422 -0.36351,1.7049 -0.83355,1.95645 -0.40143,0.21484 -0.67018,0.13387 -1.29184,-0.38923 -0.43174,-0.36328 -0.97585,-0.66051 -1.20914,-0.66051 -0.73117,0 -3.6999,4.04266 -4.37682,5.96013 -0.81336,2.30395 -0.69584,5.1269 0.30439,7.31169 0.55814,1.21913 0.98042,1.69075 2.34145,2.61501 2.77641,1.88542 5.45375,2.45447 8.50237,1.80711 z m -4.30681,-2.32776 c -0.42537,-0.42536 -0.7734,-0.89919 -0.7734,-1.05295 0,-0.32134 1.62904,-1.18805 2.73171,-1.45339 0.41673,-0.10027 1.15378,-0.0329 1.66611,0.15241 0.8038,0.29066 0.90894,0.43181 0.84017,1.12793 -0.0607,0.61433 -0.31984,0.93189 -1.13694,1.3932 -1.45662,0.82235 -2.38473,0.77572 -3.32765,-0.1672 z m -4.42357,-1.49397 c -0.67792,-0.47484 -1.90608,-2.74913 -1.90608,-3.52966 0,-0.66301 0.93221,-1.33016 1.6107,-1.15273 0.28496,0.0745 0.99164,0.67343 1.57038,1.33092 0.81712,0.92829 1.05226,1.41177 1.05226,2.16359 0,1.55428 -1.04363,2.08696 -2.32726,1.18788 z m 8.73607,-3.44902 c -1.40939,-1.1107 -2.44329,-3.60757 -1.90799,-4.60779 0.74865,-1.39887 3.69919,0.14424 4.60515,2.40847 0.93656,2.3407 -0.76114,3.72504 -2.69716,2.19932 z M 124.834,175.75824 c -0.57656,-0.42159 -0.38739,-1.32279 0.29835,-1.42138 0.59195,-0.0851 1.58285,0.81985 1.33566,1.21981 -0.26271,0.42506 -1.17454,0.53755 -1.63401,0.20157 z m 4.44824,0.0736 c -0.79196,-0.79593 -0.005,-1.54947 1.61735,-1.54947 1.15731,0 2.2568,0.99481 1.55765,1.40934 -0.58372,0.3461 -2.86967,0.44699 -3.175,0.14013 z m 8.6651,-3.26926 c -0.26976,-0.32505 -0.25168,-0.39688 0.0999,-0.39688 0.2361,0 0.42928,0.1786 0.42928,0.39688 0,0.21828 -0.045,0.39687 -0.0999,0.39687 -0.0549,0 -0.24812,-0.17859 -0.42928,-0.39687 z M 72.714847,146.12199 c -0.54142,-0.82632 -0.22765,-1.45512 1.07238,-2.14907 l 0.96387,-0.51451 0.63222,0.73113 c 0.74928,0.86652 0.66943,1.18705 -0.49347,1.98085 -1.11843,0.76344 -1.65083,0.75159 -2.175,-0.0484 z"
       style="fill:#ffffff"
       id="path1" />
  </g>
</svg>
