<?xml version="1.0" encoding="UTF-8" standalone="no"?>
<!-- Created with Inkscape (http://www.inkscape.org/) -->

<svg
   width="68.461975mm"
   height="31.666183mm"
   viewBox="0 0 68.461975 31.666183"
   version="1.1"
   id="svg1"
   sodipodi:docname="nacho-laying-2.svg"
   inkscape:version="1.3.2 (091e20e, 2023-11-25)"
   xmlns:inkscape="http://www.inkscape.org/namespaces/inkscape"
   xmlns:sodipodi="http://sodipodi.sourceforge.net/DTD/sodipodi-0.dtd"
   xmlns="http://www.w3.org/2000/svg"
   xmlns:svg="http://www.w3.org/2000/svg">
  <sodipodi:namedview
     id="namedview1"
     pagecolor="#505050"
     bordercolor="#eeeeee"
     borderopacity="1"
     inkscape:showpageshadow="0"
     inkscape:pageopacity="0"
     inkscape:pagecheckerboard="0"
     inkscape:deskcolor="#505050"
     inkscape:document-units="mm"
     inkscape:zoom="2.4617984"
     inkscape:cx="129.58006"
     inkscape:cy="59.915547"
     inkscape:window-width="1392"
     inkscape:window-height="1212"
     inkscape:window-x="2240"
     inkscape:window-y="25"
     inkscape:window-maximized="0"
     inkscape:current-layer="svg1" />
  <defs
     id="defs1" />
  <g
     id="layer1"
     transform="translate(-70.81431,-132.67922)">
    <path
       d="m 91.625338,164.035 c -0.46919,-0.21475 -1.296181,-0.83357 -1.837751,-1.37514 -0.55407,-0.55406 -1.02952,-0.85017 -1.08721,-0.6771 -0.1823,0.54692 -3.75539,0.38655 -4.88575,-0.21929 -1.45955,-0.78227 -3.32836,-1.14402 -4.1509,-0.80348 -0.37349,0.15463 -1.45297,0.32831 -2.39886,0.38595 -0.94588,0.0577 -2.6749,0.18982 -3.84226,0.2937 -1.75867,0.1565 -2.1811,0.11824 -2.46448,-0.22322 -0.5315,-0.64042 0.33479,-0.95242 3.86848,-1.39325 1.70485,-0.21268 3.54849,-0.54296 4.09698,-0.73395 0.93206,-0.32457 0.96665,-0.3738 0.52916,-0.7531 -0.25745,-0.22321 -1.51677,-0.95793 -2.7985,-1.63272 -3.89468,-2.05043 -5.75483,-3.9151 -5.23495,-5.24767 0.4271,-1.09475 1.96951,-2.28189 4.03756,-3.10759 1.11565,-0.44543 2.12768,-0.80996 2.24896,-0.81007 0.32129,-2.7e-4 1.73833,-3.96184 1.75078,-4.8946 0.006,-0.43657 -0.43245,-1.77337 -0.97395,-2.97067 -1.4089,-3.11518 -1.47868,-3.8206 -0.47701,-4.82227 0.67581,-0.67581 1.01248,-0.80602 2.08399,-0.80602 0.70288,0 2.11102,0.23459 3.12921,0.52132 1.9724,0.55544 4.89395,1.83456 4.89395,2.14269 0,0.10201 0.75207,0.1251 1.67127,0.0513 1.530051,-0.12282 3.524811,0.13501 4.784541,0.61841 0.47073,0.18064 0.49,0.0908 0.31411,-1.46388 -0.22856,-2.02017 0.15383,-1.94749 0.61585,0.11707 0.20095,0.89793 0.45321,1.4425 0.64012,1.38189 0.16967,-0.055 0.66567,-0.95172 1.10223,-1.99267 0.55891,-1.33266 0.9332,-1.8945 1.26508,-1.89897 0.77532,-0.0104 0.82923,0.73393 0.19875,2.74428 -1.02704,3.27486 -0.2419,4.05698 1.28922,1.28427 0.601442,-1.08915 1.077702,-1.65365 1.395162,-1.65365 0.73818,0 0.59988,0.91259 -0.4649,3.06754 -0.78296,1.58459 -0.89587,2.01173 -0.65215,2.46713 0.37622,0.70298 0.40177,0.70053 2.46829,-0.23647 5.4034,-2.45002 9.96666,-2.52001 14.60889,-0.22408 1.69318,0.83741 2.42765,1.34265 5.18882,3.56938 2.47022,1.99209 3.15242,1.8771 3.13974,-0.5292 -0.009,-1.71775 -0.89474,-3.29769 -2.95346,-5.26851 l -1.87027,-1.79042 0.12933,-1.34601 c 0.10111,-1.05225 0.30776,-1.52444 0.94685,-2.16353 0.69192,-0.69192 1.06345,-0.8353 2.41834,-0.93331 1.77338,-0.12827 2.60499,0.12354 4.64285,1.40586 2.9842,1.8778 4.61953,4.55395 4.83506,7.91239 0.17646,2.74962 -0.29896,4.63391 -1.67704,6.6468 l -1.16318,1.69901 1.47114,0.72035 c 2.43588,1.19273 3.4366,2.97117 2.81378,5.00051 l -0.27222,0.88699 1.14307,-0.15668 c 0.62869,-0.0862 1.59109,-0.0726 2.13865,0.0301 l 0.99558,0.18677 -0.83318,0.52753 c -0.5455,0.34538 -1.40762,0.55644 -2.49685,0.61127 -1.03568,0.0521 -2.67456,0.43638 -4.34168,1.01796 -3.75676,1.31055 -11.75604,2.38394 -16.67934,2.23812 -2.13635,-0.0633 -2.51609,-0.004 -3.20007,0.50107 -1.86709,1.37823 -6.57426,2.17316 -13.955092,2.3567 -4.3118,0.10723 -5.44963,0.0593 -6.14474,-0.25886 z m 12.704612,-2.68804 c 4.54836,-0.50122 5.81271,-0.97098 6.25984,-2.32579 0.49661,-1.50475 -0.12679,-2.45108 -2.51188,-3.81305 -1.08751,-0.621 -2.6015,-1.37455 -3.36443,-1.67455 -1.44309,-0.56746 -2.31319,-1.18746 -2.31319,-1.6483 0,-0.48888 0.86634,-1.2366 1.43278,-1.2366 0.65724,0 4.00673,1.42241 5.7331,2.43464 1.52167,0.89221 2.87106,2.37241 3.67307,4.02913 0.51583,1.06556 0.56573,1.36878 0.2963,1.8002 -0.4462,0.71449 -0.2004,0.85486 0.7558,0.4316 0.76066,-0.3367 0.81254,-0.45293 0.8691,-1.94713 0.0331,-0.87398 0.0362,-2.16274 0.007,-2.8639 -0.0451,-1.07965 0.0166,-1.26156 0.40287,-1.18807 0.31191,0.0593 0.49796,0.42059 0.58842,1.14256 0.10466,0.83528 0.2428,1.05577 0.66146,1.05577 0.42396,0 0.53378,-0.18412 0.55235,-0.92605 0.0365,-1.4595 0.0762,-1.54655 0.63827,-1.39957 0.40943,0.10706 0.52917,0.36089 0.52917,1.12175 0,1.21177 0.11247,1.33272 1.00893,1.08504 0.7063,-0.19515 0.77119,-0.41802 0.43923,-1.50853 -0.21802,-0.71621 0.13443,-0.79291 4.76955,-1.03796 3.91972,-0.20724 3.78078,-0.39075 -0.75472,-0.99686 -3.31114,-0.44249 -3.95004,-0.711 -3.82211,-1.60634 0.0682,-0.47696 0.23233,-0.54086 1.20339,-0.46832 0.702,0.0524 1.12448,-0.027 1.12448,-0.21157 0,-0.59405 -0.77863,-1.75058 -1.89701,-2.8177 -1.32993,-1.26898 -4.39042,-3.53702 -4.77284,-3.53702 -0.1439,0 -0.63682,-0.16091 -1.09537,-0.35758 -1.81727,-0.77942 -3.27882,-0.96953 -5.29632,-0.68892 -2.53399,0.35244 -5.17862,1.11512 -6.5881,1.89991 -0.90473,0.50375 -1.10516,0.7488 -1.04218,1.27421 0.0429,0.35778 0.0937,1.74592 0.11288,3.08476 0.0331,2.30462 -0.0169,2.53906 -0.93787,4.40252 -0.53502,1.08256 -0.97277,2.01121 -0.97277,2.06367 0,0.0525 0.82748,0.0954 1.83885,0.0954 1.96286,0 2.54863,0.28813 2.28357,1.12326 -0.19476,0.61364 -1.07966,0.91291 -5.237032,1.77112 -2.67466,0.55214 -5.39816,1.55253 -6.10796,2.24356 -0.1161,0.11303 -0.0672,0.52129 0.10862,0.90723 l 0.31972,0.7017 h 3.67313 c 2.02021,0 5.364622,-0.18639 7.432012,-0.41421 z m -14.217223,-2.92738 c 0.86456,-0.52819 2.604771,-1.47623 3.867131,-2.10675 1.26236,-0.63052 2.61451,-1.47828 3.00477,-1.88392 2.05336,-2.13426 2.83507,-6.44118 1.71036,-9.4234 -0.68668,-1.82076 -2.75442,-4.01292 -4.69428,-4.97673 -1.0509,-0.52214 -1.64927,-0.62256 -3.638961,-0.61068 -2.12694,0.0127 -2.55125,0.1016 -3.97305,0.83248 -1.96192,1.00853 -4.28724,3.36747 -3.84489,3.90047 0.16289,0.19627 0.71599,0.43561 1.2291,0.53187 1.16489,0.21854 8.086491,2.7448 8.427691,3.07596 0.13824,0.13418 0.5252,0.24396 0.8599,0.24396 0.33469,0 0.60854,0.11906 0.60854,0.26458 0,0.14553 -0.59457,0.26459 -1.32126,0.26459 -0.99128,0 -1.965941,-0.28942 -3.902601,-1.15887 -4.24077,-1.90385 -6.42358,-2.52754 -6.8657,-1.96175 -0.55367,0.70855 -1.17762,4.96127 -1.02462,6.98359 0.18328,2.42262 0.57368,3.39906 1.92833,4.8231 1.38409,1.45498 1.91417,1.41837 3.08628,-0.21312 0.95565,-1.33019 2.05983,-1.91852 2.59545,-1.38291 0.19423,0.19424 -0.13443,0.69037 -1.09109,1.64704 -0.75299,0.75298 -1.32804,1.49213 -1.2779,1.64254 0.0874,0.26228 2.75271,-2.34863 3.1899,-3.12481 0.286,-0.50776 1.48565,-0.4777 1.68517,0.0422 0.10647,0.27745 -0.29645,0.88042 -1.19893,1.79426 -2.0321,2.05766 -1.83172,2.30672 0.64066,0.79627 z m -2.98632,-3.86967 c -0.86691,-0.63416 -1.05314,-0.89727 -0.8275,-1.16915 0.16015,-0.19296 0.48495,-0.35128 0.7218,-0.35182 0.77237,-0.002 2.19946,-1.06553 2.50093,-1.86419 0.35957,-0.95262 0.56835,-0.97489 1.12825,-0.12037 0.669901,1.02239 0.30525,2.27874 -0.99126,3.4152 -0.59708,0.52338 -1.15939,0.94193 -1.24957,0.93012 -0.0902,-0.0118 -0.66738,-0.38972 -1.28265,-0.83979 z m 7.245161,-3.30592 c -0.22018,-0.35681 -0.17094,-4.95185 0.0569,-5.3113 0.13357,-0.21071 0.58013,-0.31617 1.12039,-0.26458 l 0.89829,0.0858 -0.023,1.5875 c -0.0258,1.78135 -0.89351,4.10104 -1.53401,4.10104 -0.21787,0 -0.45123,-0.0893 -0.51858,-0.19843 z m -2.28322,-7.54063 c -0.27093,-0.61846 -0.53213,-1.53766 -0.58044,-2.04266 -0.12142,-1.26934 0.54254,-1.34428 1.78908,-0.20191 l 0.97943,0.89759 -0.47193,1.23573 c -0.25956,0.67965 -0.64104,1.23573 -0.84773,1.23573 -0.2067,0 -0.59748,-0.50601 -0.86841,-1.12448 z m 25.080862,14.55209 c -0.10293,-0.72476 -0.51416,-0.70056 -0.79053,0.0465 -0.16357,0.44218 -0.0983,0.54879 0.33604,0.54879 0.40766,0 0.51843,-0.14509 0.45449,-0.59531 z m 4.14879,-0.263 c 0.1747,-0.17272 -0.05,-0.2184 -0.66146,-0.13449 -0.50933,0.0699 -1.20246,0.001 -1.5403,-0.15261 -0.59157,-0.26938 -1.08846,0.0395 -1.10148,0.6847 -0.006,0.28109 2.98028,-0.0783 3.30324,-0.3976 z m 8.20676,-0.73039 c 2.144,-0.54834 3.53008,-1.30742 1.71511,-0.93927 -1.66622,0.33798 -6.19549,0.92351 -7.2099,0.93209 -0.74165,0.006 -0.99218,0.11845 -0.99218,0.44429 0,0.38338 0.26473,0.41556 2.19708,0.26702 1.20839,-0.0929 3.13884,-0.40974 4.28989,-0.70413 z m -3.44426,-2.16502 c 1.60072,-0.13878 3.44619,-0.28499 4.10104,-0.32492 0.65484,-0.0399 1.46554,-0.0911 1.80155,-0.11364 0.86128,-0.0579 0.48118,-0.51784 -0.92659,-1.12129 -1.41146,-0.60502 -1.40413,-0.60426 -1.40413,-0.14421 0,0.45731 -1.33093,0.68913 -5.34913,0.93172 -2.99229,0.18065 -3.82928,0.38201 -3.20128,0.77013 0.45192,0.27931 1.77552,0.27989 4.97854,0.002 z m 5.1336,-9.02533 c 0.30521,-0.6305 0.54419,-1.61478 0.53105,-2.1873 -0.022,-0.95834 -0.0622,-0.89726 -0.50623,0.76967 -0.26529,0.99584 -0.76056,2.11333 -1.10059,2.48331 -0.59252,0.64469 -0.59455,0.66037 -0.0487,0.37668 0.31324,-0.16281 0.81926,-0.81187 1.12448,-1.44236 z m -0.83766,-5.13121 c -0.12101,-1.50749 -0.32332,-2.23917 -0.52851,-1.91144 -0.038,0.0606 -0.0281,1.11952 0.022,2.35308 0.0702,1.72859 0.15432,2.12982 0.36694,1.74988 0.15613,-0.279 0.2167,-1.23023 0.13954,-2.19152 z m 1.04417,-0.92477 c -0.0845,-0.21106 -0.14716,-0.14837 -0.15985,0.15985 -0.0115,0.27892 0.051,0.43519 0.13896,0.34727 0.0879,-0.0879 0.0973,-0.31612 0.0209,-0.50712 z m -4.86658,-1.53789 c -0.0761,-0.29104 -0.24355,-0.52917 -0.3721,-0.52917 -0.27661,0 -0.28626,0.0844 -0.0731,0.63982 0.23312,0.60751 0.60863,0.51418 0.44523,-0.11065 z m -0.60583,-1.05833 c 0,-0.14552 -0.12609,-0.26459 -0.28019,-0.26459 -0.15411,0 -0.20662,0.11907 -0.11668,0.26459 0.0899,0.14552 0.21603,0.26458 0.2802,0.26458 0.0642,0 0.11667,-0.11906 0.11667,-0.26458 z m 4.08782,-0.23043 c -0.13825,-0.12673 -0.60855,-0.30629 -1.04511,-0.39902 l -0.79375,-0.1686 0.66146,0.38965 c 0.72437,0.42671 1.59175,0.55782 1.1774,0.17797 z m -5.41073,-0.68 c 0,-0.20969 -0.11907,-0.45484 -0.26459,-0.54478 -0.14552,-0.0899 -0.26458,0.0816 -0.26458,0.38126 0,0.29963 0.11906,0.54478 0.26458,0.54478 0.14552,0 0.26459,-0.17157 0.26459,-0.38126 z m 1.5875,-0.62416 c 0,-0.33056 -0.59811,-0.84666 -0.9812,-0.84666 -0.27997,0 -0.28298,0.10123 -0.0157,0.52916 0.32441,0.51948 0.99693,0.73366 0.99693,0.3175 z"
       style="fill:#65c0b1;stroke-width:0;stroke-dasharray:none"
       id="path1" />
  </g>
</svg>
