<?xml version="1.0" encoding="UTF-8" standalone="no"?>
<!-- Created with Inkscape (http://www.inkscape.org/) -->

<svg
   width="77.316078mm"
   height="90.300865mm"
   viewBox="0 0 77.316078 90.300865"
   version="1.1"
   id="svg1"
   xmlns="http://www.w3.org/2000/svg"
   xmlns:svg="http://www.w3.org/2000/svg">
  <defs
     id="defs1" />
  <g
     id="layer1"
     transform="translate(-66.321176,-103.20965)">
    <path
       d="m 99.02625,193.00051 c -2.87337,-0.97916 -7.35641,-4.35053 -9.76353,-7.34245 -4.5524,-5.65841 -7.66664,-11.63158 -9.35534,-17.94377 l -0.70784,-2.64583 -1.95952,0.0865 c -1.54437,0.0682 -2.41368,-0.0578 -4.10315,-0.59445 -2.56494,-0.8148 -4.1305,-1.94193 -5.54013,-3.98865 -0.85583,-1.24262 -1.05186,-1.76864 -1.11909,-3.00289 -0.0448,-0.823 -0.11228,-1.79402 -0.1499,-2.15782 -0.0862,-0.83334 0.69018,-3.19751 1.45793,-4.43976 1.09825,-1.777 3.1177,-3.99073 5.30737,-5.81796 2.9515,-2.46297 4.31648,-3.36827 7.73124,-5.12762 l 2.90112,-1.49471 -1.01362,-0.42352 c -0.55749,-0.23293 -1.06753,-0.42352 -1.13342,-0.42352 -0.3872,0 -3.81819,-2.48741 -4.69792,-3.40592 -1.00635,-1.05072 -1.58976,-1.33717 -1.77634,-0.8722 -0.1067,0.2659 -4.66366,3.32229 -5.30606,3.55881 -0.44167,0.16262 -1.26444,-0.40121 -1.26444,-0.8665 0,-0.71722 4.86852,-3.97044 5.94186,-3.97044 0.33827,0 0.40014,-0.14156 0.26017,-0.59531 -0.27972,-0.90677 -0.90065,-2.05008 -1.11558,-2.05409 -0.2411,-0.005 -4.45217,1.01581 -5.38234,1.3041 -0.83938,0.26015 -1.55619,-0.0903 -1.55619,-0.76091 0,-0.69289 1.77002,-1.47885 4.55062,-2.02064 1.2659,-0.24666 2.35767,-0.59446 2.42614,-0.77289 0.0685,-0.17843 0.20251,-2.15531 0.29786,-4.39307 0.2567,-6.0242 1.254,-11.52694 2.66898,-14.72647 0.91279,-2.06396 1.29529,-2.44175 2.20739,-2.18016 2.68435,0.76986 4.90151,2.43241 5.80384,4.35204 l 0.54331,1.15583 1.13583,-0.39452 c 1.67165,-0.58062 4.40674,-1.12668 5.76604,-1.15117 1.16298,-0.0209 1.24591,-0.0825 3.57188,-2.64928 1.30968,-1.44531 2.84037,-2.97758 3.40152,-3.40505 0.95595,-0.72821 1.07273,-0.75469 1.85209,-0.41994 0.45749,0.19651 1.226,0.50366 1.70781,0.68256 1.15702,0.42961 1.9246,1.49188 3.04678,4.21647 1.13314,2.75124 1.75557,5.65697 1.79706,8.38937 0.0172,1.13392 0.10651,2.40671 0.19844,2.82842 0.16043,0.73604 0.22951,0.76783 1.72459,0.79375 1.18616,0.0206 1.62769,0.13918 1.85208,0.49756 0.36766,0.58719 -0.0397,0.88477 -1.55205,1.13387 -0.58506,0.0964 -1.21257,0.29538 -1.39447,0.44226 -0.42003,0.33918 -0.45073,3.11269 -0.0345,3.11269 0.16295,0 3.40977,-2.07817 7.21515,-4.61815 3.80538,-2.53998 7.49727,-4.874 8.2042,-5.18671 0.79794,-0.35296 2.05006,-0.61518 3.30204,-0.6915 2.55829,-0.15595 3.59877,0.31518 4.4825,2.02969 0.53395,1.03593 0.6002,1.48284 0.50989,3.43959 -0.16666,3.61075 -1.24706,5.22752 -5.48922,8.21435 -1.0914,0.76844 -2.71472,2.00278 -3.60738,2.74297 -0.89265,0.74019 -2.33649,1.91092 -3.20852,2.60161 -4.22705,3.34803 -14.35076,12.72751 -14.35076,13.29578 0,0.95429 3.00913,7.06334 4.83453,9.81492 l 0.54305,0.81858 1.9285,-1.2771 c 1.06068,-0.70241 3.80955,-3.10253 6.1086,-5.33359 4.53765,-4.40344 6.43513,-5.69579 9.20796,-6.27143 3.5964,-0.74661 6.40734,0.83114 6.89312,3.86903 0.14386,0.89968 0.0166,1.37324 -0.81451,3.03049 -2.15115,4.28954 -9.34528,9.68723 -15.67052,11.75744 -3.55878,1.16477 -3.08913,1.80319 3.9026,5.3051 2.58433,1.2944 3.34165,1.82839 5.02708,3.5446 2.17774,2.2175 3.43959,4.4119 3.43959,5.98154 0,2.44018 -4.24937,4.17228 -10.18646,4.15214 -5.80102,-0.0197 -11.33244,-1.97437 -17.9654,-6.34861 -1.59597,-1.0525 -2.96465,-1.85076 -3.0415,-1.7739 -0.0769,0.0768 0.0255,0.4022 0.22738,0.72301 0.20191,0.3208 1.51531,2.84546 2.91865,5.61036 2.52993,4.98449 3.17649,6.89177 3.17649,9.37021 0,2.7571 -3.06298,3.96493 -6.81362,2.68684 z m 2.05112,-2.55735 c 0,-0.0867 -0.23081,-0.48175 -0.51292,-0.87793 -0.28211,-0.39619 -1.15476,-2.02191 -1.93922,-3.61272 -4.73809,-9.60837 -5.71366,-11.38987 -6.41126,-11.70772 -0.85234,-0.38835 -0.76049,-0.80222 0.33365,-1.50341 0.45415,-0.29105 0.86267,-0.70024 0.90783,-0.90932 0.0538,-0.24931 0.48737,-0.40099 1.25954,-0.44068 0.77663,-0.0399 1.29607,-0.22278 1.52598,-0.5372 0.326,-0.44582 0.40389,-0.44912 1.20342,-0.051 0.47017,0.23412 1.51699,0.56114 2.32627,0.72671 1.44747,0.29614 2.91422,1.09267 4.21713,2.29012 0.73763,0.67793 4.70665,2.63729 4.91673,2.42721 0.0738,-0.0738 -0.39705,-0.44563 -1.04643,-0.82619 -2.13794,-1.25292 -7.26262,-8.0755 -6.99513,-9.31275 0.0499,-0.231 0.51658,0.16477 1.1908,1.00995 0.60978,0.7644 2.30672,2.81856 3.77098,4.56481 1.46426,1.74625 2.95699,3.61491 3.31718,4.15258 0.36019,0.53766 1.17402,1.2818 1.80852,1.65364 1.92966,1.13086 2.2486,1.69824 -3.3208,-5.90768 -4.62018,-6.30963 -4.89053,-6.7294 -6.01995,-9.34727 -1.42537,-3.30387 -1.33913,-4.03767 0.15296,-1.30152 1.91772,3.51663 6.05266,9.31515 8.70449,12.20648 0.60111,0.6554 1.71847,2.05168 2.48302,3.10284 1.55,2.13106 2.33813,2.79109 3.82023,3.19933 1.25474,0.34561 1.17739,0.11084 -0.38994,-1.18355 -1.75488,-1.44927 -6.97486,-7.84214 -9.58136,-11.73422 -5.43757,-8.1195 -7.06593,-11.00614 -7.4325,-13.17582 -0.28272,-1.67342 0.65129,-1.3711 1.06591,0.34501 0.62146,2.57228 6.30482,11.26172 11.79426,18.03257 1.95262,2.40842 5.21787,5.77126 5.41367,5.57546 0.35175,-0.35175 -0.30607,-1.36097 -2.31878,-3.55742 -2.11862,-2.31201 -5.98022,-7.30338 -7.01853,-9.07189 -0.29902,-0.50932 -1.21987,-2.04227 -2.04633,-3.40655 -2.25552,-3.72332 -3.46644,-6.27695 -4.11265,-8.67284 -0.56294,-2.08713 -0.61111,-2.163 -1.47652,-2.32536 -0.49203,-0.0923 -0.96677,-0.2846 -1.05498,-0.42733 -0.28275,-0.45749 0.39329,-1.98984 1.22877,-2.78521 0.44558,-0.42419 1.47959,-1.65843 2.2978,-2.74277 4.12986,-5.47311 12.42872,-12.74427 20.93912,-18.34611 1.37265,-0.90353 2.55091,-1.82138 2.61834,-2.03966 0.10044,-0.32514 0.0319,-0.31723 -0.37908,0.0438 -0.79196,0.6956 -2.31709,0.88115 -2.85135,0.34689 -0.36895,-0.36895 -0.38755,-0.51806 -0.10685,-0.85654 0.72995,-0.88023 3.64715,-1.55323 3.64715,-0.84141 0,0.50239 0.52533,-0.0292 1.05511,-1.06762 0.2851,-0.55886 0.59596,-1.5013 0.69079,-2.09431 0.14053,-0.87888 0.0878,-1.1107 -0.28546,-1.25391 -1.40131,-0.53774 -6.74394,1.83651 -10.58856,4.70552 -2.84176,2.12063 -10.36873,7.47718 -14.34801,10.21072 -1.34297,0.92254 -3.24797,2.0374 -4.23333,2.47747 -0.98537,0.44007 -2.38689,1.08375 -3.1145,1.43039 -0.7276,0.34664 -1.8587,0.70104 -2.51354,0.78756 -2.71222,0.35833 -4.38419,0.79156 -5.66046,1.46669 -6.47346,3.42437 -7.42415,3.99942 -10.79781,6.53136 -5.08565,3.8168 -7.88341,7.3822 -7.88341,10.04648 0,1.51924 0.61794,2.95015 1.66622,3.85836 0.81959,0.71008 1.93159,1.18024 2.1871,0.92473 0.0685,-0.0685 0.006,-0.94598 -0.13937,-1.95001 -0.33225,-2.29859 -0.33346,-3.04604 -0.006,-3.5453 0.44391,-0.67621 0.72098,0.1263 1.07503,3.11372 0.19889,1.67821 0.47716,2.90264 0.71334,3.13882 0.21298,0.21299 0.43553,0.33896 0.49454,0.27995 0.11033,-0.11033 -0.61081,-4.97612 -0.86031,-5.80488 -0.20666,-0.68647 0.34905,-0.56099 0.84105,0.18991 0.36681,0.55981 0.87296,2.27369 1.54577,5.23405 0.0909,0.40018 0.34169,0.7276 0.5572,0.7276 0.47362,0 0.47178,0.16115 0.0233,-2.03322 -0.60124,-2.94156 -0.76237,-4.83652 -0.44388,-5.22028 0.22099,-0.26627 0.0423,-0.50859 -0.77296,-1.04809 -0.71643,-0.47411 -1.0591,-0.89364 -1.05636,-1.29331 0.007,-1.06429 0.40694,-1.34299 2.10161,-1.46557 1.77539,-0.12842 2.09813,-0.43889 2.52789,-2.43172 0.20572,-0.95394 1.26256,-2.429 3.22377,-4.49948 0.62028,-0.65484 1.30078,-1.42875 1.51221,-1.71979 0.2985,-0.41088 0.45602,-0.4586 0.7047,-0.21347 0.25036,0.24678 0.19802,0.6511 -0.23975,1.85208 -1.08091,2.9654 -2.36152,7.6435 -2.69589,9.84814 -0.45022,2.9685 -0.1826,9.04172 0.50233,11.39971 1.24542,4.28759 3.88218,9.51993 7.4983,14.87953 2.12291,3.14645 6.01447,7.97581 6.24292,7.74736 0.0558,-0.0558 -0.95542,-1.9848 -2.24721,-4.2866 -3.324,-5.92287 -5.67883,-11.46112 -4.87321,-11.46112 0.40068,0 0.73007,0.57445 3.48933,6.08541 3.40921,6.80909 5.3519,10.17428 6.60607,11.44323 0.88227,0.89268 1.57204,1.25888 1.57204,0.8346 z m -1.96038,-7.58147 c -1.00729,-3.25885 -3.86045,-8.69753 -3.86045,-7.35878 0,0.40202 3.87803,8.48326 4.07096,8.48326 0.0754,0 -0.0193,-0.50602 -0.21051,-1.12448 z m 21.53955,-3.61204 c 0,-0.30537 -1.66009,-1.36505 -1.84513,-1.17779 -0.14991,0.1517 1.31771,1.4129 1.64669,1.41508 0.10914,7.2e-4 0.19844,-0.10606 0.19844,-0.23729 z m 5.82083,-0.81973 c 0,-0.14552 -0.20836,-0.26276 -0.46302,-0.26053 -0.39569,0.003 -0.40531,0.0413 -0.0661,0.26053 0.49932,0.32269 0.52916,0.32269 0.52916,0 z m -8.04132,-4.70746 c -0.86316,-1.66917 -4.03083,-5.53358 -4.30838,-5.25603 -0.37161,0.37161 3.89783,5.99474 4.55159,5.99474 0.0763,0 -0.0331,-0.33242 -0.24321,-0.73871 z m 4.20487,0.20954 c -0.0899,-0.14552 -0.30533,-0.26276 -0.47864,-0.26053 -0.18934,0.002 -0.15671,0.10642 0.0818,0.26053 0.5083,0.32849 0.59989,0.32849 0.39688,0 z m -8.98278,-12.75249 c -0.18039,-0.61095 -0.46548,-1.15665 -0.63354,-1.21267 -0.3978,-0.1326 -0.38784,0.25595 0.0266,1.03648 0.85977,1.61937 1.04935,1.6744 0.60698,0.17619 z m 4.4773,-2.82059 c -0.18502,-2.31723 -0.43377,-3.00913 -0.91044,-2.53246 -0.16567,0.16567 -0.16218,0.91076 0.01,2.10344 0.38876,2.69522 0.4956,3.07843 0.80497,2.88724 0.18314,-0.11319 0.21581,-0.95303 0.0956,-2.45822 z m 3.16062,-0.50036 c -0.27004,-1.50346 -0.70626,-2.02978 -0.51432,-0.62054 0.0873,0.64096 0.22093,1.26604 0.29696,1.38906 0.29988,0.48521 0.38713,0.17671 0.21736,-0.76852 z m 2.52214,-0.79375 c -0.0224,-1.66212 -0.909,-5.97394 -1.25193,-6.08825 -0.44268,-0.14756 -0.41343,1.05477 0.0973,3.99981 0.50944,2.93753 0.55101,3.08063 0.89507,3.08063 0.15009,0 0.26689,-0.44648 0.25955,-0.99219 z m -45.23446,-2.51354 c 0.002,-0.10914 -0.23826,-0.19844 -0.53442,-0.19844 -0.46785,0 -0.49882,0.0741 -0.23615,0.56492 0.24155,0.45134 0.34899,0.49123 0.53443,0.19843 0.12765,-0.20156 0.23391,-0.45577 0.23614,-0.56491 z m 49.08904,-1.21277 c -0.19272,-0.67904 -0.54814,-2.15503 -0.7898,-3.27997 -0.24167,-1.12494 -0.55086,-2.11424 -0.68709,-2.19843 -0.40163,-0.24822 -0.28551,1.46482 0.28427,4.19328 0.29257,1.40104 0.51659,2.6404 0.49783,2.75413 -0.0941,0.57054 0.0765,0.64226 0.53688,0.22564 0.46719,-0.4228 0.47997,-0.55995 0.15791,-1.69465 z m 3.71084,-2.4474 c 0.23206,-0.44875 0.44348,-1.30177 0.46982,-1.89559 0.0427,-0.96251 -0.0468,-1.13582 -0.82447,-1.59698 -1.02667,-0.6088 -1.31637,-0.45154 -0.89041,0.48334 0.16916,0.37127 0.30756,1.3838 0.30756,2.25008 0,1.74718 0.30067,1.99064 0.9375,0.75915 z m -27.64957,-0.49178 c -0.55289,-0.77647 -1.05601,-1.16322 -0.6193,-0.47606 0.70835,1.1146 0.99735,1.48304 1.09033,1.39007 0.0578,-0.0578 -0.1542,-0.46907 -0.47103,-0.91401 z M 90.07553,135.93599 c 0.5676,-0.21782 0.52927,-0.59157 -0.23127,-2.25483 -0.64407,-1.40852 -1.62306,-5.02363 -1.23713,-4.5683 0.11042,0.13027 0.41241,0.93663 0.6711,1.79191 0.25869,0.85528 0.82679,2.32515 1.26244,3.26637 l 0.79209,1.71132 0.94136,-0.1766 c 1.13197,-0.21236 4.75383,-2.12124 7.4689,-3.93645 1.99903,-1.33648 4.24477,-3.24777 4.24477,-3.61261 0,-0.10971 -0.54334,-0.33629 -1.20742,-0.50351 -1.09819,-0.27653 -1.19992,-0.36913 -1.12448,-1.0236 0.0768,-0.66665 0.18995,-0.72929 1.53815,-0.85186 l 1.45521,-0.13229 0.0798,-1.09345 0.0798,-1.09346 -1.50997,0.49814 c -1.80619,0.59587 -2.06444,0.60943 -2.46291,0.1293 -0.41241,-0.49692 0.13894,-1.02955 1.95519,-1.88877 0.77383,-0.36608 1.54875,-0.83644 1.72204,-1.04524 0.50691,-0.61079 0.0789,-1.80524 -1.51705,-4.23394 -1.34814,-2.05153 -1.51953,-2.2173 -1.91888,-1.85589 -0.62468,0.56533 -0.98188,0.49489 -1.49997,-0.29582 -0.6225,-0.95006 -2.43997,-1.67786 -4.12653,-1.65244 -0.76171,0.0115 -2.09931,-0.12433 -2.97243,-0.3018 -1.16705,-0.2372 -1.7808,-0.24626 -2.31731,-0.0342 -0.92038,0.36377 -2.12512,2.24648 -2.87016,4.48532 -0.5008,1.50491 -0.55495,2.09204 -0.41722,4.52408 0.17228,3.04226 -0.11685,3.17692 -0.62725,0.29213 -0.35784,-2.0225 0.0975,-4.80341 1.19169,-7.27748 0.75385,-1.70458 0.55153,-1.81921 -1.22379,-0.69334 -0.66454,0.42145 -1.77054,1.01498 -2.45777,1.31898 -1.98354,0.87741 -3.68434,2.48745 -5.00175,4.73483 -1.63909,2.79616 -2.59986,6.81273 -1.75457,7.33515 0.14552,0.0899 0.26458,0.43513 0.26458,0.7671 0,0.95992 1.52612,3.75439 2.53329,4.6387 2.44505,2.14678 8.17763,3.8383 10.27737,3.03256 z m -2.41996,-7.70329 c -0.85665,-0.1066 -2.4532,-1.65131 -2.4532,-2.37355 0,-0.80771 3.48868,-1.61162 4.666,-1.0752 0.67819,0.30901 0.72898,0.80019 0.21902,2.11836 -0.243,0.62812 0.27841,0.59126 0.93582,-0.0661 0.29104,-0.29104 0.5887,-0.52917 0.66146,-0.52917 0.27321,0 0.11936,1.4946 -0.18521,1.79917 -0.30263,0.30263 -1.98396,0.35797 -3.84389,0.12653 z m -6.77592,-1.3938 c -1.26453,-1.50281 -1.29835,-5.34984 -0.0579,-6.59026 0.64425,-0.64425 0.72817,-0.6619 1.38056,-0.29036 1.05526,0.601 1.67718,2.00021 1.67718,3.7734 0,1.76161 -0.51052,3.19887 -1.28313,3.61236 -0.78905,0.42229 -0.98476,0.3647 -1.71668,-0.50514 z m 13.91681,-1.91357 c -1.28966,-1.37277 -2.0144,-4.80223 -1.40504,-6.6486 0.28235,-0.85554 0.41969,-0.96556 1.20528,-0.96556 0.48765,0 1.09248,0.20585 1.34407,0.45744 1.49043,1.49043 2.07063,5.43805 1.00902,6.86526 -0.71433,0.96034 -1.43351,1.05768 -2.15333,0.29146 z m 40.08143,4.80324 c -0.63509,-0.33528 -0.99218,-0.71197 -0.99218,-1.04664 0,-0.44016 0.181,-0.52285 1.1445,-0.52285 0.87237,0 1.28926,0.15408 1.75327,0.648 1.23637,1.31606 -0.0134,1.92042 -1.90559,0.92149 z m 3.04271,-3.27969 c -1.16496,-0.54237 -1.38906,-0.76013 -1.38906,-1.34978 0,-0.66912 0.0479,-0.69409 0.99219,-0.51708 2.30736,0.43252 3.40161,1.2909 2.70918,2.12523 -0.43703,0.52658 -0.68607,0.49875 -2.31231,-0.25837 z m 3.02364,-3.61315 c -2.10328,-0.27347 -2.8676,-0.6083 -2.65475,-1.16297 0.16295,-0.42464 0.40107,-0.45583 3.0022,-0.39314 1.88346,0.0454 2.45029,0.3288 2.33022,1.16507 -0.0946,0.65882 -0.34117,0.69483 -2.67767,0.39104 z m -3.51518,-4.57745 c -0.0882,-0.22987 -0.10082,-0.57316 -0.028,-0.76286 0.2323,-0.60535 4.2821,-1.29447 4.76565,-0.81092 0.40348,0.40348 -0.42571,1.12107 -1.59472,1.38009 -2.79976,0.62033 -2.97504,0.63113 -3.1429,0.19369 z m -1.1621,-3.70495 c 0,-0.67506 1.39444,-2.05414 2.59921,-2.57056 1.38206,-0.59242 2.23206,-0.44156 2.11257,0.37493 -0.058,0.39628 -0.65504,0.84431 -2.06595,1.55034 -2.18702,1.09439 -2.64583,1.20629 -2.64583,0.64529 z m -2.78532,-3.60381 c -0.28224,-0.45667 0.64718,-1.59389 1.64254,-2.00978 1.28457,-0.53673 2.31086,-0.38601 2.41626,0.35485 0.14521,1.02069 -3.52572,2.51748 -4.0588,1.65493 z"
       style="fill:#65c0b1;stroke-width:0;stroke-dasharray:none"
       id="path1" />
  </g>
</svg>
