<svg xmlns="http://www.w3.org/2000/svg" version="1.1" xmlns:xlink="http://www.w3.org/1999/xlink" xmlns:svgjs="http://svgjs.dev/svgjs" viewBox="0 0 800 800"><defs><filter id="bbburst-blur-1" x="-100%" y="-100%" width="400%" height="400%"><feGaussianBlur in="SourceGraphic" stdDeviation="1"></feGaussianBlur></filter><filter id="bbburst-blur-2" x="-100%" y="-100%" width="400%" height="400%"><feGaussianBlur in="SourceGraphic" stdDeviation="2"></feGaussianBlur></filter><filter id="bbburst-blur-3" x="-100%" y="-100%" width="400%" height="400%"><feGaussianBlur in="SourceGraphic" stdDeviation="4"></feGaussianBlur></filter><filter id="bbburst-blur-4" x="-100%" y="-100%" width="400%" height="400%"><feGaussianBlur in="SourceGraphic" stdDeviation="12"></feGaussianBlur></filter><symbol id="bbburst-shape-1" viewBox="0 0 194 167"><path d="m97 0 96.129 166.5H.871L97 0Z"></path></symbol><symbol id="bbburst-shape-4" viewBox="0 0 149 143"><path d="M71.647 2.781c.898-2.764 4.808-2.764 5.706 0l15.445 47.534a3 3 0 0 0 2.853 2.073h49.98c2.906 0 4.115 3.719 1.764 5.427L106.96 87.193a2.999 2.999 0 0 0-1.09 3.354l15.445 47.534c.898 2.764-2.266 5.062-4.617 3.354l-40.435-29.378a3 3 0 0 0-3.526 0l-40.435 29.378c-2.351 1.708-5.515-.59-4.617-3.354L43.13 90.547a3 3 0 0 0-1.09-3.354L1.605 57.815c-2.35-1.708-1.142-5.427 1.764-5.427h49.98a3 3 0 0 0 2.853-2.073L71.647 2.781Z"></path></symbol><symbol id="bbburst-shape-6" viewBox="0 0 133 116"><path d="M59.7487 10.2513c-13.6683-13.66839-35.8291-13.66839-49.4974 0-13.66839 13.6683-13.66839 35.8291 0 49.4974l49.4974-49.4974ZM66.5 66.5 41.7513 91.2487 66.5 115.997l24.7487-24.7483L66.5 66.5Zm56.249-6.7513c13.668-13.6683 13.668-35.8291 0-49.4974-13.669-13.66839-35.8294-13.66839-49.4977 0l49.4977 49.4974Zm-112.4977 0 31.5 31.5 49.4974-49.4974-31.5-31.5-49.4974 49.4974Zm80.9974 31.5 31.5003-31.5-49.4977-49.4974-31.5 31.5 49.4974 49.4974Z"></path></symbol><symbol id="bbburst-shape-8" viewBox="0 0 87 168"><path d="m12 12 31.2546 18.0749c16.4102 9.4902 20.014 31.6325 7.4603 45.8369L36.3296 92.1884c-12.5684 14.2206-8.9394 36.3916 7.5068 45.8636L75 156" stroke-width="14" stroke-linecap="round" stroke-linejoin="round"></path></symbol></defs><use xlink:href="#bbburst-shape-4" width="35.31476812347141" opacity="0.6178400489062705" transform="matrix(0.8955962361163211,0.4448678251506608,-0.4448678251506608,0.8955962361163211,264.4232470673762,2.146950773089088)" fill="#49bacb" filter="url(#bbburst-blur-1)"></use><use xlink:href="#bbburst-shape-4" width="13.90189523071248" opacity="0.9437731483484729" transform="matrix(0.7453010189433996,0.66672812387204,-0.66672812387204,0.7453010189433996,280.30779847332917,-249.75662874321387)" fill="#49bacb"></use><use xlink:href="#bbburst-shape-1" width="18.297302472691737" opacity="0.8605821100051179" transform="matrix(0.9183624806461497,0.39574026095590836,-0.39574026095590836,0.9183624806461497,220.34162432722366,-250.63915793830438)" fill="#a9eaab"></use><use xlink:href="#bbburst-shape-4" width="17.03979225713721" opacity="0.8151139785864149" transform="matrix(0.9717780160723232,0.2358971968433274,-0.2358971968433274,0.9717780160723232,270.07384720560344,-372.607872214769)" fill="#49bacb"></use><use xlink:href="#bbburst-shape-6" width="13.057898414819093" opacity="0.9053651051808652" transform="matrix(0.9200551436607148,-0.3917888878253967,0.3917888878253967,0.9200551436607148,-138.75001754435505,-273.91568692834005)" fill="#49eacb"></use><use xlink:href="#bbburst-shape-8" width="19.761181729629698" opacity="0.7720013506285793" transform="matrix(0.9061160983726733,0.4230290962450266,-0.4230290962450266,0.9061160983726733,387.2527297644921,-345.2467877025695)" fill="none" stroke="#70c7ba"></use><use xlink:href="#bbburst-shape-8" width="17.001700531823257" opacity="0.8657100497258627" transform="matrix(0.9824241924749169,0.18666201016813114,-0.18666201016813114,0.9824241924749169,85.60137790731316,-261.65889585055066)" fill="none" stroke="#70c7ba"></use><use xlink:href="#bbburst-shape-8" width="44.766317132610794" opacity="0.46729787726286753" transform="matrix(0.9361771402779449,-0.35152860768507743,0.35152860768507743,0.9361771402779449,189.51551442036393,34.03856857063238)" fill="none" stroke="#49bacb" filter="url(#bbburst-blur-1)"></use><use xlink:href="#bbburst-shape-6" width="20.16494137822051" opacity="0.6255124505687137" transform="matrix(0.9941800431981022,0.10773134041039155,-0.10773134041039155,0.9941800431981022,404.4998780303364,-351.01037038702117)" fill="#49bacb" filter="url(#bbburst-blur-1)"></use><use xlink:href="#bbburst-shape-6" width="38.84914378071606" opacity="0.5074643264023634" transform="matrix(0.9720724746685978,0.23468085561389163,-0.23468085561389163,0.9720724746685978,127.73574225639433,96.31614200784827)" fill="#49bacb" filter="url(#bbburst-blur-1)"></use><use xlink:href="#bbburst-shape-6" width="35.71564329535583" opacity="0.21368766813461793" transform="matrix(0.7417338850128015,0.6706942998295247,-0.6706942998295247,0.7417338850128015,1010.5179774799938,-90.66213647744667)" fill="#49bacb" filter="url(#bbburst-blur-3)"></use><use xlink:href="#bbburst-shape-6" width="43.52396348685102" opacity="0.5267905467535745" transform="matrix(0.9993331775895052,-0.03651301369186529,0.03651301369186529,0.9993331775895052,114.5928672731956,49.55108791754975)" fill="#49bacb" filter="url(#bbburst-blur-1)"></use><use xlink:href="#bbburst-shape-4" width="63.85425790155275" opacity="-0.0024163410505466665" transform="matrix(0.9833923600473196,0.18149233096900522,-0.18149233096900522,0.9833923600473196,725.138953211119,333.74350816868275)" fill="#49bacb" filter="url(#bbburst-blur-3)"></use><use xlink:href="#bbburst-shape-1" width="57.33049862516136" opacity="0.18092272666951847" transform="matrix(0.9965064100053076,-0.083516314683622,0.083516314683622,0.9965064100053076,569.4143059670502,125.63817847590263)" fill="#49bacb" filter="url(#bbburst-blur-3)"></use><use xlink:href="#bbburst-shape-4" width="24.64865715879812" opacity="0.6892914049023439" transform="matrix(0.8001311162813659,-0.5998251384848214,0.5998251384848214,0.8001311162813659,-143.0172086570223,-20.851024019802196)" fill="#49eacb"></use><use xlink:href="#bbburst-shape-6" width="15.805219333590221" opacity="0.9125672686116629" transform="matrix(0.9534394929292731,0.30158437181453984,-0.30158437181453984,0.9534394929292731,170.64600895023182,-317.93470463212344)" fill="#49eacb"></use><use xlink:href="#bbburst-shape-4" width="34.891093204277304" opacity="0.490902263123307" transform="matrix(0.9743947970406086,-0.22484390029571907,0.22484390029571907,0.9743947970406086,353.0708332149133,-167.67534772622716)" fill="#a9eaab" filter="url(#bbburst-blur-1)"></use><use xlink:href="#bbburst-shape-6" width="33.562138955391454" opacity="0.4885134563471337" transform="matrix(0.9385092949100862,0.34525396937236347,-0.34525396937236347,0.9385092949100862,621.2652508132303,-268.4835676653868)" fill="#49eacb" filter="url(#bbburst-blur-1)"></use><use xlink:href="#bbburst-shape-1" width="26.315689235467158" opacity="0.6316854973547263" transform="matrix(0.9957354632571745,0.09225446987555652,-0.09225446987555652,0.9957354632571745,333.2009171837273,-199.6625333979057)" fill="#49eacb" filter="url(#bbburst-blur-1)"></use><use xlink:href="#bbburst-shape-4" width="55.23054375116415" opacity="0.3945768563559442" transform="matrix(0.770448409578573,0.6375023515077003,-0.6375023515077003,0.770448409578573,768.2667556606816,-41.5487153392005)" fill="#a9eaab" filter="url(#bbburst-blur-2)"></use><use xlink:href="#bbburst-shape-8" width="39.381540649802304" opacity="0.578399728667413" transform="matrix(0.992767690153352,-0.12005129481841512,0.12005129481841512,0.992767690153352,203.65766603730464,-71.96932176545585)" fill="none" stroke="#a9eaab" filter="url(#bbburst-blur-1)"></use><use xlink:href="#bbburst-shape-4" width="47.89347100751773" opacity="0.3226490595384046" transform="matrix(0.9156401593946608,-0.40199887873440654,0.40199887873440654,0.9156401593946608,477.53961988429955,-205.3402347744597)" fill="#49eacb" filter="url(#bbburst-blur-2)"></use><use xlink:href="#bbburst-shape-8" width="59.89886460811181" opacity="0.05226716666331588" transform="matrix(0.98967335631403,-0.14334101925870005,0.14334101925870005,0.98967335631403,651.5366400258742,202.38975839309853)" fill="none" stroke="#49eacb" filter="url(#bbburst-blur-3)"></use><use xlink:href="#bbburst-shape-1" width="37.35110699617329" opacity="0.5347512099775771" transform="matrix(0.8454964533610104,-0.5339810365115533,0.5339810365115533,0.8454964533610104,136.37399973383285,-40.61392462220863)" fill="#a9eaab" filter="url(#bbburst-blur-1)"></use><use xlink:href="#bbburst-shape-8" width="42.87290625857344" opacity="0.37893381321858444" transform="matrix(0.8615790335149373,0.5076234519872646,-0.5076234519872646,0.8615790335149373,803.4339493853422,-303.1374326097216)" fill="none" stroke="#70c7ba" filter="url(#bbburst-blur-2)"></use><use xlink:href="#bbburst-shape-6" width="12.211123540177832" opacity="0.8565109370269635" transform="matrix(0.9890826683390744,-0.14736171548694918,0.14736171548694918,0.9890826683390744,77.39041454767226,-376.8792816775995)" fill="#49bacb"></use><use xlink:href="#bbburst-shape-1" width="41.25972983897553" opacity="0.42137960548333186" transform="matrix(0.778106828754196,-0.6281319630826697,0.6281319630826697,0.778106828754196,185.0333356915579,62.619487212309195)" fill="#70c7ba" filter="url(#bbburst-blur-2)"></use><use xlink:href="#bbburst-shape-4" width="14.81849127650079" opacity="0.850359902256894" transform="matrix(0.8475374891312535,-0.5307355316135244,0.5307355316135244,0.8475374891312535,-87.12586328709958,-263.5487825396174)" fill="#49bacb"></use><use xlink:href="#bbburst-shape-8" width="18.898481894258317" opacity="0.6752343523261788" transform="matrix(0.9768267427370445,-0.21403157401125628,0.21403157401125628,0.9768267427370445,229.16030824702477,-366.46774710445953)" fill="none" stroke="#70c7ba"></use><use xlink:href="#bbburst-shape-1" width="48.87777000636885" opacity="0.28006149166550465" transform="matrix(0.9339133094060469,0.3574995531664974,-0.3574995531664974,0.9339133094060469,782.197416857188,-99.38424864264732)" fill="#a9eaab" filter="url(#bbburst-blur-2)"></use><use xlink:href="#bbburst-shape-6" width="41.62782021921099" opacity="0.3584168755531504" transform="matrix(0.9638935993582243,0.26628768111996287,-0.26628768111996287,0.9638935993582243,465.0325549480341,126.88324663254957)" fill="#70c7ba" filter="url(#bbburst-blur-2)"></use><use xlink:href="#bbburst-shape-1" width="14.872045704011175" opacity="0.8812923584856455" transform="matrix(0.8808766754462597,-0.4733458383198746,0.4733458383198746,0.8808766754462597,-102.97680556939156,-274.9181126110346)" fill="#70c7ba"></use><use xlink:href="#bbburst-shape-4" width="32.79871463012442" opacity="0.6303058986687948" transform="matrix(0.8408777381791027,0.5412251189983668,-0.5412251189983668,0.8408777381791027,549.6588281356491,-217.5999885234478)" fill="#70c7ba" filter="url(#bbburst-blur-1)"></use><use xlink:href="#bbburst-shape-8" width="36.17405217086089" opacity="0.4301352266494728" transform="matrix(0.7349797811572621,-0.6780890216557285,0.6780890216557285,0.7349797811572621,-134.49562547610776,268.03246417962106)" fill="none" stroke="#49bacb" filter="url(#bbburst-blur-2)"></use><use xlink:href="#bbburst-shape-4" width="28.681622301526367" opacity="0.7257455884506959" transform="matrix(0.9620819834802828,0.27276043896181995,-0.27276043896181995,0.9620819834802828,279.2721778206171,-185.32386784785007)" fill="#49eacb"></use><use xlink:href="#bbburst-shape-8" width="12.887303844701503" opacity="0.9472544498191723" transform="matrix(0.9819132978892294,0.18933112641163186,-0.18933112641163186,0.9819132978892294,117.68170319913037,-372.73709576450716)" fill="none" stroke="#70c7ba"></use><use xlink:href="#bbburst-shape-6" width="37.90826883539536" opacity="0.5061910024331946" transform="matrix(0.8828322732833952,-0.4696883831321279,0.4696883831321279,0.8828322732833952,47.4053918841997,80.43026495442757)" fill="#49bacb" filter="url(#bbburst-blur-1)"></use><use xlink:href="#bbburst-shape-8" width="18.09249099571298" opacity="0.8278878066722705" transform="matrix(0.969538685103762,0.24493823320843214,-0.24493823320843214,0.969538685103762,134.14905378978568,-223.89093371502668)" fill="none" stroke="#a9eaab"></use><use xlink:href="#bbburst-shape-1" width="47.67227703850275" opacity="0.30932771903910783" transform="matrix(0.8856979542340628,0.46426192377320363,-0.46426192377320363,0.8856979542340628,655.8120794580666,120.20271446392087)" fill="#49eacb" filter="url(#bbburst-blur-2)"></use><use xlink:href="#bbburst-shape-6" width="47.383125795018586" opacity="0.2547751896596865" transform="matrix(0.9931206985577864,-0.11709516683490581,0.11709516683490581,0.9931206985577864,672.1284171463246,-330.7459786374717)" fill="#49bacb" filter="url(#bbburst-blur-2)"></use><use xlink:href="#bbburst-shape-8" width="33.32278636008353" opacity="0.2367182802847363" transform="matrix(0.8558945237334484,0.5171504270936006,-0.5171504270936006,0.8558945237334484,288.6758425263684,406.2366571713424)" fill="none" stroke="#49eacb" filter="url(#bbburst-blur-3)"></use><use xlink:href="#bbburst-shape-8" width="18.882987861691085" opacity="0.7524285515528397" transform="matrix(0.9427913209792564,0.3333834505283497,-0.3333834505283497,0.9427913209792564,344.3405031485088,-266.50707918194485)" fill="none" stroke="#49eacb"></use><use xlink:href="#bbburst-shape-4" width="54.757868361841034" opacity="0.40621436269750977" transform="matrix(0.8879785376060112,-0.45988489511081976,0.45988489511081976,0.8879785376060112,49.33296030044002,192.45416042850138)" fill="#49eacb" filter="url(#bbburst-blur-2)"></use><use xlink:href="#bbburst-shape-8" width="28.919359346161865" opacity="0.6660520304540205" transform="matrix(0.8438468483711348,0.5365841001130235,-0.5365841001130235,0.8438468483711348,389.3903606072961,-68.58876954040608)" fill="none" stroke="#49eacb"></use><use xlink:href="#bbburst-shape-8" width="27.01086390305693" opacity="0.6913195490132356" transform="matrix(0.9601411851760455,-0.27951548173355034,0.27951548173355034,0.9601411851760455,155.20580809295086,-250.2995621615225)" fill="none" stroke="#49bacb"></use><use xlink:href="#bbburst-shape-4" width="58.046293394077324" opacity="0.27000902914004077" transform="matrix(0.8548012408855856,-0.51895552659208,0.51895552659208,0.8548012408855856,120.23091221441612,312.37616479722857)" fill="#49eacb" filter="url(#bbburst-blur-2)"></use><use xlink:href="#bbburst-shape-4" width="25.709967097928747" opacity="0.7695852393790579" transform="matrix(0.980244546322897,0.19778935614490925,-0.19778935614490925,0.980244546322897,142.92247283994476,-177.24204965738218)" fill="#49eacb"></use><use xlink:href="#bbburst-shape-6" width="57.53582454559197" opacity="0.1771393853924501" transform="matrix(0.9536385122554696,0.30095446157712064,-0.30095446157712064,0.9536385122554696,623.6586051749896,238.7317315380738)" fill="#70c7ba" filter="url(#bbburst-blur-3)"></use><use xlink:href="#bbburst-shape-4" width="47.46008445263861" opacity="0.29095428584442573" transform="matrix(0.9648510941714002,-0.2627971957161105,0.2627971957161105,0.9648510941714002,463.17704918450715,11.810544831030711)" fill="#70c7ba" filter="url(#bbburst-blur-2)"></use><use xlink:href="#bbburst-shape-1" width="23.170630724216615" opacity="0.790524771625463" transform="matrix(0.9765138374293006,-0.21545469433062095,0.21545469433062095,0.9765138374293006,-75.90500779521395,-179.71997534640883)" fill="#49bacb"></use><use xlink:href="#bbburst-shape-4" width="19.481123263046314" opacity="0.7854429318059495" transform="matrix(0.8036403136993584,0.595115321763099,-0.595115321763099,0.8036403136993584,435.88956480400236,-266.16742312373134)" fill="#49eacb"></use><use xlink:href="#bbburst-shape-6" width="24.500093144310043" opacity="0.7362054912660518" transform="matrix(0.9670694850061855,-0.25451249707994916,0.25451249707994916,0.9670694850061855,17.562748729161,-154.86406213045876)" fill="#49bacb"></use><use xlink:href="#bbburst-shape-1" width="38.823282991456395" opacity="0.4187688814546371" transform="matrix(0.9418668512716841,-0.33598636054989384,0.33598636054989384,0.9418668512716841,-100.11167084557258,208.67318259167325)" fill="#49bacb" filter="url(#bbburst-blur-2)"></use><use xlink:href="#bbburst-shape-8" width="18.140418813379014" opacity="0.7763119908876698" transform="matrix(0.9166230640573148,0.3997526215526046,-0.3997526215526046,0.9166230640573148,320.30498134130016,-223.40573265015018)" fill="none" stroke="#49eacb"></use><use xlink:href="#bbburst-shape-8" width="34.815809506708774" opacity="0.5643202245298469" transform="matrix(0.8263383502433945,0.563173979261316,-0.563173979261316,0.8263383502433945,629.1757136766792,-218.48025139041056)" fill="none" stroke="#49eacb" filter="url(#bbburst-blur-1)"></use><use xlink:href="#bbburst-shape-4" width="32.688760059580325" opacity="0.5684523037975029" transform="matrix(0.9795877782939625,0.2010168764484679,-0.2010168764484679,0.9795877782939625,446.37495782818223,-194.2909565588458)" fill="#49eacb" filter="url(#bbburst-blur-1)"></use><use xlink:href="#bbburst-shape-6" width="48.74128413419501" opacity="0.20275010047775743" transform="matrix(0.9461558423866344,0.32371147943444667,-0.32371147943444667,0.9461558423866344,382.64037774220026,361.5214450293445)" fill="#49bacb" filter="url(#bbburst-blur-3)"></use><use xlink:href="#bbburst-shape-4" width="27.65739845616511" opacity="0.6821252137992373" transform="matrix(0.7966746756954391,-0.6044083562506122,0.6044083562506122,0.7966746756954391,55.91683088751259,-234.3983463240205)" fill="#49bacb"></use><use xlink:href="#bbburst-shape-1" width="29.15470450144387" opacity="0.6017363071496884" transform="matrix(0.7704834924284986,0.637459950032301,-0.637459950032301,0.7704834924284986,424.65591746355005,37.33768290924587)" fill="#70c7ba" filter="url(#bbburst-blur-1)"></use><use xlink:href="#bbburst-shape-1" width="13.817262316649549" opacity="0.9167816538194978" transform="matrix(0.8544550962074868,0.5195252530580726,-0.5195252530580726,0.8544550962074868,282.12002925718184,-323.22746052027776)" fill="#70c7ba"></use><use xlink:href="#bbburst-shape-4" width="32.98484409452261" opacity="0.4754089670685463" transform="matrix(0.9225778322633675,0.38581102034056214,-0.38581102034056214,0.9225778322633675,662.3389745422726,-337.7647200627613)" fill="#70c7ba" filter="url(#bbburst-blur-1)"></use><use xlink:href="#bbburst-shape-4" width="23.33021856038158" opacity="0.8315844199835354" transform="matrix(0.8345246695644771,-0.5509705762455017,0.5509705762455017,0.8345246695644771,-109.0186907629958,-210.3165003799886)" fill="#49eacb"></use><use xlink:href="#bbburst-shape-6" width="52.21012666544318" opacity="0.31686406642071474" transform="matrix(0.7391153720947669,-0.6735788496777599,0.6735788496777599,0.7391153720947669,-96.55098616372825,377.48636932663527)" fill="#70c7ba" filter="url(#bbburst-blur-2)"></use><use xlink:href="#bbburst-shape-6" width="47.82766459360127" opacity="0.15664704599742185" transform="matrix(0.8465605865926227,0.5322923756996286,-0.5322923756996286,0.8465605865926227,932.3586271513086,53.74964647779012)" fill="#49eacb" filter="url(#bbburst-blur-3)"></use><use xlink:href="#bbburst-shape-4" width="37.16693017591369" opacity="0.562418809416487" transform="matrix(0.8666351366507946,0.4989424214498689,-0.4989424214498689,0.8666351366507946,619.4438015771032,-318.5997683217279)" fill="#70c7ba" filter="url(#bbburst-blur-1)"></use><use xlink:href="#bbburst-shape-4" width="25.84031687833316" opacity="0.7313604338051223" transform="matrix(0.7661230484635883,-0.6426939198505447,0.6426939198505447,0.7661230484635883,-231.89905790011915,-31.785851375518348)" fill="#49eacb"></use><use xlink:href="#bbburst-shape-4" width="12.527682459368563" opacity="0.8855358304477088" transform="matrix(0.9609358366527019,-0.2767712373722597,0.2767712373722597,0.9609358366527019,-5.740786364683913,-354.6180420489024)" fill="#49eacb"></use><use xlink:href="#bbburst-shape-4" width="40.02797149549087" opacity="0.12319264318822365" transform="matrix(0.9879240734130488,0.15493877878365042,-0.15493877878365042,0.9879240734130488,507.6682255695497,344.8185742361805)" fill="#70c7ba" filter="url(#bbburst-blur-3)"></use><use xlink:href="#bbburst-shape-6" width="17.727825374789177" opacity="0.8032814960964122" transform="matrix(0.8563733317049027,-0.5163571600594348,0.5163571600594348,0.8563733317049027,-42.5401675282024,-241.77516515113211)" fill="#49eacb"></use><use xlink:href="#bbburst-shape-6" width="22.525983541431543" opacity="0.7370442306811412" transform="matrix(0.9859484372679743,-0.16704992980794506,0.16704992980794506,0.9859484372679743,175.01873293560345,-320.6271015360283)" fill="#a9eaab"></use><use xlink:href="#bbburst-shape-6" width="19.376179464240224" opacity="0.7263885029592263" transform="matrix(0.7599866916061039,-0.6499386344737546,0.6499386344737546,0.7599866916061039,5.143901536646524,-272.8626420201678)" fill="#a9eaab"></use><use xlink:href="#bbburst-shape-8" width="14.55823926385284" opacity="0.8288556068170337" transform="matrix(0.9283541921285552,-0.3716967768993131,0.3716967768993131,0.9283541921285552,7.829404342534474,-317.30658235267697)" fill="none" stroke="#49bacb"></use><use xlink:href="#bbburst-shape-8" width="37.559599221669714" opacity="0.3256664094928827" transform="matrix(0.9209090142247889,0.3897776129019311,-0.3897776129019311,0.9209090142247889,194.19609187388323,296.35566321301457)" fill="none" stroke="#49eacb" filter="url(#bbburst-blur-2)"></use><use xlink:href="#bbburst-shape-6" width="27.74806214806079" opacity="0.6458232481891013" transform="matrix(0.730102734772901,-0.6833373959305395,0.6833373959305395,0.730102734772901,-25.82063399923669,-39.535608460004056)" fill="#49eacb" filter="url(#bbburst-blur-1)"></use><use xlink:href="#bbburst-shape-6" width="24.77101176476872" opacity="0.7088735455741688" transform="matrix(0.9791952245593771,-0.20292045781564488,0.20292045781564488,0.9791952245593771,141.989119426434,-217.71322975443988)" fill="#a9eaab"></use><use xlink:href="#bbburst-shape-6" width="29.592618504698493" opacity="0.5861281985302008" transform="matrix(0.7860497847495754,-0.6181631951961765,0.6181631951961765,0.7860497847495754,-218.5642604249172,106.62884791798712)" fill="#a9eaab" filter="url(#bbburst-blur-1)"></use><use xlink:href="#bbburst-shape-6" width="37.14812714825269" opacity="0.40896723851824535" transform="matrix(0.9947616950594783,0.10222118196535103,-0.10222118196535103,0.9947616950594783,586.1260453587786,-222.1914575485427)" fill="#49eacb" filter="url(#bbburst-blur-2)"></use><use xlink:href="#bbburst-shape-6" width="13.53665707157039" opacity="0.9767375996766712" transform="matrix(0.9925747993892428,-0.12163579907824996,0.12163579907824996,0.9925747993892428,-39.40945111252836,-379.28539276499)" fill="#70c7ba"></use><use xlink:href="#bbburst-shape-4" width="25.375667127511814" opacity="0.7988590096656014" transform="matrix(0.8997759815954802,0.4363521318200359,-0.4363521318200359,0.8997759815954802,273.7671477322538,-197.45670963980706)" fill="#49bacb"></use><use xlink:href="#bbburst-shape-4" width="33.56765377459995" opacity="0.6666613544650482" transform="matrix(0.8881528358729242,-0.459548191304114,0.459548191304114,0.8881528358729242,-165.02567020682892,-15.888902305397039)" fill="#70c7ba"></use></svg>
